<?xml version="1.0" encoding="utf-8"?>
<!-- Generator: Adobe Illustrator 16.0.0, SVG Export Plug-In . SVG Version: 6.00 Build 0)  -->
<!DOCTYPE svg PUBLIC "-//W3C//DTD SVG 1.1//EN" "http://www.w3.org/Graphics/SVG/1.1/DTD/svg11.dtd">
<svg version="1.1" id="Layer_1" xmlns="http://www.w3.org/2000/svg" xmlns:xlink="http://www.w3.org/1999/xlink" x="0px" y="0px"
	 width="36.61px" height="29.499px" viewBox="0 0 36.61 29.499" enable-background="new 0 0 36.61 29.499" xml:space="preserve">
<g>
	<g>
		
			<rect x="18.376" y="6.996" transform="matrix(0.7071 -0.7072 0.7072 0.7071 1.3079 22.1025)" fill="none" stroke="#D5D2CA" stroke-width="2" stroke-linecap="round" stroke-linejoin="round" stroke-miterlimit="10" width="17.91" height="4.954"/>
		
			<polygon fill="none" stroke="#D5D2CA" stroke-width="2" stroke-linecap="round" stroke-linejoin="round" stroke-miterlimit="10" points="
			17.73,19.072 19.247,14.055 22.752,17.556 		"/>
		
			<rect x="30.601" y="1.816" transform="matrix(-0.7072 0.707 -0.707 -0.7072 58.536 -15.6543)" fill="none" stroke="#D5D2CA" stroke-width="2" stroke-linecap="round" stroke-linejoin="round" stroke-miterlimit="10" width="3.817" height="4.954"/>
	</g>
	
		<polyline fill="none" stroke="#D5D2CA" stroke-width="2" stroke-linecap="round" stroke-linejoin="round" stroke-miterlimit="10" points="
		23.675,16.631 23.675,28.499 1,28.499 1,1 23.675,1 23.675,9.626 	"/>
	
		<line fill="none" stroke="#D5D2CA" stroke-width="2" stroke-linecap="round" stroke-linejoin="round" stroke-miterlimit="10" x1="5.302" y1="6.554" x2="19.266" y2="6.554"/>
	
		<line fill="none" stroke="#D5D2CA" stroke-width="2" stroke-linecap="round" stroke-linejoin="round" stroke-miterlimit="10" x1="5.302" y1="10.169" x2="19.266" y2="10.169"/>
	
		<line fill="none" stroke="#D5D2CA" stroke-width="2" stroke-linecap="round" stroke-linejoin="round" stroke-miterlimit="10" x1="5.302" y1="13.736" x2="19.266" y2="13.736"/>
	
		<line fill="none" stroke="#D5D2CA" stroke-width="2" stroke-linecap="round" stroke-linejoin="round" stroke-miterlimit="10" x1="8.676" y1="21.688" x2="11.405" y2="25.153"/>
	
		<line fill="none" stroke="#D5D2CA" stroke-width="2" stroke-linecap="round" stroke-linejoin="round" stroke-miterlimit="10" x1="11.405" y1="25.153" x2="17.64" y2="19.072"/>
</g>
</svg>
