<?xml version="1.0" encoding="utf-8"?>
<!-- Generator: Adobe Illustrator 16.0.0, SVG Export Plug-In . SVG Version: 6.00 Build 0)  -->
<!DOCTYPE svg PUBLIC "-//W3C//DTD SVG 1.1//EN" "http://www.w3.org/Graphics/SVG/1.1/DTD/svg11.dtd">
<svg version="1.1" id="Layer_1" xmlns="http://www.w3.org/2000/svg" xmlns:xlink="http://www.w3.org/1999/xlink" x="0px" y="0px"
	 width="44.139px" height="29.8px" viewBox="0 0 44.139 29.8" enable-background="new 0 0 44.139 29.8" xml:space="preserve">
<g>
	<path fill="none" stroke="#D5D2CA" stroke-width="2" stroke-linecap="round" stroke-linejoin="round" stroke-miterlimit="10" d="
		M34.138,15.04c-2.401,0.911-2.807,2.165-2.807,4.193h-0.203c-0.067-0.438-0.104-0.811-0.104-1.183
		c0-2.978,4.132-6.328,4.132-11.133c0-2.639-1.39-5.21-4.265-5.21c-3.351,0-4.229,2.268-4.297,3.012
		c0.304-0.136,0.676-0.203,1.082-0.203c1.862,0,3.79,1.253,3.79,3.926c0,2.64-1.862,4.024-3.926,4.024
		c-1.454,0-4.095-1.05-4.095-4.024c0-1.119,0.338-2.439,1.082-3.452c1.998-2.706,4.67-3.689,7.477-3.689
		c6.127,0,11.135,2.303,11.135,6.868C43.139,12.568,37.928,13.618,34.138,15.04z M31.939,21.291c2.062,0,3.754,1.69,3.754,3.755
		c0,2.063-1.691,3.754-3.754,3.754c-2.1,0-3.754-1.69-3.754-3.754C28.186,22.981,29.84,21.291,31.939,21.291z"/>
</g>
<g>
	<path fill="none" stroke="#D5D2CA" stroke-width="2" stroke-linecap="round" stroke-linejoin="round" stroke-miterlimit="10" d="
		M10.001,14.76c2.401-0.911,2.807-2.165,2.807-4.193h0.203c0.067,0.438,0.104,0.811,0.104,1.183c0,2.978-4.132,6.328-4.132,11.133
		c0,2.639,1.39,5.21,4.265,5.21c3.351,0,4.229-2.268,4.297-3.012c-0.304,0.136-0.676,0.203-1.082,0.203
		c-1.862,0-3.79-1.253-3.79-3.926c0-2.64,1.862-4.024,3.926-4.024c1.454,0,4.095,1.05,4.095,4.024c0,1.119-0.338,2.439-1.082,3.452
		c-1.998,2.706-4.67,3.689-7.477,3.689C6.008,28.499,1,26.196,1,21.631C1,17.231,6.211,16.182,10.001,14.76z M12.199,8.509
		c-2.062,0-3.754-1.69-3.754-3.755C8.445,2.69,10.137,1,12.199,1c2.1,0,3.754,1.69,3.754,3.754
		C15.953,6.818,14.299,8.509,12.199,8.509z"/>
</g>
</svg>
