<?xml version="1.0" encoding="utf-8"?>
<!-- Generator: Adobe Illustrator 16.0.0, SVG Export Plug-In . SVG Version: 6.00 Build 0)  -->
<!DOCTYPE svg PUBLIC "-//W3C//DTD SVG 1.1//EN" "http://www.w3.org/Graphics/SVG/1.1/DTD/svg11.dtd">
<svg version="1.1" id="Layer_1" xmlns="http://www.w3.org/2000/svg" xmlns:xlink="http://www.w3.org/1999/xlink" x="0px" y="0px"
	 width="37.325px" height="29.499px" viewBox="0 0 37.325 29.499" enable-background="new 0 0 37.325 29.499" xml:space="preserve">
<g id="INSERT_40_">
	<g id="POLYLINE_63_">
		
			<rect x="1" y="5.653" fill="none" stroke="#D5D2CA" stroke-width="2" stroke-linecap="round" stroke-linejoin="round" stroke-miterlimit="10" width="35.325" height="22.846"/>
	</g>
	<g id="SPLINE_88_">
		<path fill="none" stroke="#D5D2CA" stroke-width="2" stroke-linecap="round" stroke-linejoin="round" stroke-miterlimit="10" d="
			M24.546,12.186c0.753,0.436,1.345,1.027,1.78,1.779c0.434,0.754,0.654,1.564,0.654,2.434c0,0.87-0.221,1.682-0.654,2.435
			c-0.436,0.754-1.027,1.348-1.78,1.784c-0.754,0.435-1.564,0.651-2.434,0.651c-0.873,0-1.685-0.217-2.436-0.651
			c-0.754-0.437-1.349-1.03-1.784-1.784c-0.437-0.753-0.651-1.564-0.651-2.435c0-0.869,0.215-1.68,0.651-2.434
			c0.436-0.752,1.03-1.344,1.784-1.779c0.751-0.437,1.562-0.653,2.436-0.653C22.981,11.532,23.792,11.749,24.546,12.186z"/>
	</g>
	<g id="SPLINE_87_">
		<path fill="none" stroke="#D5D2CA" stroke-width="2" stroke-linecap="round" stroke-linejoin="round" stroke-miterlimit="10" d="
			M26.187,9.339c1.26,0.729,2.255,1.725,2.984,2.985c0.726,1.26,1.09,2.62,1.09,4.074c0,1.459-0.364,2.813-1.09,4.078
			c-0.729,1.261-1.725,2.257-2.984,2.983c-1.261,0.729-2.622,1.094-4.074,1.094c-1.461,0-2.816-0.365-4.079-1.094
			c-1.262-0.727-2.253-1.723-2.982-2.983c-0.729-1.265-1.094-2.619-1.094-4.078c0-1.454,0.365-2.814,1.094-4.074
			c0.729-1.261,1.721-2.257,2.982-2.985c1.263-0.728,2.618-1.091,4.079-1.091C23.564,8.248,24.926,8.611,26.187,9.339z"/>
	</g>
	<g id="LINE_365_">
		
			<line fill="none" stroke="#D5D2CA" stroke-width="2" stroke-linecap="round" stroke-linejoin="round" stroke-miterlimit="10" x1="1" y1="13.201" x2="14.611" y2="13.201"/>
	</g>
	<g id="LINE_364_">
		
			<line fill="none" stroke="#D5D2CA" stroke-width="2" stroke-linecap="round" stroke-linejoin="round" stroke-miterlimit="10" x1="29.61" y1="13.201" x2="36.325" y2="13.201"/>
	</g>
	<g id="POLYLINE_62_">
		
			<rect x="4.427" y="1" fill="none" stroke="#D5D2CA" stroke-width="2" stroke-linecap="round" stroke-linejoin="round" stroke-miterlimit="10" width="4.652" height="4.653"/>
	</g>
	<g id="LINE_363_">
		
			<line fill="none" stroke="#D5D2CA" stroke-width="2" stroke-linecap="round" stroke-linejoin="round" stroke-miterlimit="10" x1="13.663" y1="5.653" x2="16.227" y2="1.215"/>
	</g>
	<g id="LINE_362_">
		
			<line fill="none" stroke="#D5D2CA" stroke-width="2" stroke-linecap="round" stroke-linejoin="round" stroke-miterlimit="10" x1="30.56" y1="5.653" x2="27.996" y2="1.215"/>
	</g>
	<g id="LINE_361_">
		
			<line fill="none" stroke="#D5D2CA" stroke-width="2" stroke-linecap="round" stroke-linejoin="round" stroke-miterlimit="10" x1="16.227" y1="1.215" x2="27.996" y2="1.215"/>
	</g>
	<g id="POLYLINE_61_">
		
			<rect x="4.153" y="13.201" fill="none" stroke="#D5D2CA" stroke-width="2" stroke-linecap="round" stroke-linejoin="round" stroke-miterlimit="10" width="5.683" height="3.281"/>
	</g>
	<g id="SPLINE_86_">
		<path fill="none" stroke="#D5D2CA" stroke-width="2" stroke-linecap="round" stroke-linejoin="round" stroke-miterlimit="10" d="
			M7.829,9.503c0,0.215-0.051,0.416-0.159,0.604c-0.107,0.187-0.256,0.334-0.439,0.441c-0.189,0.107-0.389,0.159-0.604,0.159
			c-0.216,0-0.418-0.052-0.604-0.159c-0.185-0.107-0.335-0.255-0.439-0.441c-0.11-0.188-0.161-0.389-0.161-0.604
			s0.051-0.416,0.161-0.602C5.688,8.716,5.838,8.567,6.022,8.46c0.187-0.107,0.389-0.161,0.604-0.161
			c0.215,0,0.414,0.054,0.604,0.161C7.414,8.567,7.562,8.716,7.67,8.901C7.778,9.087,7.829,9.288,7.829,9.503z"/>
	</g>
</g>
</svg>
