<?xml version="1.0" encoding="utf-8"?>
<!-- Generator: Adobe Illustrator 16.0.0, SVG Export Plug-In . SVG Version: 6.00 Build 0)  -->
<!DOCTYPE svg PUBLIC "-//W3C//DTD SVG 1.1//EN" "http://www.w3.org/Graphics/SVG/1.1/DTD/svg11.dtd">
<svg version="1.1" id="Layer_1" xmlns="http://www.w3.org/2000/svg" xmlns:xlink="http://www.w3.org/1999/xlink" x="0px" y="0px"
	 width="36.896px" height="29.499px" viewBox="0 0 36.896 29.499" enable-background="new 0 0 36.896 29.499" xml:space="preserve">
<g>
	<path fill="none" stroke="#D5D2CA" stroke-width="2" stroke-linecap="round" stroke-linejoin="round" stroke-miterlimit="10" d="
		M13.406,5.713C15.099,2.889,18.19,1,21.719,1c5.353,0,9.69,4.338,9.69,9.688c0,0.403-0.025,0.8-0.075,1.192
		c2.559,0.219,4.562,2.362,4.562,4.977c0,2.758-2.235,4.997-4.995,4.997c0,3.647-2.958,6.607-6.607,6.607
		c-1.916,0-3.644-0.817-4.853-2.121l0.006,0.002c-1.209,1.324-2.949,2.156-4.884,2.156c-3.649,0-6.607-2.96-6.607-6.607
		c0-0.15,0.006-0.298,0.016-0.443c-0.604,0.262-1.274,0.406-1.976,0.406C3.238,21.854,1,19.615,1,16.857
		c0-2.76,2.238-4.997,4.995-4.997c0.174,0,0.341,0.008,0.509,0.025v0.003c-0.09-0.385-0.14-0.788-0.14-1.2
		c0-2.918,2.366-5.282,5.284-5.282c0.616,0,1.209,0.105,1.761,0.301"/>
	<path fill="none" stroke="#D5D2CA" stroke-width="2" stroke-linecap="round" stroke-linejoin="round" stroke-miterlimit="10" d="
		M21.338,7.527c0.853-0.312,1.773-0.482,2.731-0.482c4.382,0,7.935,3.554,7.935,7.937c0,0.642-0.074,1.267-0.22,1.863"/>
	<path fill="none" stroke="#D5D2CA" stroke-width="2" stroke-linecap="round" stroke-linejoin="round" stroke-miterlimit="10" d="
		M23.291,24.246c-0.75,1.108-2.019,1.837-3.457,1.837c-1.591,0-2.974-0.891-3.675-2.202"/>
</g>
</svg>
