<?xml version="1.0" encoding="utf-8"?>
<!-- Generator: Adobe Illustrator 16.0.0, SVG Export Plug-In . SVG Version: 6.00 Build 0)  -->
<!DOCTYPE svg PUBLIC "-//W3C//DTD SVG 1.1//EN" "http://www.w3.org/Graphics/SVG/1.1/DTD/svg11.dtd">
<svg version="1.1" id="Layer_1" xmlns="http://www.w3.org/2000/svg" xmlns:xlink="http://www.w3.org/1999/xlink" x="0px" y="0px"
	 width="47.144px" height="29.499px" viewBox="0 0 47.144 29.499" enable-background="new 0 0 47.144 29.499" xml:space="preserve">
<g>
	<g id="SPLINE_89_">
		<path fill="none" stroke="#D5D2CA" stroke-width="2" stroke-linecap="round" stroke-linejoin="round" stroke-miterlimit="10" d="
			M35.686,16.511c-3,3.996-5.999,7.992-9.006,11.988c0.007-0.002,0.007-0.002,0.014-0.002c-3.727-3.328-7.46-6.656-11.189-9.986
			c0.385,0.354,0.564,0.51,0.529,0.48c-0.037-0.029-0.062-0.057-0.086-0.072c-0.024-0.021-0.047-0.043-0.072-0.061
			c-0.024-0.023-0.054-0.045-0.08-0.066c-0.023-0.023-0.079-0.07-0.167-0.15c-0.089-0.078-0.192-0.176-0.312-0.289
			c-0.121-0.115-0.257-0.244-0.396-0.391c-0.136-0.143-0.276-0.291-0.404-0.441c-0.146-0.152-0.268-0.309-0.397-0.463
			c-0.125-0.154-0.254-0.312-0.369-0.479c-0.117-0.166-0.238-0.33-0.355-0.494c-0.11-0.168-0.221-0.34-0.328-0.512
			c-0.104-0.176-0.201-0.354-0.309-0.531c-0.099-0.18-0.185-0.361-0.279-0.545c-0.088-0.184-0.176-0.373-0.262-0.561
			c-0.08-0.188-0.158-0.377-0.236-0.568c-0.072-0.197-0.143-0.391-0.205-0.59c-0.07-0.197-0.131-0.396-0.183-0.6
			c-0.06-0.199-0.114-0.404-0.162-0.613c-0.052-0.207-0.093-0.41-0.128-0.619c-0.038-0.215-0.065-0.396-0.083-0.559
			c-0.022-0.158-0.045-0.289-0.057-0.398c-0.011-0.107-0.019-0.197-0.026-0.266c-0.006-0.074-0.006-0.172-0.012-0.297
			c-0.012-0.125-0.016-0.26-0.012-0.4c0.007-0.143,0.014-0.279,0.023-0.418c0.008-0.143,0.021-0.277,0.045-0.418
			c0.016-0.137,0.04-0.271,0.072-0.404c0.027-0.135,0.059-0.27,0.1-0.402c0.029-0.131,0.066-0.262,0.113-0.391
			c0.043-0.129,0.088-0.258,0.142-0.383c0.047-0.125,0.108-0.248,0.162-0.368c0.058-0.124,0.121-0.247,0.181-0.362
			c0.07-0.119,0.139-0.232,0.209-0.348c0.066-0.111,0.143-0.225,0.22-0.336c0.083-0.109,0.164-0.213,0.247-0.32
			c0.082-0.102,0.174-0.203,0.26-0.305c0.092-0.098,0.187-0.191,0.283-0.291c0.094-0.088,0.193-0.186,0.297-0.27
			c0.099-0.089,0.204-0.174,0.308-0.256c0.11-0.085,0.218-0.162,0.333-0.24c0.107-0.074,0.229-0.148,0.344-0.215
			c0.117-0.071,0.23-0.141,0.355-0.199c0.121-0.062,0.248-0.121,0.373-0.18c0.127-0.057,0.25-0.104,0.377-0.153
			c0.133-0.05,0.262-0.091,0.396-0.136c0.132-0.035,0.267-0.073,0.403-0.103c0.146-0.036,0.28-0.065,0.426-0.089
			c0.131-0.023,0.275-0.041,0.42-0.059c0.145-0.014,0.288-0.025,0.426-0.032c0.146-0.007,0.285-0.007,0.432-0.005
			c0.141,0.002,0.277,0.006,0.418,0.021c0.139,0.013,0.279,0.026,0.414,0.046c0.139,0.021,0.271,0.044,0.405,0.075
			c0.134,0.024,0.27,0.058,0.405,0.091c0.128,0.037,0.26,0.074,0.389,0.119c0.129,0.042,0.258,0.092,0.378,0.144
			c0.132,0.046,0.251,0.104,0.374,0.162c0.123,0.056,0.236,0.118,0.361,0.185c0.113,0.062,0.232,0.129,0.34,0.207
			c0.119,0.066,0.227,0.144,0.338,0.218c0.109,0.079,0.221,0.161,0.323,0.245c0.102,0.086,0.204,0.17,0.3,0.264
			c0.1,0.09,0.195,0.186,0.291,0.275c0.096,0.102,0.189,0.199,0.272,0.3c0.09,0.101,0.173,0.205,0.253,0.315
			c0.087,0.101,0.164,0.217,0.237,0.324c0.081,0.113,0.155,0.225,0.218,0.34c0.07,0.12,0.141,0.236,0.203,0.363
			c0.062,0.117,0.121,0.242,0.174,0.365c0.057,0.127,0.105,0.254,0.158,0.385c0.046,0.129,0.091,0.264,0.131,0.395
			c0.041,0.133,0.079,0.27,0.106,0.408c0.034,0.135,0.056,0.248,0.071,0.336c0.016,0.086,0.029,0.146,0.032,0.184
			c0.003,0.033,0.015,0.07,0.018,0.105c0.003,0.037,0.007,0.068,0.017,0.105c0.004,0.029,0.008,0.066-0.003,0.107
			c-0.011,0.037,0,0.055,0.019,0.053c0.021-0.002,0.02-0.02,0.01-0.055c-0.018-0.039-0.021-0.076-0.025-0.105
			c0.004-0.037,0-0.068-0.003-0.107c-0.003-0.035,0-0.072-0.003-0.105c-0.004-0.037-0.002-0.092-0.011-0.162
			c0.001-0.07-0.002-0.168,0.003-0.293c0.002-0.121,0.011-0.252,0.021-0.389c0.014-0.145,0.031-0.281,0.045-0.418
			c0.021-0.139,0.045-0.275,0.077-0.406c0.021-0.135,0.05-0.269,0.089-0.402c0.039-0.131,0.079-0.26,0.123-0.391
			c0.037-0.127,0.09-0.257,0.137-0.381c0.054-0.126,0.104-0.248,0.168-0.371c0.054-0.123,0.11-0.245,0.18-0.361
			c0.063-0.119,0.132-0.23,0.208-0.346c0.067-0.113,0.144-0.227,0.22-0.338c0.076-0.108,0.162-0.211,0.245-0.318
			c0.088-0.104,0.171-0.203,0.266-0.306c0.086-0.099,0.181-0.191,0.276-0.29c0.098-0.09,0.189-0.185,0.298-0.271
			c0.103-0.09,0.202-0.172,0.312-0.256c0.105-0.086,0.216-0.161,0.327-0.238c0.113-0.076,0.224-0.149,0.343-0.215
			c0.117-0.072,0.231-0.142,0.357-0.199c0.119-0.062,0.241-0.122,0.367-0.181c0.127-0.057,0.253-0.103,0.387-0.153
			c0.128-0.051,0.263-0.092,0.394-0.135c0.128-0.035,0.27-0.076,0.406-0.104c0.134-0.036,0.271-0.065,0.414-0.086
			c0.144-0.027,0.279-0.045,0.425-0.061c0.144-0.014,0.288-0.025,0.426-0.033C31.326,1,31.464,1,31.61,1
			c0.141,0.001,0.278,0.007,0.42,0.021c0.138,0.012,0.276,0.025,0.419,0.045c0.132,0.022,0.271,0.045,0.406,0.074
			c0.135,0.024,0.271,0.061,0.398,0.094c0.133,0.034,0.261,0.074,0.39,0.119c0.126,0.043,0.256,0.091,0.385,0.141
			c0.119,0.049,0.244,0.105,0.366,0.164c0.121,0.055,0.245,0.117,0.359,0.186c0.124,0.062,0.231,0.129,0.35,0.205
			c0.114,0.066,0.227,0.145,0.333,0.219c0.113,0.078,0.215,0.16,0.316,0.245c0.112,0.085,0.209,0.169,0.311,0.263
			c0.097,0.092,0.195,0.187,0.292,0.273c0.09,0.104,0.18,0.203,0.27,0.303c0.09,0.101,0.172,0.205,0.255,0.314
			c0.087,0.1,0.161,0.217,0.238,0.324c0.076,0.112,0.146,0.227,0.218,0.342c0.067,0.117,0.131,0.234,0.194,0.362
			c0.064,0.116,0.125,0.24,0.182,0.364c0.049,0.128,0.105,0.254,0.153,0.385c0.043,0.13,0.092,0.262,0.13,0.396
			c0.041,0.134,0.079,0.269,0.112,0.405c0.027,0.138,0.053,0.259,0.07,0.367c0.021,0.098,0.033,0.189,0.042,0.262
			c0.014,0.07,0.019,0.131,0.023,0.186c0.006,0.055,0.014,0.127,0.021,0.215c0.01,0.094,0.014,0.211,0.029,0.354
			c0.01,0.143,0.018,0.318,0.025,0.533c0.007,0.217,0.007,0.428-0.004,0.641c0,0.215-0.014,0.424-0.023,0.633
			c-0.014,0.209-0.031,0.418-0.062,0.627c-0.023,0.207-0.052,0.414-0.084,0.621c-0.028,0.205-0.071,0.439-0.133,0.711
			c-0.061,0.27-0.128,0.533-0.201,0.797c-0.071,0.268-0.155,0.523-0.248,0.781c-0.092,0.258-0.182,0.512-0.288,0.762
			c-0.107,0.252-0.221,0.496-0.337,0.738c-0.12,0.244-0.241,0.484-0.38,0.719c-0.127,0.234-0.272,0.463-0.419,0.689
			c-0.145,0.227-0.299,0.447-0.457,0.666c-0.15,0.203-0.304,0.4-0.467,0.594"/>
	</g>
	
		<line fill="none" stroke="#D5D2CA" stroke-width="2" stroke-linecap="round" stroke-linejoin="round" stroke-miterlimit="10" x1="13.748" y1="16.579" x2="1" y2="17.843"/>
	
		<line fill="none" stroke="#D5D2CA" stroke-width="2" stroke-linecap="round" stroke-linejoin="round" stroke-miterlimit="10" x1="46.144" y1="13.366" x2="29.783" y2="14.987"/>
	
		<polyline fill="none" stroke="#D5D2CA" stroke-width="2" stroke-linecap="round" stroke-linejoin="round" stroke-miterlimit="10" points="
		42.519,10.351 46.141,13.321 43.173,16.942 	"/>
	
		<polyline fill="none" stroke="#D5D2CA" stroke-width="2" stroke-linecap="round" stroke-linejoin="round" stroke-miterlimit="10" points="
		1.376,14.433 5.001,17.399 2.029,21.024 	"/>
	
		<polyline fill="none" stroke="#D5D2CA" stroke-width="2" stroke-linecap="round" stroke-linejoin="round" stroke-miterlimit="10" points="
		5.395,14.034 9.016,17.003 6.049,20.626 	"/>
</g>
</svg>
