<?xml version="1.0" encoding="utf-8"?>
<!-- Generator: Adobe Illustrator 16.0.0, SVG Export Plug-In . SVG Version: 6.00 Build 0)  -->
<!DOCTYPE svg PUBLIC "-//W3C//DTD SVG 1.1//EN" "http://www.w3.org/Graphics/SVG/1.1/DTD/svg11.dtd">
<svg version="1.1" id="Layer_1" xmlns="http://www.w3.org/2000/svg" xmlns:xlink="http://www.w3.org/1999/xlink" x="0px" y="0px"
	 width="39.488px" height="29.499px" viewBox="0 0 39.488 29.499" enable-background="new 0 0 39.488 29.499" xml:space="preserve">
<g id="INSERT_39_">
	<g id="SPLINE_84_">
		<path fill="none" stroke="#D5D2CA" stroke-width="2" stroke-linecap="round" stroke-linejoin="round" stroke-miterlimit="10" d="
			M14.576,1.236c0.59-0.215,1.196-0.284,1.816-0.204c0.625,0.08,1.191,0.303,1.708,0.659c0.514,0.362,0.916,0.821,1.207,1.375
			c0.294,0.557,0.436,1.15,0.436,1.777"/>
	</g>
	<g id="LINE_360_">
		
			<line fill="none" stroke="#D5D2CA" stroke-width="2" stroke-linecap="round" stroke-linejoin="round" stroke-miterlimit="10" x1="19.743" y1="4.844" x2="19.743" y2="25.154"/>
	</g>
	<g id="LINE_359_">
		
			<line fill="none" stroke="#D5D2CA" stroke-width="2" stroke-linecap="round" stroke-linejoin="round" stroke-miterlimit="10" x1="3.626" y1="5.266" x2="14.576" y2="1.236"/>
	</g>
	<g id="LINE_358_">
		
			<line fill="none" stroke="#D5D2CA" stroke-width="2" stroke-linecap="round" stroke-linejoin="round" stroke-miterlimit="10" x1="3.626" y1="5.266" x2="3.626" y2="25.154"/>
	</g>
	<g id="LINE_357_">
		
			<line fill="none" stroke="#D5D2CA" stroke-width="2" stroke-linecap="round" stroke-linejoin="round" stroke-miterlimit="10" x1="19.743" y1="25.154" x2="3.626" y2="25.154"/>
	</g>
	<g id="SPLINE_83_">
		<path fill="none" stroke="#D5D2CA" stroke-width="2" stroke-linecap="round" stroke-linejoin="round" stroke-miterlimit="10" d="
			M14.576,19.328c0.59-0.217,1.196-0.284,1.816-0.206c0.625,0.082,1.191,0.301,1.708,0.661c0.514,0.358,0.916,0.815,1.207,1.375
			c0.294,0.555,0.436,1.146,0.436,1.774"/>
	</g>
	<g id="LINE_356_">
		
			<line fill="none" stroke="#D5D2CA" stroke-width="2" stroke-linecap="round" stroke-linejoin="round" stroke-miterlimit="10" x1="3.626" y1="23.354" x2="14.576" y2="19.328"/>
	</g>
	<g id="POLYLINE_60_">
		
			<polyline fill="none" stroke="#D5D2CA" stroke-width="2" stroke-linecap="round" stroke-linejoin="round" stroke-miterlimit="10" points="
			3.626,8.8 1,8.8 1,27.882 16.552,27.882 16.552,25.154 		"/>
	</g>
	<g id="LINE_355_">
		
			<line fill="none" stroke="#D5D2CA" stroke-width="2" stroke-linecap="round" stroke-linejoin="round" stroke-miterlimit="10" x1="5.645" y1="8.315" x2="14.145" y2="5.189"/>
	</g>
	<g id="LINE_354_">
		
			<line fill="none" stroke="#D5D2CA" stroke-width="2" stroke-linecap="round" stroke-linejoin="round" stroke-miterlimit="10" x1="5.645" y1="12.565" x2="14.145" y2="9.438"/>
	</g>
	<g id="LINE_353_">
		
			<line fill="none" stroke="#D5D2CA" stroke-width="2" stroke-linecap="round" stroke-linejoin="round" stroke-miterlimit="10" x1="5.645" y1="16.812" x2="14.145" y2="13.686"/>
	</g>
	<g id="SPLINE_82_">
		<path fill="none" stroke="#D5D2CA" stroke-width="2" stroke-linecap="round" stroke-linejoin="round" stroke-miterlimit="10" d="
			M19.743,4.844c0-0.627,0.146-1.221,0.438-1.777c0.291-0.554,0.691-1.013,1.209-1.375c0.511-0.356,1.083-0.579,1.705-0.659
			c0.621-0.08,1.229-0.011,1.817,0.204"/>
	</g>
	<g id="LINE_344_">
		
			<line fill="none" stroke="#D5D2CA" stroke-width="2" stroke-linecap="round" stroke-linejoin="round" stroke-miterlimit="10" x1="19.743" y1="4.844" x2="19.743" y2="25.154"/>
	</g>
	<g id="LINE_343_">
		
			<line fill="none" stroke="#D5D2CA" stroke-width="2" stroke-linecap="round" stroke-linejoin="round" stroke-miterlimit="10" x1="35.86" y1="5.266" x2="24.912" y2="1.236"/>
	</g>
	<g id="LINE_342_">
		
			<line fill="none" stroke="#D5D2CA" stroke-width="2" stroke-linecap="round" stroke-linejoin="round" stroke-miterlimit="10" x1="35.86" y1="5.266" x2="35.86" y2="25.154"/>
	</g>
	<g id="LINE_341_">
		
			<line fill="none" stroke="#D5D2CA" stroke-width="2" stroke-linecap="round" stroke-linejoin="round" stroke-miterlimit="10" x1="19.743" y1="25.154" x2="35.86" y2="25.154"/>
	</g>
	<g id="SPLINE_81_">
		<path fill="none" stroke="#D5D2CA" stroke-width="2" stroke-linecap="round" stroke-linejoin="round" stroke-miterlimit="10" d="
			M19.743,22.933c0-0.628,0.146-1.22,0.438-1.774c0.291-0.56,0.691-1.017,1.209-1.375c0.511-0.36,1.083-0.579,1.705-0.661
			c0.621-0.078,1.229-0.011,1.817,0.206"/>
	</g>
	<g id="LINE_340_">
		
			<line fill="none" stroke="#D5D2CA" stroke-width="2" stroke-linecap="round" stroke-linejoin="round" stroke-miterlimit="10" x1="35.86" y1="23.354" x2="24.912" y2="19.328"/>
	</g>
	<g id="POLYLINE_59_">
		
			<polyline fill="none" stroke="#D5D2CA" stroke-width="2" stroke-linecap="round" stroke-linejoin="round" stroke-miterlimit="10" points="
			35.86,8.8 38.488,8.8 38.488,27.882 22.938,27.882 22.938,25.154 		"/>
	</g>
	<g id="LINE_339_">
		
			<line fill="none" stroke="#D5D2CA" stroke-width="2" stroke-linecap="round" stroke-linejoin="round" stroke-miterlimit="10" x1="33.844" y1="8.315" x2="25.346" y2="5.189"/>
	</g>
	<g id="LINE_338_">
		
			<line fill="none" stroke="#D5D2CA" stroke-width="2" stroke-linecap="round" stroke-linejoin="round" stroke-miterlimit="10" x1="33.844" y1="12.565" x2="25.346" y2="9.438"/>
	</g>
	<g id="LINE_337_">
		
			<line fill="none" stroke="#D5D2CA" stroke-width="2" stroke-linecap="round" stroke-linejoin="round" stroke-miterlimit="10" x1="33.844" y1="16.812" x2="25.346" y2="13.686"/>
	</g>
	<g id="SPLINE_80_">
		<path fill="none" stroke="#D5D2CA" stroke-width="2" stroke-linecap="round" stroke-linejoin="round" stroke-miterlimit="10" d="
			M22.938,27.882c-2.128,0.823-4.259,0.823-6.387,0"/>
	</g>
</g>
</svg>
