<?xml version="1.0" encoding="utf-8"?>
<!-- Generator: Adobe Illustrator 16.0.0, SVG Export Plug-In . SVG Version: 6.00 Build 0)  -->
<!DOCTYPE svg PUBLIC "-//W3C//DTD SVG 1.1//EN" "http://www.w3.org/Graphics/SVG/1.1/DTD/svg11.dtd">
<svg version="1.1" id="Layer_1" xmlns="http://www.w3.org/2000/svg" xmlns:xlink="http://www.w3.org/1999/xlink" x="0px" y="0px"
	 width="183.122px" height="156.437px" viewBox="0 0 183.122 156.437" enable-background="new 0 0 183.122 156.437"
	 xml:space="preserve">
<path fill="#FFFFFF" stroke="#D5D2CA" stroke-width="2" stroke-linecap="round" stroke-linejoin="round" stroke-miterlimit="10" d="
	M169.532,71.888c2.272-4.123,3.564-8.861,3.564-13.901c0-15.699-12.538-28.469-28.144-28.843C144.576,13.536,131.807,1,116.11,1
	c-11.651,0-21.688,6.904-26.245,16.843l0.005,0.002c-3.729-6.219-10.536-10.38-18.314-10.38c-9.531,0-17.604,6.247-20.345,14.869
	l0.006,0.003c-4.039-1.499-8.407-2.318-12.968-2.318C17.676,20.019,1,36.695,1,57.269c0,7.957,2.495,15.332,6.748,21.385
	l-0.004-0.004C3.593,82.543,1,88.078,1,94.22c0,11.688,9.397,21.184,21.05,21.342c-1.524,2.938-2.386,6.275-2.386,9.814
	c0,11.787,9.555,21.344,21.344,21.344c5.389,0,10.311-1.998,14.069-5.295l-0.006-0.004c3.767,6.055,10.481,10.084,18.137,10.084
	c6.875,0,12.992-3.251,16.896-8.301c5.814,7.444,14.876,12.232,25.057,12.232c14.622,0,26.938-9.877,30.638-23.323l0.003,0.005
	c2.729,1.268,5.773,1.975,8.982,1.975c11.787,0,21.344-9.556,21.344-21.342c0-3.984-1.092-7.713-2.99-10.902l0.001,0.004
	c5.32-2.602,8.984-8.066,8.984-14.388c0-7.737-5.489-14.193-12.784-15.686"/>
<g>
	<title>Layer 1</title>
	<g id="layer1">
	</g>
	<g id="layer4">
		
			<path id="path14357" fill="none" stroke="#D5D2CA" stroke-width="2" stroke-linecap="round" stroke-linejoin="round" stroke-miterlimit="10" d="
			M93.85,109.079c1.811,1.547,3.39,0.286,4.202-1.762C97.061,107.99,95.092,108.999,93.85,109.079z"/>
		<path fill="none" stroke="#D5D2CA" stroke-width="2" stroke-linecap="round" stroke-linejoin="round" stroke-miterlimit="10" d="
			M130.136,60.37l4.241-1.231c0,0,12.765,5.706,12.662,6.886c-0.734,1.551-4.129,3.778-7.006,4.363
			c-3.596-0.335-13.832-3.965-18.443-5.224"/>
		<path fill="none" stroke="#D5D2CA" stroke-width="2" stroke-linecap="round" stroke-linejoin="round" stroke-miterlimit="10" d="
			M84.462,71.702l7.746,0.347l14.998-5.902c0,0,9.47-5.967,11.679-7.745c1.187-1.658,8.054-18.194,8.054-18.194
			c2.747-2.355,5.062-2.561,7.684-3.196l-3.866,23.178"/>
		
			<path id="path12338" fill="none" stroke="#D5D2CA" stroke-width="2" stroke-linecap="round" stroke-linejoin="round" stroke-miterlimit="10" d="
			M124.111,66.024l-17.09,16.043"/>
		
			<path id="path12340" fill="none" stroke="#D5D2CA" stroke-width="2" stroke-linecap="round" stroke-linejoin="round" stroke-miterlimit="10" d="
			M84.462,71.702l67.259,31.326c0,0-8.232,6.588-12.795,6.763c-0.737,0.028-34.916-11.311-34.916-11.311
			S79.604,87.392,77.515,86.493"/>
		
			<path id="path12344" fill="none" stroke="#D5D2CA" stroke-width="2" stroke-linecap="round" stroke-linejoin="round" stroke-miterlimit="10" d="
			M86.953,98.304c-7.268,5.225-14.918,8.844-23.76,10.698c-1.685,0.05-3.197,0.313-4.795-0.071
			c-1.939-0.516-3.381-1.271-5.062-2.437"/>
		
			<path id="path12346" fill="none" stroke="#D5D2CA" stroke-width="2" stroke-linecap="round" stroke-linejoin="round" stroke-miterlimit="10" d="
			M51.06,103.438c-0.944-1.422-1.325-3.888-0.098-5.57c2.992-3.346,5.983-5.914,10.019-8.607c0.928-3.346,1.595-5.733,3.564-8.729
			L41.889,70.436L18.096,56.827c0,0-2.133-1.048-1.303-3.125c1.333-3.334,9.923-5.209,9.923-5.209
			c19.424,7.12,37.976,14.5,57.746,23.186"/>
		
			<path id="path12348" fill="none" stroke="#D5D2CA" stroke-width="2" stroke-linecap="round" stroke-linejoin="round" stroke-miterlimit="10" d="
			M113.645,61.802l-6.366-4.282c-0.793-0.538-1.645-0.778-1.742-1.838c2.745-2.702,4.797-2.709,7.714-3.499l7.314,2.32"/>
		
			<path id="path12352" fill="none" stroke="#D5D2CA" stroke-width="2" stroke-linecap="round" stroke-linejoin="round" stroke-miterlimit="10" d="
			M49.957,74.201l11.112,14.252"/>
		
			<path id="path12354" fill="none" stroke="#D5D2CA" stroke-width="2" stroke-linecap="round" stroke-linejoin="round" stroke-miterlimit="10" d="
			M96.758,95.345l-15.368,5.595"/>
		
			<path id="path1893" fill="none" stroke="#D5D2CA" stroke-width="2" stroke-linecap="round" stroke-linejoin="round" stroke-miterlimit="10" d="
			M121.59,65.103c0.123-1.599,8.546-4.733,8.546-4.733"/>
		
			<path id="path4581" fill="none" stroke="#D5D2CA" stroke-width="2" stroke-linecap="round" stroke-linejoin="round" stroke-miterlimit="10" d="
			M50.36,98.964c4.637-2.189,15.55,7.963,7.96,9.994"/>
		
			<path id="path1903" fill="none" stroke="#D5D2CA" stroke-width="2" stroke-linecap="round" stroke-linejoin="round" stroke-miterlimit="10" d="
			M66.575,78.562l11.346,5.188"/>
		
			<path id="path1907" fill="none" stroke="#D5D2CA" stroke-width="2" stroke-linecap="round" stroke-linejoin="round" stroke-miterlimit="10" d="
			M60.985,89.151c4.455-0.59,10.126,3.646,11.83,4.616c1.944,0.171,3.805,0.35,6.019-1.003c0.146-2.068,0.119-2.065,0.182-5.575"/>
		
			<path id="path1923" fill="none" stroke="#D5D2CA" stroke-width="2" stroke-linecap="round" stroke-linejoin="round" stroke-miterlimit="10" d="
			M93.729,102.923c-1.567,0.736-3.013,5.164-1.247,6.084c2.044,0.436,6.675-1.916,8.162-4.01c1.244-1.753,1.476-3.981,0-4.025
			c-1.568,0.459-3.168,0.885-4.564,0.859C95.168,101.814,94.497,102.413,93.729,102.923z"/>
		
			<path id="path1927" fill="none" stroke="#D5D2CA" stroke-width="2" stroke-linecap="round" stroke-linejoin="round" stroke-miterlimit="10" d="
			M93.185,93.743c-0.708,1.007-2.225,1.629-2.834,2.338c0.367,0.859,0.612,1.258,0.612,1.258"/>
		
			<path id="path2828" fill="none" stroke="#D5D2CA" stroke-width="2" stroke-linecap="round" stroke-linejoin="round" stroke-miterlimit="10" d="
			M88.681,98.649c0.123,0.198,4.117,5.107,4.117,5.107"/>
		
			<path id="path2830" fill="none" stroke="#D5D2CA" stroke-width="2" stroke-linecap="round" stroke-linejoin="round" stroke-miterlimit="10" d="
			M91.035,97.339c0.136,0.355,3.175,5.201,3.175,5.201"/>
		
			<path id="path5491" fill="none" stroke="#D5D2CA" stroke-width="2" stroke-linecap="round" stroke-linejoin="round" stroke-miterlimit="10" d="
			M86.005,99.251c1.155-1.363,2.033-1.775,2.676-0.938"/>
		
			<path id="path5493" fill="none" stroke="#D5D2CA" stroke-width="2" stroke-linecap="round" stroke-linejoin="round" stroke-miterlimit="10" d="
			M50.297,106.062c2.045,0.434,5.062,0.811,6.096-0.428c1.163-1.389-1.066-4.676-2.541-4.721
			C52.485,101.216,50.422,103.861,50.297,106.062z"/>
		
			<path id="path11698" fill="none" stroke="#D5D2CA" stroke-width="2" stroke-linecap="round" stroke-linejoin="round" stroke-miterlimit="10" d="
			M66.573,78.534c-2.388,1.432-4.466,6.004-5.562,10.633c4.784-0.553,9.876,3.658,11.771,4.611c2.768,0.471,4.457-0.134,5.993-0.982
			l0.247-5.533l-1.26-0.678c-0.452-0.194-0.504-0.543-0.523-1.043c0,0,0.184-0.77,0.399-1.168c0.125-0.232,0.308-0.616,0.308-0.616
			L66.573,78.534z"/>
		
			<ellipse transform="matrix(0.476 0.8795 -0.8795 0.476 119.885 6.4154)" fill="none" stroke="#D5D2CA" stroke-width="2" stroke-linecap="round" stroke-linejoin="round" stroke-miterlimit="10" cx="54.559" cy="103.808" rx="16.261" ry="13.174"/>
	</g>
</g>
</svg>
