<?xml version="1.0" encoding="utf-8"?>
<!-- Generator: Adobe Illustrator 16.0.0, SVG Export Plug-In . SVG Version: 6.00 Build 0)  -->
<!DOCTYPE svg PUBLIC "-//W3C//DTD SVG 1.1//EN" "http://www.w3.org/Graphics/SVG/1.1/DTD/svg11.dtd">
<svg version="1.1" id="Layer_1" xmlns="http://www.w3.org/2000/svg" xmlns:xlink="http://www.w3.org/1999/xlink" x="0px" y="0px"
	 width="183.122px" height="156.437px" viewBox="0 0 183.122 156.437" enable-background="new 0 0 183.122 156.437"
	 xml:space="preserve">
<path fill="#FFFFFF" stroke="#D5D2CA" stroke-width="2" stroke-linecap="round" stroke-linejoin="round" stroke-miterlimit="10" d="
	M169.532,71.888c2.272-4.123,3.564-8.861,3.564-13.901c0-15.699-12.538-28.469-28.144-28.843C144.576,13.536,131.807,1,116.11,1
	c-11.651,0-21.688,6.904-26.245,16.843l0.005,0.002c-3.729-6.219-10.536-10.38-18.314-10.38c-9.531,0-17.604,6.247-20.345,14.869
	l0.006,0.003c-4.039-1.499-8.407-2.318-12.968-2.318C17.676,20.019,1,36.695,1,57.269c0,7.957,2.495,15.332,6.748,21.385
	l-0.004-0.004C3.593,82.543,1,88.078,1,94.22c0,11.688,9.397,21.184,21.05,21.342c-1.524,2.938-2.386,6.275-2.386,9.814
	c0,11.787,9.555,21.344,21.344,21.344c5.389,0,10.311-1.998,14.069-5.295l-0.006-0.004c3.767,6.055,10.481,10.084,18.137,10.084
	c6.875,0,12.992-3.251,16.896-8.301c5.814,7.444,14.876,12.232,25.057,12.232c14.622,0,26.938-9.877,30.638-23.323l0.003,0.005
	c2.729,1.268,5.773,1.975,8.982,1.975c11.787,0,21.344-9.556,21.344-21.342c0-3.984-1.092-7.713-2.99-10.902l0.001,0.004
	c5.32-2.602,8.984-8.066,8.984-14.388c0-7.737-5.489-14.193-12.784-15.686"/>
<rect x="33.977" y="38.284" fill="none" width="112.333" height="92.222"/>
<text transform="matrix(1 0 0 1 56.376 50.1562)"><tspan x="0" y="0" fill="#D5D2CA" font-family="'Montserrat-Regular'" font-size="16">VER LAS</tspan><tspan x="-0.896" y="15.601" fill="#D5D2CA" font-family="'Montserrat-Regular'" font-size="13">LÍNEAS DE</tspan><tspan x="-2.542" y="33.601" fill="#D5D2CA" font-family="'Montserrat-Regular'" font-size="20">NAZCA</tspan><tspan x="-1.989" y="47.601" fill="#D5D2CA" font-family="'Montserrat-Regular'" font-size="14.5">DESDE EL</tspan><tspan x="-1.307" y="72.601" fill="#D5D2CA" font-family="'Montserrat-Regular'" font-size="29">AIRE</tspan></text>
</svg>
