<?xml version="1.0" encoding="utf-8"?>
<!-- Generator: Adobe Illustrator 16.0.0, SVG Export Plug-In . SVG Version: 6.00 Build 0)  -->
<!DOCTYPE svg PUBLIC "-//W3C//DTD SVG 1.1//EN" "http://www.w3.org/Graphics/SVG/1.1/DTD/svg11.dtd">
<svg version="1.1" id="Layer_1" xmlns="http://www.w3.org/2000/svg" xmlns:xlink="http://www.w3.org/1999/xlink" x="0px" y="0px"
	 width="159.759px" height="129.28px" viewBox="0 0 159.759 129.28" enable-background="new 0 0 159.759 129.28"
	 xml:space="preserve">
<path fill="#FFFFFF" stroke="#D5D2CA" stroke-width="2" stroke-linecap="round" stroke-linejoin="round" stroke-miterlimit="10" d="
	M130.104,92.998c16.235-2.55,28.655-16.603,28.655-33.555c0-18.76-15.209-33.968-33.969-33.968c-1.333,0-2.65,0.078-3.944,0.228
	l0.005,0C116.154,11.36,102.66,1,86.749,1C75.964,1,66.291,5.758,59.716,13.291l0.001-0.002c-3.937-2.407-8.562-3.794-13.515-3.794
	c-14.322,0-25.934,11.611-25.934,25.933c0,0.577,0.02,1.15,0.056,1.717h0.009C9.555,37.744,1,46.673,1,57.601
	c0,6.402,2.935,12.117,7.533,15.875L8.53,73.475c-2.902,4.496-4.585,9.852-4.585,15.601c0,15.912,12.898,28.811,28.809,28.811
	c5.443,0,10.534-1.51,14.877-4.135l-0.002,0.001c3.188,8.487,11.382,14.528,20.982,14.528c8.241,0,15.442-4.448,19.335-11.076
	l0.001,0.006c4.382,6.473,11.792,10.729,20.195,10.729c13.458,0,24.369-10.912,24.369-24.37c0-3.791-0.866-7.381-2.412-10.581"/>
<rect x="18.931" y="48.041" fill="none" width="112.333" height="68.999"/>
<text transform="matrix(1 0 0 1 27.228 63.6221)"><tspan x="0" y="0" fill="#D5D2CA" font-family="'Montserrat-Regular'" font-size="21">CÁMARA</tspan><tspan x="-0.438" y="18.001" fill="#D5D2CA" font-family="'Montserrat-Regular'" font-size="19">DE FOTOS</tspan></text>
</svg>
