<?xml version="1.0" encoding="utf-8"?>
<!-- Generator: Adobe Illustrator 16.0.0, SVG Export Plug-In . SVG Version: 6.00 Build 0)  -->
<!DOCTYPE svg PUBLIC "-//W3C//DTD SVG 1.1//EN" "http://www.w3.org/Graphics/SVG/1.1/DTD/svg11.dtd">
<svg version="1.1" id="Layer_1" xmlns="http://www.w3.org/2000/svg" xmlns:xlink="http://www.w3.org/1999/xlink" x="0px" y="0px"
	 width="159.759px" height="129.28px" viewBox="0 0 159.759 129.28" enable-background="new 0 0 159.759 129.28"
	 xml:space="preserve">
<path fill="#FFFFFF" stroke="#D5D2CA" stroke-width="2" stroke-linecap="round" stroke-linejoin="round" stroke-miterlimit="10" d="
	M130.104,92.998c16.235-2.55,28.655-16.603,28.655-33.555c0-18.76-15.209-33.968-33.969-33.968c-1.333,0-2.65,0.078-3.944,0.228
	l0.005,0C116.154,11.36,102.66,1,86.749,1C75.964,1,66.291,5.758,59.716,13.291l0.001-0.002c-3.937-2.407-8.562-3.794-13.515-3.794
	c-14.322,0-25.934,11.611-25.934,25.933c0,0.577,0.02,1.15,0.056,1.717h0.009C9.555,37.744,1,46.673,1,57.601
	c0,6.402,2.935,12.117,7.533,15.875L8.53,73.475c-2.902,4.496-4.585,9.852-4.585,15.601c0,15.912,12.898,28.811,28.809,28.811
	c5.443,0,10.534-1.51,14.877-4.135l-0.002,0.001c3.188,8.487,11.382,14.528,20.982,14.528c8.241,0,15.442-4.448,19.335-11.076
	l0.001,0.006c4.382,6.473,11.792,10.729,20.195,10.729c13.458,0,24.369-10.912,24.369-24.37c0-3.791-0.866-7.381-2.412-10.581"/>
<g id="INSERT_39_">
	<g id="POLYLINE_30_">
		
			<rect x="37.51" y="45.697" fill="none" stroke="#D5D2CA" stroke-width="2" stroke-linecap="round" stroke-linejoin="round" stroke-miterlimit="10" width="74.885" height="48.429"/>
	</g>
	<g id="SPLINE_54_">
		<path fill="none" stroke="#D5D2CA" stroke-width="2" stroke-linecap="round" stroke-linejoin="round" stroke-miterlimit="10" d="
			M87.422,59.542c1.597,0.922,2.851,2.177,3.773,3.772c0.923,1.6,1.388,3.32,1.388,5.163c0,1.844-0.465,3.563-1.388,5.159
			s-2.177,2.858-3.773,3.781c-1.595,0.917-3.315,1.378-5.16,1.378s-3.565-0.461-5.161-1.378c-1.596-0.923-2.859-2.186-3.781-3.781
			s-1.379-3.315-1.379-5.159c0-1.843,0.457-3.563,1.379-5.163c0.922-1.596,2.186-2.851,3.781-3.772
			c1.596-0.922,3.316-1.383,5.161-1.383S85.827,58.62,87.422,59.542z"/>
	</g>
	<g id="SPLINE_53_">
		<path fill="none" stroke="#D5D2CA" stroke-width="2" stroke-linecap="round" stroke-linejoin="round" stroke-miterlimit="10" d="
			M90.904,53.51c2.667,1.545,4.777,3.656,6.324,6.327c1.538,2.671,2.31,5.556,2.31,8.641c0,3.09-0.771,5.966-2.31,8.643
			c-1.547,2.674-3.657,4.782-6.324,6.323c-2.676,1.545-5.56,2.318-8.643,2.318c-3.091,0-5.967-0.773-8.644-2.318
			c-2.676-1.541-4.777-3.649-6.323-6.323c-1.546-2.677-2.319-5.553-2.319-8.643c0-3.084,0.773-5.969,2.319-8.641
			c1.546-2.671,3.647-4.782,6.323-6.327c2.677-1.542,5.553-2.311,8.644-2.311C85.345,51.199,88.229,51.968,90.904,53.51z"/>
	</g>
	<g id="LINE_174_">
		
			<line fill="none" stroke="#D5D2CA" stroke-width="2" stroke-linecap="round" stroke-linejoin="round" stroke-miterlimit="10" x1="37.51" y1="61.699" x2="66.363" y2="61.699"/>
	</g>
	<g id="LINE_173_">
		
			<line fill="none" stroke="#D5D2CA" stroke-width="2" stroke-linecap="round" stroke-linejoin="round" stroke-miterlimit="10" x1="98.159" y1="61.699" x2="112.395" y2="61.699"/>
	</g>
	<g id="POLYLINE_29_">
		
			<rect x="44.774" y="35.834" fill="none" stroke="#D5D2CA" stroke-width="2" stroke-linecap="round" stroke-linejoin="round" stroke-miterlimit="10" width="9.864" height="9.863"/>
	</g>
	<g id="LINE_170_">
		
			<line fill="none" stroke="#D5D2CA" stroke-width="2" stroke-linecap="round" stroke-linejoin="round" stroke-miterlimit="10" x1="64.353" y1="45.697" x2="69.788" y2="36.291"/>
	</g>
	<g id="LINE_169_">
		
			<line fill="none" stroke="#D5D2CA" stroke-width="2" stroke-linecap="round" stroke-linejoin="round" stroke-miterlimit="10" x1="100.169" y1="45.697" x2="94.735" y2="36.291"/>
	</g>
	<g id="LINE_168_">
		
			<line fill="none" stroke="#D5D2CA" stroke-width="2" stroke-linecap="round" stroke-linejoin="round" stroke-miterlimit="10" x1="69.788" y1="36.291" x2="94.735" y2="36.291"/>
	</g>
	<g id="POLYLINE_28_">
		
			<rect x="44.192" y="61.699" fill="none" stroke="#D5D2CA" stroke-width="2" stroke-linecap="round" stroke-linejoin="round" stroke-miterlimit="10" width="12.05" height="6.957"/>
	</g>
	<g id="SPLINE_52_">
		<path fill="none" stroke="#D5D2CA" stroke-width="2" stroke-linecap="round" stroke-linejoin="round" stroke-miterlimit="10" d="
			M51.987,53.858c0,0.458-0.107,0.88-0.341,1.279c-0.224,0.395-0.54,0.708-0.931,0.935c-0.399,0.229-0.823,0.341-1.279,0.341
			c-0.457,0-0.881-0.112-1.28-0.341c-0.391-0.227-0.705-0.54-0.931-0.935c-0.232-0.399-0.341-0.821-0.341-1.279
			s0.108-0.88,0.341-1.275c0.226-0.394,0.54-0.708,0.931-0.935c0.399-0.229,0.823-0.341,1.28-0.341c0.456,0,0.88,0.112,1.279,0.341
			c0.391,0.227,0.707,0.541,0.931,0.935C51.88,52.978,51.987,53.4,51.987,53.858z"/>
	</g>
</g>
</svg>
