<?xml version="1.0" encoding="utf-8"?>
<!-- Generator: Adobe Illustrator 16.0.0, SVG Export Plug-In . SVG Version: 6.00 Build 0)  -->
<!DOCTYPE svg PUBLIC "-//W3C//DTD SVG 1.1//EN" "http://www.w3.org/Graphics/SVG/1.1/DTD/svg11.dtd">
<svg version="1.1" id="Layer_1" xmlns="http://www.w3.org/2000/svg" xmlns:xlink="http://www.w3.org/1999/xlink" x="0px" y="0px"
	 width="178.704px" height="134.092px" viewBox="0 0 178.704 134.092" enable-background="new 0 0 178.704 134.092"
	 xml:space="preserve">
<path fill="#FFFFFF" stroke="#D5D2CA" stroke-width="2" stroke-linecap="round" stroke-linejoin="round" stroke-miterlimit="10" d="
	M148.339,45.092c0.64-2.675,0.979-5.467,0.979-8.338C149.317,17.007,133.312,1,113.565,1C99.3,1,86.986,9.355,81.25,21.439
	l-0.003-0.007c-0.208-0.227-0.422-0.45-0.642-0.668c-4.067-4.069-9.688-6.587-15.899-6.587c-12.169,0-22.08,9.663-22.478,21.736
	l0.004-0.001c-3.245-1.272-6.778-1.971-10.474-1.971c-15.861,0-28.72,12.859-28.72,28.72c0,4.471,1.021,8.7,2.841,12.471
	L5.878,75.13C2.782,80.238,1,86.231,1,92.64c0,18.68,15.145,33.823,33.823,33.823c8.379,0,16.046-3.047,21.955-8.094l0.002,0.005
	c6.164,8.294,16.037,13.667,27.164,13.667c12.389,0,23.223-6.66,29.114-16.594l-0.003,0.004
	c4.544,10.385,14.911,17.641,26.973,17.641c16.255,0,29.432-13.177,29.432-29.431c0-4.894-1.192-9.507-3.305-13.567l-0.009,0.004
	c6.943-4.366,11.558-12.097,11.558-20.903c0-13.627-11.047-24.673-24.674-24.673c-1.704,0-3.367,0.171-4.974,0.501"/>
<g>
	<path fill="none" stroke="#D5D2CA" stroke-width="2" stroke-linecap="round" stroke-linejoin="round" stroke-miterlimit="10" d="
		M148.172,70.396c-1.739-0.151-3.009-1.247-4.151-2.35c-2.204-2.127-4.354-4.309-6.403-6.599
		c-4.89-5.465-11.001-8.896-18.235-10.232c-2.31-0.426-4.644-0.713-6.961-1.099c-3.814-0.633-6.812-2.711-9.44-5.414
		c-3.344-3.438-6.413-7.117-9.443-10.831c-1.647-2.016-3.878-3.045-6.321-2.39c-2.17,0.584-4.152,1.854-5.606,3.774
		c-4.691,6.2-8.81,12.754-12.379,19.66c-1.116,2.159-2.484,4.012-4.926,5.003c-2.691,1.092-5.093,2.707-6.211,5.74
		c-2.353-1.772-3.952-3.949-5.855-5.812c-1.46-1.427-2.647-3.127-4.062-4.605c-2.17-2.267-4.715-2.05-6.799,0.448
		c-2.416,2.897-3.81,6.35-5.238,9.762c-1.909,4.557-2.869,9.382-3.764,14.225c-0.447,2.427-0.956,4.844-1.407,7.271
		c-0.106,0.57,0.027,1.039,0.042,1.556"/>
	
		<path fill-rule="evenodd" clip-rule="evenodd" fill="none" stroke="#D5D2CA" stroke-width="2" stroke-linecap="round" stroke-linejoin="round" stroke-miterlimit="10" d="
		M76.668,71.633c1.122-0.904,2.468-0.573,3.714-0.594c3.262-0.056,6.534-0.147,9.752,0.593c4.479,1.031,8.964,1.993,13.326,3.513
		c3.008,1.047,6.171,1.678,8.953,3.31c2.558,1.498,5.11,3.012,7.578,4.651c2.853,1.896,5.844,3.394,9.3,3.676
		c1.637,0.133,1.052,1.438,1.39,2.265"/>
	
		<path fill-rule="evenodd" clip-rule="evenodd" fill="none" stroke="#D5D2CA" stroke-width="2" stroke-linecap="round" stroke-linejoin="round" stroke-miterlimit="10" d="
		M47.263,74.574c0-2.808,0.38-3.21,3.241-2.88c0.523,0.061,1.198,0.09,1.538,0.015c2.087-0.476,3.528,0.404,4.634,1.957
		c0.671,0.939,1.485,1.028,2.503,1.088c3.096,0.184,6.19,0.104,9.286,0.138c0.517,0.005,1.096-0.04,1.538,0.169
		c4.639,2.198,9.587,3.535,14.399,5.253c1.231,0.438,2.431,0.943,3.715,1.244c1.695,0.396,2.259,2.008,3.065,3.253
		c1.159,1.788,2.346,3.566,3.497,5.359c0.989,1.539,2.909,2.138,4.431,3.13c1.129,0.734,2.269,1.446,3.404,2.17"/>
	
		<path fill-rule="evenodd" clip-rule="evenodd" fill="none" stroke="#D5D2CA" stroke-width="2" stroke-linecap="round" stroke-linejoin="round" stroke-miterlimit="10" d="
		M63.978,89.896c2.311,0.527,4.658,0.09,6.964,0.063c5.364-0.062,10.731,0.047,16.096-0.075c0.989-0.024,1.809,0.172,2.647,0.766
		c3.99,2.832,8.031,5.592,12.056,8.38"/>
	
		<path fill-rule="evenodd" clip-rule="evenodd" fill="none" stroke="#D5D2CA" stroke-width="2" stroke-linecap="round" stroke-linejoin="round" stroke-miterlimit="10" d="
		M69.549,95.313c0.497,0.249,1.028,0.151,1.548,0.151c5.21,0.007,10.421,0.007,15.631,0.001c0.615,0,1.156,0.041,1.718,0.448
		c3.116,2.259,6.279,4.457,9.427,6.674"/>
	
		<path fill-rule="evenodd" clip-rule="evenodd" fill="none" stroke="#D5D2CA" stroke-width="2" stroke-linecap="round" stroke-linejoin="round" stroke-miterlimit="10" d="
		M126.812,91.91c-2.035,0.061-3.927,0.81-5.876,1.26c-4.865,1.12-9.703,2.352-14.555,3.529c-0.086,0.021-0.205-0.095-0.309-0.147"/>
	
		<path fill-rule="evenodd" clip-rule="evenodd" fill="none" stroke="#D5D2CA" stroke-width="2" stroke-linecap="round" stroke-linejoin="round" stroke-miterlimit="10" d="
		M112.265,84.481c-5.52,0.928-11.04,1.856-16.56,2.785"/>
	
		<path fill-rule="evenodd" clip-rule="evenodd" fill="none" stroke="#D5D2CA" stroke-width="2" stroke-linecap="round" stroke-linejoin="round" stroke-miterlimit="10" d="
		M109.169,80.456c-5.263,1.084-10.523,2.168-15.785,3.25"/>
	
		<path fill-rule="evenodd" clip-rule="evenodd" fill="none" stroke="#D5D2CA" stroke-width="2" stroke-linecap="round" stroke-linejoin="round" stroke-miterlimit="10" d="
		M72.799,73.646c0.909,0.71,2.054,0.752,3.093,1.089c3.771,1.224,7.534,2.471,11.3,3.709"/>
	
		<path fill-rule="evenodd" clip-rule="evenodd" fill="none" stroke="#D5D2CA" stroke-width="2" stroke-linecap="round" stroke-linejoin="round" stroke-miterlimit="10" d="
		M138.885,96.242c1.496,0,2.995-0.059,4.488,0.014c2.659,0.129,4.62,1.877,6.809,3.086c0.565,0.312,1.035,0.801,1.703,0.925"/>
	
		<path fill-rule="evenodd" clip-rule="evenodd" fill="none" stroke="#D5D2CA" stroke-width="2" stroke-linecap="round" stroke-linejoin="round" stroke-miterlimit="10" d="
		M59.333,84.945c-4.219,0.416-8.451,0.562-12.69,0.646c-0.456,0.008-0.757-0.173-1.076-0.35c-1.051-0.586-2.109-1.173-3.084-1.87
		c-0.435-0.31-1.211-0.314-1.247-1.059c-0.041-0.824-0.154-1.687,0.032-2.467c0.178-0.735,3.206-1.839,3.807-1.374
		c1.895,1.467,4.071,1.165,6.211,1.22c1.755,0.043,3.517-0.197,5.263,0.145"/>
	
		<path fill-rule="evenodd" clip-rule="evenodd" fill="none" stroke="#D5D2CA" stroke-width="2" stroke-linecap="round" stroke-linejoin="round" stroke-miterlimit="10" d="
		M41.071,82.778c-2.919,2.474-6.35,4.051-9.725,5.774c-3.293,1.683-6.041,4.178-8.538,6.917"/>
	
		<path fill-rule="evenodd" clip-rule="evenodd" fill="none" stroke="#D5D2CA" stroke-width="2" stroke-linecap="round" stroke-linejoin="round" stroke-miterlimit="10" d="
		M70.169,75.039c1.174-0.941,2.473-1.702,3.59-2.752c1.221-1.141,1.979-1.016,3.375-0.036c1.111,0.78,2.489,0.784,3.712,1.244
		c1.47,0.552,3.071,0.674,4.488,1.39"/>
	
		<path fill-rule="evenodd" clip-rule="evenodd" fill="none" stroke="#D5D2CA" stroke-width="2" stroke-linecap="round" stroke-linejoin="round" stroke-miterlimit="10" d="
		M98.334,77.515c-2.783,0.516-5.569,1.032-8.355,1.548"/>
	
		<path fill-rule="evenodd" clip-rule="evenodd" fill="none" stroke="#D5D2CA" stroke-width="2" stroke-linecap="round" stroke-linejoin="round" stroke-miterlimit="10" d="
		M112.729,91.754c-2.222,0.993-4.682,1.095-6.965,1.857"/>
	
		<path fill-rule="evenodd" clip-rule="evenodd" fill="none" stroke="#D5D2CA" stroke-width="2" stroke-linecap="round" stroke-linejoin="round" stroke-miterlimit="10" d="
		M109.479,89.279c-0.267-0.232-0.613-0.449-0.922-0.296c-2.152,1.071-4.575,0.772-6.816,1.379"/>
	
		<path fill-rule="evenodd" clip-rule="evenodd" fill="none" stroke="#D5D2CA" stroke-width="2" stroke-linecap="round" stroke-linejoin="round" stroke-miterlimit="10" d="
		M121.86,86.802c-0.195,1.216,1.332,1.108,1.482,2.291c-2.044,0.938-4.441,1.174-6.744,1.731"/>
	
		<path fill-rule="evenodd" clip-rule="evenodd" fill="none" stroke="#D5D2CA" stroke-width="2" stroke-linecap="round" stroke-linejoin="round" stroke-miterlimit="10" d="
		M120.003,86.181c-1.702,0.466-3.402,0.938-5.108,1.391c-0.665,0.177-1.34,0.312-2.012,0.467"/>
	
		<path fill-rule="evenodd" clip-rule="evenodd" fill="none" stroke="#D5D2CA" stroke-width="2" stroke-linecap="round" stroke-linejoin="round" stroke-miterlimit="10" d="
		M135.17,93.457c0.568,0.155,1.127,0.38,1.705,0.446c0.716,0.082,1.635-0.16,1.819,0.799c0.161,0.84,0.146,1.723-0.565,2.484
		c-1.198,1.283-2.268,2.685-3.437,3.997c-0.3,0.336-0.479,0.689-0.605,1.097"/>
	
		<path fill-rule="evenodd" clip-rule="evenodd" fill="none" stroke="#D5D2CA" stroke-width="2" stroke-linecap="round" stroke-linejoin="round" stroke-miterlimit="10" d="
		M129.444,94.541c0.667-1.309,1.844-2.199,2.844-3.192c0.554-0.551,1.696-0.284,2.617-0.049c0.382,1.549-0.012,2.764-1.256,3.89
		c-1.455,1.316-2.71,2.859-4.051,4.303"/>
	
		<path fill-rule="evenodd" clip-rule="evenodd" fill="none" stroke="#D5D2CA" stroke-width="2" stroke-linecap="round" stroke-linejoin="round" stroke-miterlimit="10" d="
		M54.69,75.039c-2.27,0.438-4.545-0.013-6.806-0.092c-0.919-0.033-1.846,0.394-2.807-0.021c-0.512-0.219-0.776,0.329-0.762,0.888
		c0.02,0.773,0.005,1.547,0.005,2.321"/>
	
		<path fill-rule="evenodd" clip-rule="evenodd" fill="none" stroke="#D5D2CA" stroke-width="2" stroke-linecap="round" stroke-linejoin="round" stroke-miterlimit="10" d="
		M97.098,74.884c-2.806,0.202-5.591,0.579-8.36,1.077c-0.298,0.053-0.617,0.007-0.926,0.007"/>
	
		<path fill-rule="evenodd" clip-rule="evenodd" fill="none" stroke="#D5D2CA" stroke-width="2" stroke-linecap="round" stroke-linejoin="round" stroke-miterlimit="10" d="
		M64.44,79.063c-1.659-1.007-3.123-2.371-5.107-2.786"/>
	
		<path fill-rule="evenodd" clip-rule="evenodd" fill="none" stroke="#D5D2CA" stroke-width="2" stroke-linecap="round" stroke-linejoin="round" stroke-miterlimit="10" d="
		M128.36,90.981c0.785-0.199,1.209-0.865,1.685-1.409c0.653-0.751,1.507-0.54,2.172-0.39c0.742,0.167,0.422,1.049,0.478,1.643"/>
	
		<path fill-rule="evenodd" clip-rule="evenodd" fill="none" stroke="#D5D2CA" stroke-width="2" stroke-linecap="round" stroke-linejoin="round" stroke-miterlimit="10" d="
		M111.182,90.207c0.966,0.363,1.411,1.612,2.63,1.548"/>
</g>
</svg>
