<?xml version="1.0" encoding="utf-8"?>
<!-- Generator: Adobe Illustrator 16.0.0, SVG Export Plug-In . SVG Version: 6.00 Build 0)  -->
<!DOCTYPE svg PUBLIC "-//W3C//DTD SVG 1.1//EN" "http://www.w3.org/Graphics/SVG/1.1/DTD/svg11.dtd">
<svg version="1.1" id="Layer_1" xmlns="http://www.w3.org/2000/svg" xmlns:xlink="http://www.w3.org/1999/xlink" x="0px" y="0px"
	 width="178.704px" height="134.092px" viewBox="0 0 178.704 134.092" enable-background="new 0 0 178.704 134.092"
	 xml:space="preserve">
<path fill="#FFFFFF" stroke="#D5D2CA" stroke-width="2" stroke-linecap="round" stroke-linejoin="round" stroke-miterlimit="10" d="
	M148.339,45.092c0.64-2.675,0.979-5.467,0.979-8.338C149.317,17.007,133.312,1,113.565,1C99.3,1,86.986,9.355,81.25,21.439
	l-0.003-0.007c-0.208-0.227-0.422-0.45-0.642-0.668c-4.067-4.069-9.688-6.587-15.899-6.587c-12.169,0-22.08,9.663-22.478,21.736
	l0.004-0.001c-3.245-1.272-6.778-1.971-10.474-1.971c-15.861,0-28.72,12.859-28.72,28.72c0,4.471,1.021,8.7,2.841,12.471
	L5.878,75.13C2.782,80.238,1,86.231,1,92.64c0,18.68,15.145,33.823,33.823,33.823c8.379,0,16.046-3.047,21.955-8.094l0.002,0.005
	c6.164,8.294,16.037,13.667,27.164,13.667c12.389,0,23.223-6.66,29.114-16.594l-0.003,0.004
	c4.544,10.385,14.911,17.641,26.973,17.641c16.255,0,29.432-13.177,29.432-29.431c0-4.894-1.192-9.507-3.305-13.567l-0.009,0.004
	c6.943-4.366,11.558-12.097,11.558-20.903c0-13.627-11.047-24.673-24.674-24.673c-1.704,0-3.367,0.171-4.974,0.501"/>
<rect x="30.598" y="43.588" fill="none" width="112.333" height="68.999"/>
<text transform="matrix(1 0 0 1 50.7827 52.4917)"><tspan x="0" y="0" fill="#D5D2CA" font-family="'Montserrat-Regular'" font-size="12">ENTRADA A</tspan><tspan x="-1.21" y="22.801" fill="#D5D2CA" font-family="'Montserrat-Regular'" font-size="19">MACHU </tspan><tspan x="-1.296" y="40.801" fill="#D5D2CA" font-family="'Montserrat-Regular'" font-size="19">PICCHU</tspan></text>
</svg>
