<?xml version="1.0" encoding="utf-8"?>
<!-- Generator: Adobe Illustrator 16.0.0, SVG Export Plug-In . SVG Version: 6.00 Build 0)  -->
<!DOCTYPE svg PUBLIC "-//W3C//DTD SVG 1.1//EN" "http://www.w3.org/Graphics/SVG/1.1/DTD/svg11.dtd">
<svg version="1.1" id="Layer_1" xmlns="http://www.w3.org/2000/svg" xmlns:xlink="http://www.w3.org/1999/xlink" x="0px" y="0px"
	 width="325.94px" height="125.198px" viewBox="0 0 325.94 125.198" enable-background="new 0 0 325.94 125.198"
	 xml:space="preserve">
<g>
	<path fill="#FFFFFF" d="M304.245,63.322v0.01l-18.98,5.131l-5.38,18.721c-5.489-6.66-13.93-13.061-24.869-18.691
		c-3.57-1.84-7.33-3.559-11.261-5.16l19.521,2.391l9.63-26.231C285.845,46.433,296.365,54.473,304.245,63.322z"/>
	<path fill="#FFFFFF" d="M263.275,65.723l-19.521-2.391c-0.01,0-0.02-0.01-0.03-0.01l2.57-6.67
		C252.525,59.363,258.225,62.402,263.275,65.723z"/>
	<path fill="#FFFFFF" d="M81.766,63.322c-0.011,0-0.021,0.01-0.03,0.01l-19.521,2.391c5.051-3.321,10.75-6.36,16.98-9.071
		L81.766,63.322z"/>
	<path fill="#FFFFFF" d="M62.215,65.723l19.521-2.391c-3.931,1.602-7.69,3.32-11.271,5.16c-10.92,5.631-19.359,12.021-24.859,18.682
		l-5.381-18.711l-18.979-5.131l-0.01-0.01c7.89-8.85,18.409-16.89,31.35-23.83L62.215,65.723z"/>
	<path fill="#FFFFFF" d="M272.905,39.492l-9.63,26.231c-5.051-3.321-10.75-6.36-16.98-9.071c-22.76-9.939-52.58-15.64-83.55-15.64
		c-19.72,0-38.979,2.31-56.24,6.55c-9.85,2.42-19.05,5.48-27.31,9.09c-6.23,2.711-11.93,5.75-16.98,9.071l-9.63-26.231l-4.42-12.029
		c14.92-8.45,32.649-15.061,52.12-19.561c19.46-4.5,40.641-6.89,62.46-6.89c43.63,0,84.75,9.56,114.58,26.45L272.905,39.492z"/>
</g>
<g>
	<path fill="none" stroke="#D5D2CA" stroke-width="2" stroke-linecap="round" stroke-linejoin="round" stroke-miterlimit="10" d="
		M45.605,87.174l-5.381-18.711l-18.979-5.131l-0.01-0.01c7.89-8.85,18.409-16.89,31.35-23.83"/>
	
		<polygon fill="none" stroke="#D5D2CA" stroke-width="2" stroke-linecap="round" stroke-linejoin="round" stroke-miterlimit="10" points="
		45.605,87.174 45.596,87.184 45.605,87.184 	"/>
	<path fill="none" stroke="#D5D2CA" stroke-width="2" stroke-linecap="round" stroke-linejoin="round" stroke-miterlimit="10" d="
		M81.766,63.322c-0.011,0-0.021,0.01-0.03,0.01c-3.931,1.602-7.69,3.32-11.271,5.16c-10.92,5.631-19.359,12.021-24.859,18.682"/>
	
		<polyline fill="none" stroke="#D5D2CA" stroke-width="2" stroke-linecap="round" stroke-linejoin="round" stroke-miterlimit="10" points="
		79.195,56.643 79.195,56.652 81.766,63.322 81.766,63.333 81.735,63.333 62.215,65.723 	"/>
	<path fill="none" stroke="#D5D2CA" stroke-width="2" stroke-linecap="round" stroke-linejoin="round" stroke-miterlimit="10" d="
		M243.725,63.322c0.011,0,0.021,0.01,0.03,0.01c3.931,1.602,7.69,3.32,11.261,5.16c10.939,5.631,19.38,12.031,24.869,18.691
		l5.38-18.721l18.98-5.131v-0.01c-7.88-8.85-18.4-16.89-31.34-23.83"/>
	
		<polyline fill="none" stroke="#D5D2CA" stroke-width="2" stroke-linecap="round" stroke-linejoin="round" stroke-miterlimit="10" points="
		246.295,56.643 246.295,56.652 243.725,63.322 243.725,63.333 243.755,63.333 263.275,65.723 	"/>
	<path fill="none" stroke="#D5D2CA" stroke-width="2" stroke-linecap="round" stroke-linejoin="round" stroke-miterlimit="10" d="
		M162.745,1.013c43.63,0,84.75,9.56,114.58,26.45l-4.42,12.029l-9.63,26.231c-5.051-3.321-10.75-6.36-16.98-9.071
		c-22.76-9.939-52.58-15.64-83.55-15.64c-19.72,0-38.979,2.31-56.24,6.55c-9.85,2.42-19.05,5.48-27.31,9.09
		c-6.23,2.711-11.93,5.75-16.98,9.071l-9.63-26.231l-4.42-12.029c14.92-8.45,32.649-15.061,52.12-19.561
		C119.745,3.402,140.926,1.013,162.745,1.013"/>
</g>
<g>
	<path fill="#D5D2CA" d="M105.854,36.252l-2.8-10.553l-1.549,9.96l-2.693,0.708l-6.248-7.91l2.777,10.561l-3.691,0.971l-4.277-16.27
		l4.525-1.19l6.955,8.519l1.863-10.838l4.503-1.184l4.278,16.269L105.854,36.252z"/>
	<path fill="#D5D2CA" d="M120.447,30.241l-0.758,3.242l-4.346,0.642l4.714-17.68l4.345-0.642l9.461,15.585l-4.511,0.666l-1.64-2.887
		L120.447,30.241z M122.721,20.346l-1.513,6.508l4.796-0.709L122.721,20.346z"/>
	<path fill="#D5D2CA" d="M147.195,25.723l-0.119,0.008l-3.234,0.189l0.276,4.719l-4.265,0.25l-0.982-16.77l7.498-0.439
		c4.433-0.26,7.096,1.699,7.314,5.438c0.15,2.562-0.82,4.471-2.727,5.568l3.846,5.327l-4.839,0.283L147.195,25.723z M146.879,22.376
		c1.846-0.108,2.869-1.105,2.765-2.878c-0.103-1.75-1.232-2.572-3.077-2.465l-3.234,0.189l0.313,5.343L146.879,22.376z"/>
	<path fill="#D5D2CA" d="M161.781,30.005l0.074-16.802l4.272,0.02l-0.075,16.801L161.781,30.005z"/>
	<path fill="#D5D2CA" d="M177.974,27.311l-1.436,3.004l-4.382-0.305l8.395-16.256l4.381,0.304l5.898,17.249l-4.549-0.315
		l-0.982-3.172L177.974,27.311z M182.315,18.134l-2.872,6.031l4.836,0.336L182.315,18.134z"/>
	<path fill="#D5D2CA" d="M208.35,33.943l-5.961-11.449l-1.664,10.207l-3.955-0.646l2.702-16.577l3.718,0.606l5.982,11.478
		l1.667-10.23l3.931,0.641l-2.701,16.577L208.35,33.943z"/>
	<path fill="#D5D2CA" d="M224.156,34.207l-2,2.662l-4.236-1.162l11.435-14.285l4.235,1.161l2.386,18.075l-4.397-1.205l-0.34-3.304
		L224.156,34.207z M230.222,26.064l-4.005,5.348l4.676,1.282L230.222,26.064z"/>
</g>
<rect x="0.5" y="0.5" fill="none" width="324.94" height="124.198"/>
</svg>
