<?xml version="1.0" encoding="utf-8"?>
<!-- Generator: Adobe Illustrator 16.0.0, SVG Export Plug-In . SVG Version: 6.00 Build 0)  -->
<!DOCTYPE svg PUBLIC "-//W3C//DTD SVG 1.1//EN" "http://www.w3.org/Graphics/SVG/1.1/DTD/svg11.dtd">
<svg version="1.1" id="Layer_1" xmlns="http://www.w3.org/2000/svg" xmlns:xlink="http://www.w3.org/1999/xlink" x="0px" y="0px"
	 width="97.908px" height="97.908px" viewBox="0 0 97.908 97.908" enable-background="new 0 0 97.908 97.908" xml:space="preserve">
<circle fill="#FFFFFF" cx="48.954" cy="48.954" r="48.954"/>
<g>
	<g>
		<path fill="#D5D2CA" d="M33.327,29.97v11.092l0.049,1.141c0.047,0.508,0.178,0.891,0.391,1.152
			c0.215,0.262,0.566,0.424,1.057,0.486l1.664,0.119v0.381h-6.84V43.96c0.236-0.016,0.492-0.027,0.771-0.035
			c0.277-0.008,0.613-0.041,1.008-0.096c0.396-0.057,0.709-0.217,0.939-0.486c0.229-0.27,0.367-0.65,0.416-1.141l0.047-1.141V30.04
			l-0.047-1.092c-0.113-0.381-0.283-0.695-0.516-0.949s-0.51-0.404-0.838-0.451c-0.326-0.049-0.65-0.08-0.969-0.096
			c-0.32-0.016-0.559-0.033-0.719-0.049v-0.379h8.797l3.996,10.309l3.592-10.309h8.555v0.379h-0.547
			c-0.158,0-0.484,0.033-0.984,0.096c-0.5,0.064-0.844,0.199-1.033,0.406c-0.189,0.203-0.309,0.559-0.357,1.066l-0.047,1.094v11.26
			l0.047,1.09c0.049,0.51,0.156,0.861,0.322,1.059c0.164,0.197,0.496,0.328,0.984,0.393l1.188,0.094v0.381h-10.83V43.96l1.092-0.072
			c0.508-0.062,0.84-0.182,1-0.355c0.156-0.174,0.26-0.531,0.307-1.068l0.049-1.092v-8.814c0-0.488,0.018-1.072,0.059-1.744
			c0.037-0.674,0.082-1.303,0.131-1.889h-0.143l-0.975,3.062l-4.203,12.354h-1.475L33.469,29.97H33.327z"/>
		<path fill="#D5D2CA" d="M47.905,60.194c0.127-0.143,0.359-0.416,0.693-0.816c0.336-0.396,0.65-0.852,0.939-1.359
			s0.473-0.885,0.545-1.131c0.072-0.244,0.109-0.438,0.109-0.584c0-0.328-0.123-0.543-0.369-0.652
			c-0.244-0.109-0.574-0.184-0.992-0.219l-1.279-0.082v-0.436h6.939v0.436c-0.201,0.02-0.414,0.031-0.643,0.041
			c-0.227,0.01-0.627,0.076-1.203,0.205c-0.572,0.125-1.146,0.611-1.721,1.455s-1.07,1.533-1.49,2.068s-0.82,1.029-1.203,1.484
			c1.18,1.451,2.164,2.461,2.953,3.031c0.789,0.574,1.492,0.861,2.109,0.861c0.525,0,0.998-0.197,1.416-0.586
			c0.418-0.391,0.67-1.156,0.762-2.301h0.436c0,1.979-0.631,3.525-1.891,4.643c-1.262,1.113-2.809,1.674-4.641,1.674
			c-1.162,0-2.199-0.229-3.117-0.682c-0.916-0.453-1.828-1.197-2.734-2.232c-1.162,1.162-2.223,1.938-3.186,2.326
			c-0.963,0.391-2.006,0.588-3.129,0.588c-2.033,0-3.648-0.592-4.844-1.77c-1.199-1.182-1.797-2.605-1.797-4.273
			c0-1.598,0.539-2.973,1.619-4.125s2.744-1.918,4.994-2.299c-0.328-0.654-0.562-1.193-0.707-1.619
			c-0.146-0.428-0.219-1.031-0.219-1.811c0-1.125,0.553-2.168,1.658-3.129c1.107-0.963,2.77-1.443,4.982-1.443
			c1.379,0,2.436,0.301,3.172,0.898c0.734,0.6,1.102,1.369,1.102,2.312c0,0.762-0.291,1.434-0.871,2.014
			c-0.58,0.582-1.436,1.035-2.559,1.361c0.654,1.09,1.307,2.127,1.959,3.117C46.354,58.149,47.088,59.161,47.905,60.194
			 M43.198,64.661c-0.945-1.072-1.953-2.402-3.023-3.988c-1.068-1.588-2.004-3.188-2.803-4.805c-0.344,0.145-0.631,0.473-0.857,0.98
			s-0.34,1.088-0.34,1.742c0,1.924,0.531,3.5,1.592,4.736c1.062,1.232,2.264,1.848,3.607,1.848c0.543,0,0.943-0.053,1.199-0.162
			C42.825,64.903,43.034,64.788,43.198,64.661 M45.346,50.833c0-0.871-0.172-1.561-0.516-2.068
			c-0.346-0.508-0.836-0.762-1.471-0.762c-0.381,0-0.707,0.127-0.98,0.381c-0.271,0.254-0.408,0.598-0.408,1.033
			c0,0.564,0.15,1.225,0.449,1.988c0.299,0.762,0.676,1.523,1.131,2.285c0.49-0.217,0.912-0.539,1.264-0.965
			C45.17,52.298,45.346,51.669,45.346,50.833"/>
		<path fill="#D5D2CA" d="M68.336,67.599H56.745v-0.381h0.738c0.332-0.047,0.656-0.092,0.975-0.131
			c0.314-0.039,0.562-0.158,0.746-0.357c0.182-0.197,0.297-0.549,0.344-1.055l0.049-1.092v-11.26l-0.049-1.092
			c-0.047-0.51-0.166-0.865-0.355-1.07c-0.189-0.207-0.455-0.332-0.795-0.381c-0.342-0.047-0.65-0.074-0.928-0.082
			c-0.275-0.008-0.525-0.02-0.748-0.035v-0.381l11.094-0.023c2.58,0,4.295,0.283,5.141,0.855c0.85,0.568,1.439,1.184,1.771,1.842
			c0.332,0.656,0.498,1.365,0.498,2.125c0,0.713-0.111,1.393-0.334,2.043c-0.223,0.648-0.561,1.182-1.02,1.604
			c-0.459,0.42-1.029,0.732-1.711,0.938c-0.682,0.207-1.559,0.309-2.637,0.309c-1.029,0-1.859,0.004-2.494,0.012
			c-0.633,0.01-1.162,0.021-1.592,0.035v4.562l0.049,1.092c0.047,0.506,0.162,0.857,0.344,1.055
			c0.184,0.199,0.447,0.324,0.797,0.369c0.348,0.049,0.688,0.076,1.021,0.084c0.332,0.008,0.561,0.02,0.688,0.035V67.599z
			 M69.286,55.032c0-0.902-0.117-1.781-0.355-2.635c-0.238-0.855-0.598-1.35-1.08-1.484s-0.951-0.207-1.402-0.215
			s-0.787-0.014-1.01-0.014v8.887c0.318-0.018,0.641-0.033,0.975-0.049s0.773-0.074,1.318-0.178
			c0.547-0.102,0.941-0.578,1.188-1.426C69.163,57.073,69.286,56.11,69.286,55.032"/>
	</g>
	<g>
		<path fill="#D5D2CA" d="M16.84,73.771l-1.064,0.338l-0.932-1.141l5.906-1.684l0.934,1.143l-2.865,5.408l-0.969-1.186l0.551-0.969
			L16.84,73.771z M20.084,72.724l-2.135,0.684l1.029,1.26L20.084,72.724z"/>
		<path fill="#D5D2CA" d="M23.221,80.233l-0.816,0.881L19.6,78.513l3.834-4.135l1.051,0.977l-3.018,3.252L23.221,80.233z"/>
		<path fill="#D5D2CA" d="M27.42,84.69l2.041-3.045l-2.855,1.816l-0.775-0.521l0.609-3.33l-2.047,3.041l-1.062-0.717l3.154-4.684
			l1.305,0.877l-0.607,3.643l3.146-1.932l1.297,0.873l-3.156,4.686L27.42,84.69z"/>
		<path fill="#D5D2CA" d="M31.635,85.784l-0.799,0.785l-1.348-0.598L34,81.798l1.348,0.598l-0.111,6.123l-1.4-0.621l0.053-1.113
			L31.635,85.784z M34.055,83.384l-1.598,1.576l1.49,0.658L34.055,83.384z"/>
		<path fill="#D5D2CA" d="M38.096,88.12l2.957,0.801l-0.297,1.098l-4.811-1.303l0.24-0.887l3.855-2.674l-2.816-0.762l0.297-1.098
			l4.66,1.262l-0.238,0.887L38.096,88.12z"/>
		<path fill="#D5D2CA" d="M43.459,89.382l-0.523,0.986l-1.467-0.164l3.051-5.336l1.465,0.164l1.732,5.873l-1.521-0.17l-0.283-1.078
			L43.459,89.382z M45.049,86.364l-1.051,1.982l1.617,0.182L45.049,86.364z M44.59,84.382l1-1.252l1.201,0.582l-1.145,0.789
			L44.59,84.382z"/>
		<path fill="#D5D2CA" d="M52.772,90.704l-2.761-3.338l0.172,3.465l-1.344,0.066l-0.277-5.629l1.263-0.062l2.769,3.348l-0.171-3.475
			l1.334-0.066l0.278,5.629L52.772,90.704z"/>
		<path fill="#D5D2CA" d="M58.101,87.532c0.078,0.377-0.135,0.701-0.514,0.779c-0.37,0.078-0.694-0.135-0.772-0.514
			s0.134-0.703,0.505-0.779C57.699,86.94,58.022,87.153,58.101,87.532z"/>
		<path fill="#D5D2CA" d="M64.114,82.755l-0.125,1.236c-0.678-0.123-1.464-0.094-1.896,0.062c-0.349,0.127-0.536,0.34-0.443,0.598
			c0.333,0.916,2.943-0.623,3.639,1.291c0.385,1.061-0.351,1.961-1.531,2.389c-0.886,0.322-1.915,0.318-2.729,0.031l0.146-1.225
			c0.718,0.277,1.65,0.299,2.203,0.1c0.424-0.154,0.631-0.41,0.521-0.713c-0.341-0.938-2.938,0.639-3.619-1.238
			c-0.354-0.977,0.261-1.902,1.532-2.363C62.576,82.646,63.44,82.597,64.114,82.755z"/>
		<path fill="#D5D2CA" d="M70.755,81.769c0.788,1.441,0.242,3.162-1.291,4c-1.526,0.834-3.266,0.371-4.057-1.076
			c-0.787-1.441-0.226-3.135,1.3-3.969C68.241,79.886,69.972,80.335,70.755,81.769z M66.698,83.995
			c0.455,0.834,1.449,1.127,2.205,0.713c0.764-0.416,1.02-1.393,0.564-2.225c-0.456-0.834-1.407-1.131-2.17-0.715
			C66.534,82.187,66.242,83.163,66.698,83.995z"/>
		<path fill="#D5D2CA" d="M74.256,80.64l-0.032,0.025l-0.858,0.666l0.974,1.254l-1.133,0.881l-3.461-4.455l1.992-1.547
			c1.177-0.914,2.286-0.879,3.058,0.113c0.529,0.682,0.623,1.395,0.305,2.061l2.077,0.742l-1.285,1L74.256,80.64z M73.532,79.774
			c0.49-0.381,0.584-0.852,0.218-1.322c-0.36-0.465-0.83-0.479-1.32-0.098l-0.858,0.668l1.103,1.418L73.532,79.774z"/>
		<path fill="#D5D2CA" d="M78.021,79.511L74.1,75.462l1.03-0.996l3.92,4.049L78.021,79.511z"/>
		<path fill="#D5D2CA" d="M80.175,75.806l0.543,0.977l-0.936,1.141l-2.814-5.459l0.936-1.139l5.866,1.74l-0.972,1.184l-1.059-0.348
			L80.175,75.806z M78.51,72.833l1.091,1.959l1.032-1.258L78.51,72.833z"/>
	</g>
	<g>
		<path fill="#D5D2CA" d="M25.313,16.214c0.336,0.418,0.379,1.1,0.307,1.863l-0.113,1.459l1.621-1.307l0.625,0.775l-2.879,2.318
			l-0.51-0.631l0.201-2.562c0.033-0.398-0.021-0.779-0.162-0.955c-0.178-0.221-0.443-0.225-0.719-0.002
			c-0.312,0.252-0.547,0.748-0.654,1.334l-0.936-0.408c0.191-0.752,0.547-1.391,1.096-1.832
			C23.954,15.651,24.823,15.604,25.313,16.214z"/>
		<path fill="#D5D2CA" d="M28.368,15.147c0.668-0.293,1.35-0.17,1.762,0.471c0.512,0.795,0.246,1.754-0.721,2.375
			c-0.57,0.367-1.299,0.551-1.873,0.492l-0.088-1.076c0.521,0.135,0.988,0.076,1.363-0.164c0.416-0.266,0.512-0.613,0.293-0.951
			c-0.225-0.35-0.566-0.373-0.982-0.107l-0.664,0.428l-0.363-0.564l0.309-1.557l-1.514,0.973l-0.52-0.807l2.742-1.762l0.387,0.6
			l-0.346,1.748L28.368,15.147z"/>
		<path fill="#D5D2CA" d="M32.87,13.675c0.148,0.305,0.037,0.627-0.268,0.775c-0.299,0.145-0.619,0.035-0.768-0.27
			s-0.039-0.627,0.26-0.771C32.399,13.261,32.721,13.37,32.87,13.675z"/>
		<path fill="#D5D2CA" d="M38.047,12.118c0.348,0.992-0.07,1.783-1.064,2.131c-0.66,0.232-1.289,0.145-1.869-0.184l0.27-0.984
			c0.455,0.23,0.889,0.271,1.162,0.176c0.314-0.109,0.434-0.367,0.299-0.748l-0.76-2.174l-1.602,0.561l-0.336-0.961l2.795-0.977
			L38.047,12.118z"/>
		<path fill="#D5D2CA" d="M43.172,10.411c0.279,1.275-0.393,2.27-1.744,2.564c-1.357,0.299-2.404-0.318-2.684-1.594l-0.613-2.801
			l1.229-0.27l0.613,2.801c0.143,0.654,0.65,0.963,1.238,0.834c0.578-0.127,0.885-0.613,0.74-1.268l-0.613-2.801l1.221-0.268
			L43.172,10.411z"/>
		<path fill="#D5D2CA" d="M47.645,11.001l0.098,1.049l-3.342,0.311l-0.459-4.924l1.252-0.117l0.361,3.877L47.645,11.001z"/>
		<path fill="#D5D2CA" d="M48.241,12.075L48.167,7.14l1.255-0.018l0.074,4.934L48.241,12.075z"/>
		<path fill="#D5D2CA" d="M55.588,9.987c-0.131,1.436-1.37,2.422-2.896,2.283c-1.519-0.139-2.56-1.326-2.429-2.768
			c0.131-1.436,1.367-2.395,2.887-2.256C54.676,7.386,55.718,8.56,55.588,9.987z M51.543,9.626c-0.076,0.83,0.506,1.529,1.259,1.598
			c0.76,0.068,1.423-0.516,1.498-1.346c0.076-0.83-0.472-1.512-1.231-1.582C52.309,8.228,51.619,8.796,51.543,9.626z"/>
		<path fill="#D5D2CA" d="M58.814,11.183c-0.078,0.328-0.366,0.508-0.695,0.43c-0.323-0.076-0.502-0.365-0.424-0.693
			c0.077-0.33,0.366-0.51,0.688-0.434C58.713,10.563,58.891,10.853,58.814,11.183z"/>
		<path fill="#D5D2CA" d="M64.948,11.435c-0.186,0.502-0.749,0.889-1.442,1.221l-1.31,0.652l1.954,0.721l-0.345,0.934l-3.47-1.279
			l0.28-0.762l2.303-1.145c0.358-0.176,0.658-0.418,0.736-0.631c0.098-0.266-0.035-0.494-0.366-0.617
			c-0.378-0.139-0.924-0.084-1.482,0.123l-0.131-1.01c0.743-0.223,1.475-0.246,2.137-0.002
			C64.733,9.978,65.219,10.698,64.948,11.435z"/>
		<path fill="#D5D2CA" d="M69.193,14.886c-0.737,1.439-1.844,1.881-3.088,1.244c-1.258-0.645-1.547-1.801-0.81-3.24
			c0.734-1.434,1.841-1.873,3.099-1.23C69.638,12.298,69.927,13.452,69.193,14.886z M66.446,13.479
			c-0.515,1.006-0.488,1.543,0.077,1.832c0.554,0.283,1.011-0.006,1.526-1.012c0.515-1.006,0.479-1.539-0.074-1.822
			C67.41,12.187,66.961,12.474,66.446,13.479z"/>
		<path fill="#D5D2CA" d="M68.99,17.737l2.154-3.305l-0.764-0.498l0.553-0.846l1.817,1.186l-2.706,4.15L68.99,17.737z"/>
		<path fill="#D5D2CA" d="M76.695,17.743l-0.922,0.383c-0.092-0.336-0.313-0.658-0.611-0.896c-0.616-0.492-1.228-0.34-1.724,0.303
			c0.39-0.113,0.821-0.021,1.251,0.322c0.76,0.609,0.848,1.492,0.248,2.242c-0.652,0.814-1.64,0.875-2.51,0.178
			c-1.036-0.83-1.077-2.064-0.129-3.248c0.983-1.229,2.322-1.469,3.407-0.6C76.135,16.771,76.529,17.284,76.695,17.743z
			 M72.869,18.458c-0.229,0.287-0.251,0.686,0.146,1.004c0.353,0.281,0.732,0.26,1.019-0.098c0.265-0.332,0.215-0.688-0.138-0.969
			C73.515,18.091,73.12,18.144,72.869,18.458z"/>
	</g>
	<g>
		<g>
			<path fill="#D5D2CA" d="M14.645,67.075c0.031,0.072,0.062,0.145,0.096,0.215l0.078,0.172c0.068,0.15,0.244,0.217,0.395,0.148
				c0.148-0.068,0.213-0.242,0.148-0.391c-0.002-0.002-0.002-0.002,0-0.004l-0.08-0.172c-0.154-0.342-0.318-0.719-0.488-1.125
				s-0.344-0.846-0.52-1.318c-0.178-0.473-0.348-0.949-0.506-1.43c-0.16-0.479-0.314-0.963-0.455-1.449
				c-0.143-0.486-0.277-0.979-0.402-1.473s-0.242-0.99-0.348-1.492c-0.105-0.5-0.205-1.004-0.293-1.51
				c-0.088-0.508-0.166-1.016-0.234-1.529c-0.07-0.512-0.131-1.025-0.18-1.543c-0.051-0.518-0.092-1.037-0.121-1.561
				c-0.031-0.521-0.051-1.045-0.061-1.572c-0.014-0.527-0.014-1.055-0.004-1.586s0.025-0.996,0.049-1.395
				c0.023-0.4,0.039-0.684,0.053-0.852l0.062-0.766c0.018-0.197,0.043-0.451,0.076-0.764s0.082-0.701,0.143-1.166
				c0.061-0.463,0.133-0.924,0.215-1.381c0.082-0.461,0.168-0.918,0.258-1.371c0.092-0.451,0.191-0.902,0.303-1.346
				c0.113-0.447,0.227-0.893,0.348-1.336c0.121-0.439,0.25-0.875,0.389-1.307c0.141-0.438,0.285-0.869,0.43-1.297
				c0.15-0.428,0.309-0.85,0.473-1.27c0.168-0.42,0.338-0.838,0.512-1.254c0.176-0.412,0.359-0.822,0.549-1.227
				c0.193-0.404,0.391-0.809,0.592-1.209c0.199-0.398,0.406-0.791,0.625-1.18c0.215-0.391,0.439-0.777,0.664-1.162
				c0.225-0.383,0.455-0.758,0.695-1.131c0.242-0.375,0.488-0.744,0.736-1.111s0.525-0.756,0.83-1.17
				c0.309-0.414,0.541-0.721,0.701-0.922l0.311-0.391c0.104-0.129,0.084-0.316-0.045-0.42c-0.127-0.102-0.316-0.08-0.42,0.047
				l-0.311,0.395c-0.162,0.203-0.4,0.516-0.713,0.938c-0.312,0.42-0.594,0.816-0.848,1.189c-0.248,0.371-0.496,0.744-0.74,1.123
				s-0.482,0.762-0.711,1.152c-0.229,0.389-0.449,0.779-0.672,1.174c-0.221,0.395-0.432,0.797-0.635,1.203
				c-0.203,0.402-0.402,0.811-0.596,1.221c-0.197,0.41-0.385,0.828-0.562,1.25c-0.174,0.418-0.348,0.84-0.516,1.264
				c-0.172,0.43-0.33,0.859-0.48,1.295c-0.15,0.434-0.295,0.869-0.434,1.309c-0.143,0.441-0.275,0.885-0.398,1.334
				c-0.119,0.447-0.238,0.896-0.348,1.348c-0.115,0.455-0.219,0.912-0.311,1.373c-0.092,0.459-0.182,0.92-0.262,1.385
				c-0.082,0.465-0.158,0.936-0.219,1.408c-0.062,0.469-0.109,0.861-0.145,1.178c-0.033,0.318-0.061,0.578-0.076,0.777l-0.061,0.771
				c-0.016,0.168-0.035,0.457-0.057,0.861c-0.023,0.408-0.039,0.879-0.049,1.418c-0.01,0.537-0.01,1.076,0,1.609
				c0.012,0.533,0.033,1.066,0.064,1.596c0.029,0.529,0.07,1.057,0.121,1.582s0.113,1.047,0.182,1.566
				c0.072,0.521,0.15,1.037,0.242,1.553c0.088,0.512,0.188,1.023,0.295,1.531c0.109,0.508,0.227,1.012,0.354,1.514
				s0.26,1,0.406,1.492c0.146,0.496,0.299,0.986,0.463,1.473c0.162,0.488,0.332,0.971,0.514,1.451
				c0.18,0.479,0.355,0.926,0.527,1.338C14.383,66.478,14.516,66.786,14.645,67.075z"/>
		</g>
		<g>
			<path fill="#D5D2CA" d="M5.928,57.421c0.018,0.041,0.045,0.078,0.082,0.109l7.314,6.047c0.064,0.053,0.148,0.076,0.232,0.064
				c0.086-0.014,0.158-0.061,0.203-0.133l5.273-8.119c0.088-0.141,0.047-0.324-0.088-0.412c-0.139-0.09-0.322-0.049-0.412,0.088
				l-5.088,7.84l-7.057-5.834c-0.127-0.105-0.314-0.086-0.42,0.041C5.897,57.2,5.883,57.321,5.928,57.421z"/>
		</g>
		<g>
			<path fill="#D5D2CA" d="M5.797,52.677c0.018,0.031,0.037,0.062,0.062,0.09l6.234,6.234c0.061,0.061,0.143,0.092,0.227,0.088
				c0.086-0.006,0.164-0.047,0.217-0.111l5.59-7.053c0.102-0.129,0.078-0.316-0.049-0.418c-0.129-0.102-0.316-0.08-0.418,0.049
				l-5.381,6.789l-6-6c-0.115-0.115-0.303-0.115-0.42,0.002C5.772,52.435,5.749,52.567,5.797,52.677z"/>
		</g>
		<g>
			<path fill="#D5D2CA" d="M7.045,49.372c0.008,0.021,0.02,0.039,0.033,0.057l4.332,5.832c0.049,0.068,0.129,0.111,0.211,0.117
				c0.086,0.01,0.17-0.02,0.23-0.078l5.404-5.074c0.121-0.113,0.127-0.301,0.014-0.42c-0.111-0.121-0.301-0.125-0.42-0.014
				l-5.16,4.846l-4.135-5.564c-0.098-0.131-0.283-0.158-0.416-0.061C7.026,49.099,6.989,49.247,7.045,49.372z"/>
		</g>
		<g>
			<path fill="#D5D2CA" d="M7.065,45.302c0.006,0.016,0.014,0.029,0.023,0.045l4.025,6.047c0.047,0.07,0.123,0.117,0.207,0.131
				c0.082,0.012,0.166-0.014,0.234-0.068l5.658-4.789c0.125-0.105,0.143-0.293,0.033-0.42c-0.105-0.125-0.293-0.141-0.416-0.035
				l-5.408,4.574l-3.836-5.77c-0.094-0.137-0.277-0.172-0.414-0.082C7.049,45.017,7.006,45.173,7.065,45.302z"/>
		</g>
		<g>
			<path fill="#D5D2CA" d="M7.53,41.306c0.004,0.01,0.01,0.02,0.014,0.029l3.654,6.279c0.043,0.072,0.113,0.125,0.199,0.143
				c0.08,0.016,0.168-0.004,0.234-0.055l5.938-4.438c0.133-0.1,0.162-0.285,0.062-0.416c-0.1-0.133-0.285-0.158-0.418-0.061
				l-5.668,4.238l-3.486-5.99c-0.084-0.143-0.264-0.189-0.406-0.107C7.52,41.005,7.469,41.169,7.53,41.306z"/>
		</g>
		<g>
			<path fill="#D5D2CA" d="M8.27,37.837c0.002,0.006,0.004,0.01,0.006,0.014l3.26,6.492c0.039,0.076,0.105,0.133,0.189,0.154
				c0.08,0.021,0.166,0.008,0.238-0.039l6.201-4.064c0.137-0.09,0.178-0.277,0.086-0.412c-0.09-0.137-0.275-0.176-0.412-0.086
				l-5.922,3.883l-3.109-6.193c-0.072-0.148-0.252-0.207-0.398-0.133C8.266,37.522,8.206,37.692,8.27,37.837z"/>
		</g>
		<g>
			<path fill="#D5D2CA" d="M12.139,40.708c0.033,0.074,0.096,0.131,0.172,0.158c0.08,0.029,0.168,0.021,0.242-0.018l5.113-2.771
				c0.145-0.08,0.193-0.27,0.117-0.404c-0.076-0.145-0.258-0.197-0.4-0.119l-4.82,2.613l-1.996-4.979
				c-0.072-0.15-0.234-0.227-0.387-0.166c-0.154,0.062-0.229,0.234-0.168,0.387l2.123,5.289
				C12.137,40.7,12.139,40.704,12.139,40.708z"/>
		</g>
		<g>
			<path fill="#D5D2CA" d="M12.942,37.79c0.031,0.064,0.082,0.117,0.146,0.148c0.078,0.035,0.164,0.037,0.244,0.006l4.424-1.881
				c0.152-0.064,0.223-0.24,0.158-0.391c-0.074-0.16-0.238-0.223-0.391-0.158l-4.115,1.75l-1.24-4.197
				c-0.041-0.156-0.211-0.248-0.369-0.201c-0.156,0.047-0.246,0.211-0.199,0.369l1.33,4.518
				C12.936,37.765,12.938,37.778,12.942,37.79z"/>
		</g>
		<g>
			<path fill="#D5D2CA" d="M14.106,34.724c0.029,0.064,0.08,0.117,0.145,0.148c0.078,0.035,0.166,0.037,0.244,0.004l3.662-1.555
				c0.15-0.064,0.221-0.24,0.156-0.391c-0.076-0.164-0.238-0.221-0.389-0.158l-3.355,1.426l-1.008-3.42
				c-0.045-0.152-0.211-0.248-0.371-0.201c-0.156,0.047-0.246,0.213-0.199,0.369l1.104,3.74
				C14.096,34.7,14.102,34.712,14.106,34.724z"/>
		</g>
		<g>
			<path fill="#D5D2CA" d="M15.2,32.243c0.027,0.059,0.072,0.109,0.129,0.141c0.076,0.041,0.164,0.049,0.244,0.018l3.211-1.148
				c0.154-0.057,0.234-0.227,0.18-0.381c-0.045-0.141-0.227-0.236-0.381-0.18l-2.896,1.037l-0.684-2.93
				c-0.035-0.156-0.195-0.26-0.357-0.221c-0.158,0.037-0.258,0.195-0.223,0.355l0.76,3.256C15.186,32.208,15.192,32.226,15.2,32.243
				z"/>
		</g>
		<g>
			<path fill="#D5D2CA" d="M16.788,29.292c0.018,0.043,0.049,0.082,0.086,0.111c0.066,0.055,0.154,0.076,0.234,0.061l2.486-0.436
				c0.162-0.027,0.271-0.182,0.244-0.344c-0.031-0.162-0.184-0.27-0.348-0.242l-2.154,0.379l-0.125-2.137
				c-0.01-0.162-0.15-0.287-0.314-0.277s-0.289,0.148-0.279,0.314l0.143,2.467C16.764,29.224,16.772,29.259,16.788,29.292z"/>
		</g>
		<g>
			<path fill="#D5D2CA" d="M18.375,26.71c0.02,0.043,0.049,0.082,0.086,0.113c0.068,0.053,0.154,0.074,0.236,0.059l1.893-0.332
				c0.162-0.027,0.271-0.182,0.242-0.344c-0.029-0.166-0.182-0.27-0.344-0.242l-1.564,0.275l-0.092-1.549
				c-0.01-0.162-0.148-0.287-0.312-0.279c-0.164,0.01-0.289,0.15-0.279,0.314l0.109,1.881C18.352,26.644,18.36,26.679,18.375,26.71z
				"/>
		</g>
	</g>
	<g>
		<g>
			<path fill="#D5D2CA" d="M79.541,24.399c-0.047-0.062-0.094-0.125-0.143-0.186l-0.117-0.15c-0.101-0.129-0.287-0.152-0.417-0.051
				c-0.129,0.102-0.151,0.287-0.054,0.416c0,0,0.003,0,0.002,0.002l0.117,0.148c0.231,0.297,0.479,0.625,0.74,0.979
				c0.261,0.355,0.533,0.742,0.815,1.158c0.283,0.418,0.562,0.842,0.829,1.271c0.269,0.428,0.531,0.861,0.783,1.301
				c0.254,0.441,0.499,0.887,0.736,1.336c0.238,0.451,0.471,0.906,0.692,1.369c0.22,0.461,0.435,0.928,0.64,1.398
				c0.204,0.473,0.399,0.947,0.588,1.43c0.189,0.48,0.367,0.967,0.537,1.459c0.172,0.49,0.334,0.986,0.486,1.486
				c0.153,0.5,0.297,1.006,0.429,1.516c0.138,0.51,0.261,1.021,0.378,1.541c0.115,0.518,0.21,0.973,0.28,1.367
				c0.073,0.395,0.123,0.672,0.149,0.838l0.121,0.76c0.028,0.195,0.064,0.447,0.104,0.758c0.042,0.312,0.086,0.701,0.137,1.168
				c0.051,0.465,0.088,0.93,0.116,1.393c0.029,0.467,0.054,0.932,0.072,1.393s0.026,0.922,0.023,1.381
				c-0.004,0.461-0.01,0.92-0.022,1.381c-0.015,0.455-0.037,0.908-0.07,1.361c-0.034,0.457-0.071,0.91-0.111,1.361
				c-0.047,0.451-0.099,0.898-0.161,1.346c-0.064,0.447-0.13,0.893-0.203,1.338c-0.072,0.443-0.154,0.883-0.244,1.32
				c-0.092,0.441-0.188,0.879-0.289,1.316c-0.101,0.434-0.208,0.863-0.328,1.293c-0.118,0.43-0.245,0.859-0.373,1.285
				c-0.129,0.424-0.264,0.844-0.41,1.262c-0.145,0.422-0.299,0.84-0.452,1.256c-0.155,0.414-0.333,0.857-0.532,1.332
				c-0.201,0.475-0.356,0.828-0.464,1.061l-0.209,0.453c-0.072,0.148-0.008,0.326,0.142,0.396c0.148,0.068,0.326,0.004,0.397-0.145
				l0.209-0.455c0.108-0.236,0.267-0.596,0.472-1.08c0.205-0.482,0.386-0.934,0.543-1.355c0.155-0.418,0.308-0.84,0.455-1.266
				c0.149-0.426,0.289-0.854,0.42-1.287c0.129-0.432,0.254-0.863,0.377-1.299c0.12-0.438,0.23-0.875,0.334-1.318
				c0.102-0.441,0.198-0.883,0.29-1.328c0.095-0.445,0.179-0.895,0.253-1.346c0.071-0.447,0.139-0.9,0.203-1.352
				c0.065-0.457,0.117-0.912,0.161-1.371c0.045-0.457,0.081-0.914,0.114-1.373c0.033-0.463,0.058-0.926,0.072-1.393
				c0.011-0.461,0.02-0.926,0.021-1.391c0.004-0.469-0.003-0.938-0.022-1.406c-0.018-0.469-0.04-0.938-0.072-1.408
				c-0.03-0.471-0.066-0.945-0.119-1.42c-0.05-0.471-0.096-0.863-0.138-1.18c-0.04-0.316-0.076-0.574-0.107-0.771l-0.124-0.766
				c-0.023-0.166-0.073-0.451-0.146-0.85c-0.073-0.402-0.168-0.863-0.287-1.391c-0.117-0.523-0.244-1.047-0.379-1.562
				c-0.139-0.516-0.284-1.027-0.439-1.535c-0.153-0.51-0.316-1.012-0.49-1.512c-0.174-0.498-0.356-0.99-0.546-1.479
				c-0.192-0.488-0.39-0.971-0.601-1.451c-0.207-0.477-0.422-0.951-0.647-1.418c-0.227-0.469-0.458-0.932-0.7-1.387
				c-0.241-0.459-0.488-0.912-0.747-1.357c-0.26-0.445-0.522-0.887-0.796-1.322c-0.273-0.434-0.552-0.863-0.842-1.287
				c-0.288-0.424-0.564-0.816-0.827-1.176C79.936,24.919,79.734,24.649,79.541,24.399z"/>
		</g>
		<g>
			<path fill="#D5D2CA" d="M90.286,31.728c-0.025-0.035-0.06-0.066-0.103-0.086l-8.534-4.152c-0.076-0.037-0.162-0.041-0.241-0.008
				c-0.08,0.031-0.14,0.096-0.168,0.176l-3.209,9.133c-0.055,0.156,0.03,0.326,0.181,0.379c0.156,0.055,0.325-0.027,0.381-0.182
				l3.098-8.818l8.232,4.008c0.148,0.072,0.326,0.01,0.397-0.139C90.371,31.935,90.354,31.813,90.286,31.728z"/>
		</g>
		<g>
			<path fill="#D5D2CA" d="M91.533,36.31c-0.024-0.029-0.05-0.053-0.082-0.072l-7.527-4.592c-0.073-0.045-0.16-0.057-0.241-0.031
				c-0.083,0.025-0.149,0.082-0.186,0.16l-3.771,8.17c-0.068,0.148,0,0.326,0.146,0.395c0.148,0.068,0.326,0.004,0.396-0.145
				l3.63-7.867l7.243,4.418c0.14,0.084,0.323,0.039,0.408-0.102C91.615,36.538,91.605,36.403,91.533,36.31z"/>
		</g>
		<g>
			<path fill="#D5D2CA" d="M91.098,39.813c-0.013-0.018-0.028-0.033-0.046-0.047l-5.584-4.646c-0.063-0.055-0.15-0.078-0.232-0.066
				c-0.085,0.014-0.16,0.061-0.206,0.133l-4.058,6.203c-0.089,0.139-0.051,0.322,0.087,0.412s0.321,0.051,0.411-0.086l3.873-5.926
				l5.329,4.434c0.126,0.104,0.312,0.088,0.419-0.039C91.181,40.075,91.181,39.923,91.098,39.813z"/>
		</g>
		<g>
			<path fill="#D5D2CA" d="M92.039,43.772c-0.01-0.012-0.021-0.023-0.034-0.037l-5.337-4.928c-0.062-0.059-0.146-0.086-0.23-0.078
				c-0.084,0.01-0.159,0.053-0.213,0.121l-4.369,5.988c-0.098,0.133-0.07,0.318,0.065,0.416c0.133,0.096,0.317,0.066,0.413-0.066
				l4.177-5.717l5.089,4.701c0.122,0.111,0.311,0.104,0.423-0.018C92.12,44.048,92.126,43.886,92.039,43.772z"/>
		</g>
		<g>
			<path fill="#D5D2CA" d="M92.529,47.767c-0.008-0.008-0.016-0.016-0.021-0.023l-5.031-5.242c-0.059-0.061-0.139-0.096-0.226-0.092
				c-0.083,0.002-0.163,0.043-0.216,0.107l-4.725,5.713c-0.105,0.127-0.09,0.314,0.037,0.42c0.127,0.104,0.314,0.084,0.42-0.041
				l4.511-5.455l4.8,5.002c0.113,0.117,0.301,0.121,0.42,0.008C92.609,48.058,92.62,47.886,92.529,47.767z"/>
		</g>
		<g>
			<path fill="#D5D2CA" d="M92.625,51.312c-0.003-0.004-0.004-0.006-0.008-0.01l-4.698-5.541c-0.055-0.066-0.132-0.105-0.22-0.105
				c-0.084-0.004-0.163,0.029-0.222,0.092l-5.068,5.412c-0.113,0.119-0.108,0.311,0.013,0.422c0.119,0.111,0.309,0.105,0.419-0.016
				l4.841-5.168l4.482,5.287c0.104,0.127,0.294,0.143,0.419,0.035C92.704,51.616,92.722,51.437,92.625,51.312z"/>
		</g>
		<g>
			<path fill="#D5D2CA" d="M88.191,49.435c-0.051-0.064-0.126-0.105-0.207-0.113c-0.084-0.01-0.167,0.018-0.229,0.074l-4.316,3.898
				c-0.122,0.111-0.125,0.307-0.021,0.418c0.109,0.123,0.299,0.133,0.418,0.023l4.069-3.676l3.112,4.369
				c0.105,0.127,0.282,0.164,0.416,0.068c0.135-0.096,0.165-0.281,0.071-0.414l-3.31-4.641
				C88.193,49.44,88.191,49.438,88.191,49.435z"/>
		</g>
		<g>
			<path fill="#D5D2CA" d="M88.097,52.46c-0.045-0.057-0.108-0.096-0.179-0.111c-0.083-0.016-0.168,0.002-0.237,0.053l-3.855,2.871
				c-0.134,0.098-0.162,0.285-0.063,0.416c0.109,0.139,0.285,0.16,0.417,0.062l3.588-2.672l2.193,3.789
				c0.077,0.141,0.265,0.189,0.406,0.107c0.143-0.082,0.191-0.266,0.107-0.406l-2.358-4.076
				C88.109,52.481,88.104,52.47,88.097,52.46z"/>
		</g>
		<g>
			<path fill="#D5D2CA" d="M87.688,55.714c-0.044-0.055-0.104-0.096-0.176-0.111c-0.084-0.016-0.169,0.004-0.237,0.055l-3.192,2.375
				c-0.132,0.096-0.159,0.283-0.061,0.416c0.111,0.139,0.282,0.158,0.415,0.061l2.926-2.176l1.784,3.086
				c0.079,0.139,0.263,0.191,0.408,0.107c0.142-0.082,0.189-0.264,0.106-0.404l-1.953-3.377
				C87.703,55.735,87.695,55.724,87.688,55.714z"/>
		</g>
		<g>
			<path fill="#D5D2CA" d="M87.208,58.382c-0.04-0.051-0.096-0.09-0.158-0.105c-0.084-0.021-0.17-0.01-0.24,0.039l-2.851,1.873
				c-0.137,0.09-0.174,0.275-0.085,0.412c0.076,0.125,0.275,0.176,0.413,0.086l2.57-1.691l1.354,2.686
				c0.07,0.145,0.252,0.207,0.399,0.133c0.144-0.074,0.204-0.252,0.131-0.4l-1.504-2.984C87.23,58.413,87.22,58.397,87.208,58.382z"
				/>
		</g>
		<g>
			<path fill="#D5D2CA" d="M86.361,61.624c-0.027-0.037-0.067-0.068-0.109-0.088c-0.078-0.037-0.168-0.037-0.242-0.004l-2.313,1.01
				c-0.151,0.064-0.221,0.24-0.156,0.391c0.068,0.152,0.241,0.219,0.394,0.152l2.005-0.873l0.625,2.045
				c0.05,0.156,0.215,0.244,0.371,0.197c0.159-0.049,0.246-0.215,0.197-0.371l-0.72-2.365C86.4,61.685,86.385,61.651,86.361,61.624z
				"/>
		</g>
		<g>
			<path fill="#D5D2CA" d="M85.427,64.507c-0.03-0.037-0.067-0.068-0.109-0.088c-0.079-0.035-0.17-0.037-0.245-0.002l-1.763,0.768
				c-0.15,0.066-0.22,0.24-0.153,0.393c0.067,0.152,0.241,0.219,0.392,0.152l1.456-0.637l0.453,1.484
				c0.048,0.156,0.212,0.246,0.371,0.197c0.155-0.047,0.243-0.213,0.196-0.371l-0.549-1.803
				C85.464,64.567,85.449,64.534,85.427,64.507z"/>
		</g>
	</g>
</g>
</svg>
