<?xml version="1.0" encoding="utf-8"?>
<!-- Generator: Adobe Illustrator 16.0.0, SVG Export Plug-In . SVG Version: 6.00 Build 0)  -->
<!DOCTYPE svg PUBLIC "-//W3C//DTD SVG 1.1//EN" "http://www.w3.org/Graphics/SVG/1.1/DTD/svg11.dtd">
<svg version="1.1" id="Layer_1" xmlns="http://www.w3.org/2000/svg" xmlns:xlink="http://www.w3.org/1999/xlink" x="0px" y="0px"
	 width="324.941px" height="88.582px" viewBox="0 0 324.941 88.582" enable-background="new 0 0 324.941 88.582"
	 xml:space="preserve">
<g>
	<path fill="#FFFFFF" d="M304.676,63.309v0.01l-18.98,5.131l-5.38,18.721c-5.489-6.66-13.93-13.061-24.869-18.691
		c-3.57-1.84-7.33-3.559-11.261-5.16l19.521,2.391l9.63-26.229C286.275,46.42,296.796,54.459,304.676,63.309z"/>
	<path fill="#FFFFFF" d="M263.706,65.709l-19.521-2.391c-0.01,0-0.02-0.01-0.03-0.01l2.57-6.668
		C252.956,59.35,258.655,62.389,263.706,65.709z"/>
	<path fill="#FFFFFF" d="M82.196,63.309c-0.011,0-0.021,0.01-0.03,0.01l-19.521,2.391c5.051-3.32,10.75-6.359,16.98-9.068
		L82.196,63.309z"/>
	<path fill="#FFFFFF" d="M62.646,65.709l19.521-2.391c-3.931,1.602-7.69,3.32-11.271,5.16C59.976,74.109,51.536,80.5,46.036,87.16
		l-5.381-18.711l-18.979-5.131l-0.01-0.01c7.89-8.85,18.409-16.889,31.35-23.829L62.646,65.709z"/>
	<path fill="#FFFFFF" d="M273.336,39.48l-9.63,26.229c-5.051-3.32-10.75-6.359-16.98-9.068c-22.76-9.941-52.58-15.64-83.55-15.64
		c-19.72,0-38.979,2.31-56.24,6.548c-9.85,2.422-19.05,5.48-27.31,9.092c-6.23,2.709-11.93,5.748-16.98,9.068l-9.63-26.229
		l-4.42-12.03C63.516,19,81.245,12.39,100.716,7.89c19.46-4.5,40.641-6.89,62.46-6.89c43.63,0,84.75,9.56,114.58,26.449
		L273.336,39.48z"/>
</g>
<g>
	<path fill="none" stroke="#D5D2CA" stroke-width="2" stroke-linecap="round" stroke-linejoin="round" stroke-miterlimit="10" d="
		M46.036,87.16l-5.381-18.711l-18.979-5.131l-0.01-0.01c7.89-8.85,18.409-16.889,31.35-23.829"/>
	
		<polygon fill="none" stroke="#D5D2CA" stroke-width="2" stroke-linecap="round" stroke-linejoin="round" stroke-miterlimit="10" points="
		46.036,87.16 46.026,87.17 46.036,87.17 	"/>
	<path fill="none" stroke="#D5D2CA" stroke-width="2" stroke-linecap="round" stroke-linejoin="round" stroke-miterlimit="10" d="
		M82.196,63.309c-0.011,0-0.021,0.01-0.03,0.01c-3.931,1.602-7.69,3.32-11.271,5.16C59.976,74.109,51.536,80.5,46.036,87.16"/>
	
		<polyline fill="none" stroke="#D5D2CA" stroke-width="2" stroke-linecap="round" stroke-linejoin="round" stroke-miterlimit="10" points="
		79.626,56.629 79.626,56.641 82.196,63.309 82.196,63.318 82.166,63.318 62.646,65.709 	"/>
	<path fill="none" stroke="#D5D2CA" stroke-width="2" stroke-linecap="round" stroke-linejoin="round" stroke-miterlimit="10" d="
		M244.155,63.309c0.011,0,0.021,0.01,0.03,0.01c3.931,1.602,7.69,3.32,11.261,5.16c10.939,5.631,19.38,12.031,24.869,18.691
		l5.38-18.721l18.98-5.131v-0.01c-7.88-8.85-18.4-16.889-31.34-23.829"/>
	
		<polyline fill="none" stroke="#D5D2CA" stroke-width="2" stroke-linecap="round" stroke-linejoin="round" stroke-miterlimit="10" points="
		246.726,56.629 246.726,56.641 244.155,63.309 244.155,63.318 244.186,63.318 263.706,65.709 	"/>
	<path fill="none" stroke="#D5D2CA" stroke-width="2" stroke-linecap="round" stroke-linejoin="round" stroke-miterlimit="10" d="
		M163.176,1c43.63,0,84.75,9.56,114.58,26.449l-4.42,12.03l-9.63,26.229c-5.051-3.32-10.75-6.359-16.98-9.068
		c-22.76-9.941-52.58-15.64-83.55-15.64c-19.72,0-38.979,2.31-56.24,6.548c-9.85,2.422-19.05,5.48-27.31,9.092
		c-6.23,2.709-11.93,5.748-16.98,9.068l-9.63-26.229l-4.42-12.03C63.516,19,81.245,12.39,100.716,7.89
		C120.176,3.39,141.356,1,163.176,1"/>
</g>
<g>
	<path fill="#D5D2CA" d="M119.17,16.651c4.239-0.699,7.021,0.982,7.631,4.676c0.641,3.885-1.427,6.537-5.666,7.236l-3.008,0.496
		l0.77,4.664l-4.216,0.695l-2.734-16.576L119.17,16.651z M117.58,25.743l2.794-0.461c1.848-0.305,2.761-1.404,2.472-3.156
		c-0.285-1.729-1.495-2.43-3.343-2.125l-2.794,0.461L117.58,25.743z"/>
	<path fill="#D5D2CA" d="M137.547,28.081l-0.97,3.186l-4.379,0.354l5.869-17.333l4.379-0.354l8.414,16.176l-4.546,0.369l-1.446-2.99
		L137.547,28.081z M140.468,18.355l-1.938,6.395l4.833-0.392L140.468,18.355z"/>
	<path fill="#D5D2CA" d="M164.912,13.202c3.769,0.018,6.161,1.66,6.149,4.229c-0.008,1.775-1.118,3.188-2.896,3.684
		c2.11,0.418,3.447,2.08,3.438,4.264c-0.013,2.855-2.518,4.645-6.477,4.627l-8.233-0.036l0.075-16.802L164.912,13.202z
		 M161.155,26.7l3.457,0.015c1.584,0.007,2.57-0.685,2.576-1.885c0.005-1.128-0.977-1.829-2.561-1.835l-3.456-0.016L161.155,26.7z
		 M161.186,19.907l3.456,0.016c1.248,0.005,2.043-0.664,2.049-1.744c0.004-1.08-0.785-1.707-2.033-1.713l-3.456-0.016
		L161.186,19.907z"/>
	<path fill="#D5D2CA" d="M190.21,27.684l-0.271,3.564l-11.364-0.862l1.271-16.748l4.26,0.323l-1.001,13.184L190.21,27.684z"/>
	<path fill="#D5D2CA" d="M214.593,26.329c-0.779,4.834-5.209,7.89-10.352,7.062c-5.118-0.824-8.369-5.092-7.588-9.949
		c0.779-4.834,5.193-7.795,10.312-6.971C212.107,17.299,215.366,21.518,214.593,26.329z M200.963,24.159
		c-0.45,2.797,1.358,5.301,3.895,5.709c2.56,0.412,4.944-1.416,5.395-4.213s-1.248-5.233-3.808-5.646
		C203.886,19.598,201.413,21.364,200.963,24.159z"/>
</g>
<rect y="0.556" fill="none" width="324.941" height="88.026"/>
</svg>
