<?xml version="1.0" encoding="utf-8"?>
<!-- Generator: Adobe Illustrator 16.0.0, SVG Export Plug-In . SVG Version: 6.00 Build 0)  -->
<!DOCTYPE svg PUBLIC "-//W3C//DTD SVG 1.1//EN" "http://www.w3.org/Graphics/SVG/1.1/DTD/svg11.dtd">
<svg version="1.1" id="Layer_1" xmlns="http://www.w3.org/2000/svg" xmlns:xlink="http://www.w3.org/1999/xlink" x="0px" y="0px"
	 width="326.939px" height="338.061px" viewBox="0 0 326.939 338.061" enable-background="new 0 0 326.939 338.061"
	 xml:space="preserve">
<g>
	<path fill="#FFFFFF" d="M215.26,107.9c5.9,1.12,9.771,6.812,8.65,12.71c-1.131,5.893-6.82,9.763-12.71,8.643
		c-5.891-1.12-9.761-6.82-8.641-12.7C203.68,110.65,209.37,106.78,215.26,107.9z M217.97,119.48c0.5-2.62-1.222-5.14-3.842-5.64
		c-0.88-0.17-1.75-0.08-2.54,0.2c-0.26,0.09-0.51,0.21-0.738,0.34c-0.12,0.07-0.24,0.14-0.352,0.22
		c-0.229,0.15-0.438,0.33-0.63,0.521c-0.2,0.188-0.381,0.39-0.54,0.617c-0.24,0.343-0.438,0.713-0.601,1.11
		c-0.109,0.26-0.189,0.53-0.24,0.82c-0.029,0.147-0.05,0.3-0.06,0.45c-0.142,1.438,0.39,2.83,1.35,3.817
		c0.181,0.2,0.391,0.38,0.61,0.53c0,0,0,0.01,0.01,0.01c0.438,0.33,0.938,0.58,1.5,0.73c0.141,0.05,0.28,0.08,0.431,0.107
		c0.149,0.03,0.3,0.053,0.449,0.062C215.23,123.61,217.5,121.95,217.97,119.48z"/>
	<path fill="#FFFFFF" d="M228.33,116.91c1.102,2.54,1.689,5.31,1.67,8.18h-0.01c-0.761,1.95-1.811,3.74-3.07,5.32
		c-1.198,1.5-2.601,2.81-4.148,3.897c-2,1.41-4.25,2.46-6.649,3.08c-2.811,0.72-5.83,0.85-8.87,0.271
		c-9.778-1.86-16.58-10.45-16.528-20.062c3.479-8.97,12.96-14.46,22.75-12.6C220.34,106.31,225.75,110.94,228.33,116.91z
		 M215.26,107.9c-5.89-1.12-11.578,2.75-12.698,8.65c-1.12,5.88,2.75,11.58,8.641,12.7c5.89,1.12,11.579-2.75,12.71-8.643
		C225.03,114.71,221.16,109.02,215.26,107.9z"/>
	<path fill="#FFFFFF" d="M116.49,119.48c0.19,1.01,0.69,1.88,1.381,2.55c0.09,0.103,0.189,0.19,0.3,0.28
		c0.96,0.78,2.21,1.19,3.512,1.07c0.148-0.01,0.3-0.03,0.448-0.062c0.722-0.14,1.382-0.43,1.939-0.84
		c0.221-0.16,0.431-0.34,0.62-0.54c1.061-1.09,1.59-2.66,1.28-4.26c-0.19-1.01-0.69-1.89-1.37-2.56c-0.2-0.19-0.41-0.37-0.642-0.521
		c-0.108-0.08-0.221-0.147-0.34-0.22c-0.24-0.13-0.49-0.25-0.75-0.34c-0.78-0.28-1.66-0.37-2.54-0.2
		C117.71,114.34,115.99,116.86,116.49,119.48z M131.91,116.55c1.119,5.88-2.75,11.58-8.648,12.7c-5.892,1.12-11.58-2.75-12.7-8.643
		c-1.12-5.897,2.75-11.59,8.641-12.71C125.1,106.78,130.79,110.65,131.91,116.55z"/>
	<path fill="#FFFFFF" d="M131.91,116.55c-1.12-5.9-6.811-9.771-12.71-8.65c-5.891,1.12-9.761,6.812-8.641,12.71
		c1.12,5.893,6.811,9.763,12.698,8.643C129.16,128.13,133.03,122.43,131.91,116.55z M104.18,134.31
		c-1.552-1.09-2.95-2.397-4.15-3.897c-1.271-1.58-2.31-3.37-3.069-5.32h-0.01c-0.021-2.87,0.569-5.64,1.67-8.18
		c2.58-5.973,7.979-10.603,14.859-11.91c9.79-1.86,19.271,3.63,22.74,12.6c0.06,9.61-6.74,18.2-16.53,20.062
		c-3.04,0.578-6.05,0.447-8.859-0.271C108.43,136.77,106.18,135.72,104.18,134.31z"/>
	<path fill="#FFFFFF" d="M181.54,235.05l0.029,0.051c0,3.42-5.271,6.43-12.979,7.43l-1.488-2.42l-3.842-6.229
		c8.15,0,14.762-2.479,14.762-5.54L181.54,235.05z"/>
	<path fill="#FFFFFF" d="M163.26,233.88l3.842,6.229c-2.512,0.263-5.149,0.263-7.67,0L163.26,233.88z"/>
	<path fill="#FFFFFF" d="M148.47,228.34c0,3.061,6.608,5.54,14.771,5.54c0.01,0,0.01,0,0.021,0l-3.83,6.229h-0.012l-1.488,2.433
		c-7.729-1-13.012-4.021-13.012-7.439L148.47,228.34z"/>
	<path fill="#FFFFFF" d="M184.33,235.351c5.72,0.67,11.37,1.609,16.932,2.812c7.27,1.56,14.398,3.56,21.35,5.987
		c13.61,4.739,26.54,11.093,38.53,18.859c10.22,6.61,19.738,14.25,28.43,22.801c4.54,4.47,8.851,9.189,12.91,14.149
		c9.2,11.22,17.108,23.647,23.46,37.101H1c6.359-13.45,14.271-25.87,23.46-37.101c4.069-4.96,8.38-9.683,12.92-14.149
		c8.689-8.561,18.21-16.2,28.42-22.811c11.99-7.771,24.922-14.11,38.54-18.853c6.95-2.431,14.08-4.431,21.352-5.987
		c5.561-1.2,11.21-2.143,16.931-2.803c0.76-0.101,1.529-0.181,2.3-0.26c0,3.42,5.28,6.439,13.012,7.439l1.488-2.433h0.012
		c2.521,0.263,5.158,0.263,7.67,0l1.488,2.42c7.711-1,12.979-4.01,12.979-7.43l-0.029-0.051
		C182.47,235.14,183.4,235.25,184.33,235.351z M305.3,328.34c0-0.5-0.398-0.899-0.898-0.899s-0.91,0.399-0.91,0.899
		s0.41,0.907,0.91,0.907S305.3,328.84,305.3,328.34z M300.06,305.83c0-0.513-0.41-0.91-0.91-0.91s-0.91,0.397-0.91,0.91
		c0,0.5,0.41,0.897,0.91,0.897S300.06,306.33,300.06,305.83z M280.22,288.12c0-0.513-0.4-0.91-0.91-0.91
		c-0.5,0-0.899,0.397-0.899,0.91c0,0.487,0.399,0.897,0.899,0.897C279.82,289.021,280.22,288.61,280.22,288.12z M277.31,324.26
		c0-0.5-0.41-0.899-0.91-0.899s-0.91,0.399-0.91,0.899s0.41,0.91,0.91,0.91S277.31,324.76,277.31,324.26z M272.64,305.83
		c0-0.513-0.41-0.91-0.91-0.91s-0.899,0.397-0.899,0.91c0,0.5,0.399,0.897,0.899,0.897S272.64,306.33,272.64,305.83z M256.89,275.87
		c0-0.5-0.41-0.91-0.91-0.91s-0.899,0.41-0.899,0.91s0.399,0.907,0.899,0.907S256.89,276.37,256.89,275.87z M241.73,305.83
		c0-0.513-0.41-0.91-0.91-0.91s-0.909,0.397-0.909,0.91c0,0.5,0.409,0.897,0.909,0.897S241.73,306.33,241.73,305.83z
		 M234.47,252.771c0-0.5-0.41-0.91-0.91-0.91s-0.91,0.41-0.91,0.91s0.41,0.899,0.91,0.899S234.47,253.271,234.47,252.771z
		 M228.89,327.18c0-0.5-0.399-0.909-0.899-0.909c-0.511,0-0.91,0.409-0.91,0.909s0.399,0.897,0.91,0.897
		C228.49,328.077,228.89,327.68,228.89,327.18z M227.86,274.17c0-0.5-0.409-0.899-0.909-0.899s-0.9,0.399-0.9,0.899
		c0,0.51,0.4,0.91,0.9,0.91S227.86,274.68,227.86,274.17z M206.67,245.25c0-0.5-0.41-0.91-0.91-0.91s-0.898,0.41-0.898,0.91
		s0.398,0.91,0.898,0.91S206.67,245.75,206.67,245.25z M201.43,280.33c0-0.513-0.41-0.91-0.91-0.91s-0.899,0.397-0.899,0.91
		c0,0.5,0.399,0.897,0.899,0.897S201.43,280.83,201.43,280.33z M199.15,297.63c0-0.5-0.399-0.899-0.91-0.899
		c-0.5,0-0.899,0.399-0.899,0.899s0.399,0.91,0.899,0.91C198.75,298.54,199.15,298.13,199.15,297.63z M196.81,305.83
		c0-0.513-0.399-0.91-0.91-0.91c-0.5,0-0.899,0.397-0.899,0.91c0,0.5,0.399,0.897,0.899,0.897
		C196.41,306.73,196.81,306.33,196.81,305.83z M195.64,324.26c0-0.5-0.399-0.899-0.899-0.899s-0.91,0.399-0.91,0.899
		s0.41,0.91,0.91,0.91S195.64,324.76,195.64,324.26z M191.63,261.65c0-0.5-0.398-0.91-0.898-0.91s-0.91,0.41-0.91,0.91
		s0.41,0.91,0.91,0.91S191.63,262.15,191.63,261.65z M172.9,277.04c0-0.5-0.41-0.91-0.91-0.91s-0.909,0.41-0.909,0.91
		s0.409,0.897,0.909,0.897S172.9,277.54,172.9,277.04z M169.3,251.86c0-0.51-0.398-0.907-0.898-0.907
		c-0.51,0-0.909,0.397-0.909,0.907c0,0.5,0.399,0.899,0.909,0.899C168.9,252.76,169.3,252.36,169.3,251.86z M162.98,326.59
		c0-0.5-0.41-0.899-0.91-0.899s-0.899,0.399-0.899,0.899c0,0.511,0.399,0.907,0.899,0.907S162.98,327.101,162.98,326.59z
		 M161.1,294.67c0-0.5-0.41-0.899-0.91-0.899s-0.899,0.399-0.899,0.899s0.399,0.91,0.899,0.91S161.1,295.17,161.1,294.67z
		 M154.04,275.771c0-0.5-0.41-0.91-0.91-0.91s-0.908,0.41-0.908,0.91s0.408,0.909,0.908,0.909S154.04,276.271,154.04,275.771z
		 M142.19,252.771c0-0.5-0.41-0.91-0.91-0.91s-0.899,0.41-0.899,0.91s0.399,0.899,0.899,0.899S142.19,253.271,142.19,252.771z
		 M135.81,296.271c0-0.5-0.41-0.91-0.91-0.91s-0.899,0.41-0.899,0.91s0.399,0.899,0.899,0.899S135.81,296.771,135.81,296.271z
		 M133.23,316.101c0-0.5-0.399-0.91-0.899-0.91s-0.91,0.41-0.91,0.91s0.41,0.909,0.91,0.909S133.23,316.601,133.23,316.101z
		 M131.94,242.29c0-0.5-0.41-0.91-0.91-0.91s-0.909,0.41-0.909,0.91s0.409,0.91,0.909,0.91S131.94,242.79,131.94,242.29z
		 M131.48,268.021c0-0.49-0.41-0.897-0.91-0.897s-0.899,0.407-0.899,0.897c0,0.51,0.399,0.909,0.899,0.909
		S131.48,268.53,131.48,268.021z M120.54,254.13c0-0.5-0.398-0.899-0.898-0.899s-0.91,0.399-0.91,0.899s0.41,0.91,0.91,0.91
		S120.54,254.63,120.54,254.13z M118.95,281.69c0-0.5-0.41-0.91-0.91-0.91s-0.898,0.41-0.898,0.91s0.398,0.91,0.898,0.91
		S118.95,282.19,118.95,281.69z M118.65,323.101c0-0.5-0.399-0.91-0.91-0.91c-0.5,0-0.899,0.41-0.899,0.91s0.399,0.898,0.899,0.898
		C118.25,323.997,118.65,323.601,118.65,323.101z M98.44,256.41c0-0.5-0.399-0.91-0.899-0.91c-0.511,0-0.91,0.41-0.91,0.91
		s0.399,0.907,0.91,0.907C98.04,257.32,98.44,256.91,98.44,256.41z M92.52,302.19c0-0.5-0.41-0.91-0.91-0.91s-0.909,0.41-0.909,0.91
		s0.409,0.899,0.909,0.899S92.52,302.69,92.52,302.19z M91.61,276.68c0-0.5-0.409-0.909-0.909-0.909s-0.91,0.409-0.91,0.909
		s0.41,0.91,0.91,0.91S91.61,277.18,91.61,276.68z M85.4,325.43c0-0.5-0.399-0.909-0.899-0.909s-0.91,0.409-0.91,0.909
		s0.41,0.91,0.91,0.91S85.4,325.93,85.4,325.43z M81.35,281.24c0-0.5-0.399-0.907-0.899-0.907c-0.511,0-0.91,0.407-0.91,0.907
		s0.399,0.899,0.91,0.899C80.95,282.14,81.35,281.74,81.35,281.24z M62.67,272.351c0-0.5-0.41-0.897-0.91-0.897
		s-0.898,0.397-0.898,0.897s0.398,0.909,0.898,0.909S62.67,272.851,62.67,272.351z M61.76,293.76c0-0.5-0.408-0.909-0.908-0.909
		s-0.91,0.409-0.91,0.909s0.41,0.91,0.91,0.91S61.76,294.26,61.76,293.76z M55.65,315.521c0-0.5-0.399-0.91-0.899-0.91
		s-0.91,0.41-0.91,0.91s0.41,0.899,0.91,0.899S55.65,316.021,55.65,315.521z M36.99,305.83c0-0.513-0.41-0.91-0.91-0.91
		s-0.898,0.397-0.898,0.91c0,0.5,0.398,0.897,0.898,0.897S36.99,306.33,36.99,305.83z M24.16,323.68c0-0.5-0.41-0.909-0.91-0.909
		s-0.91,0.409-0.91,0.909s0.41,0.91,0.91,0.91S24.16,324.18,24.16,323.68z"/>
	<path fill="#FFFFFF" d="M81.55,78.8v56.51l-3.47,15.5c-0.84,3.771-1.91,7.49-3.188,11.143c-3.58,10.157-3.28,21.277,0.851,31.229
		c5.771,13.91,4.949,29.681-2.211,42.931c-4.49,8.301-7.13,17.471-7.73,26.891c-10.21,6.607-19.729,14.25-28.42,22.811
		c-3.93-20.381,2.189-41.41,16.439-56.5c10.46-11.08,11.75-27.96,3.101-40.5c-5.641-8.188-5.42-19.067,0.54-27.021
		c5.062-6.75,8.63-14.48,10.479-22.7L81.55,78.8z"/>
	<path fill="#FFFFFF" d="M81.55,135.31c0,14.97,4.021,29.01,11.04,41.09c-2.76,11.399-0.528,23.433,6.132,33.08
		c6.97,10.13,9.04,22.853,5.618,34.67C90.72,248.89,77.79,255.23,65.8,263c0.602-9.42,3.24-18.59,7.729-26.893
		c7.16-13.25,7.979-29.021,2.211-42.931c-4.131-9.949-4.431-21.069-0.851-31.229c1.278-3.648,2.351-7.368,3.188-11.141L81.55,135.31
		z"/>
	<path fill="#FFFFFF" d="M119.2,216.95c3.859,6.438,6.079,13.72,6.489,21.21c-7.271,1.56-14.399,3.56-21.352,5.987
		c3.42-11.817,1.352-24.54-5.618-34.67c-6.66-9.647-8.892-21.681-6.132-33.08c5.57,9.603,13.052,17.973,21.91,24.59
		C114.68,206.62,116.3,212.12,119.2,216.95z"/>
	<path fill="#FFFFFF" d="M142.62,235.351v0.01c-5.721,0.66-11.37,1.603-16.931,2.803c-0.41-7.49-2.63-14.771-6.489-21.21
		c-2.9-4.83-4.521-10.33-4.7-15.961c5.399,4.028,11.319,7.421,17.642,10.028v0.01c0.908,3.562,2.351,6.973,4.26,10.12
		C139.1,225.58,141.19,230.36,142.62,235.351z"/>
	<path fill="#FFFFFF" d="M142.62,235.351c-1.431-4.99-3.521-9.771-6.221-14.2c-1.91-3.147-3.352-6.561-4.26-10.12v-0.01
		c5.188,2.159,10.658,3.79,16.33,4.84v12.479l-3.552,6.761c-0.771,0.079-1.54,0.159-2.3,0.26L142.62,235.351L142.62,235.351z"/>
	<path fill="#FFFFFF" d="M178.02,228.3c0,0.021,0,0.03,0,0.04c0,3.061-6.609,5.54-14.76,5.54c-0.012,0-0.012,0-0.021,0
		c-8.16,0-14.771-2.479-14.771-5.54v-12.48c4.858,0.899,9.88,1.37,15,1.37c4.97,0,9.828-0.438,14.55-1.29v0.013L178.02,228.3
		L178.02,228.3z"/>
	<path fill="#FFFFFF" d="M194.81,211.021v0.01c-0.92,3.562-2.359,6.973-4.271,10.12c-2.7,4.433-4.79,9.21-6.21,14.2
		c-0.931-0.101-1.858-0.211-2.79-0.301l-3.521-6.71c0-0.01,0-0.021,0-0.04v-12.35v-0.013C183.86,214.9,189.48,213.23,194.81,211.021
		z"/>
	<path fill="#FFFFFF" d="M212.45,200.99c-0.19,5.633-1.811,11.133-4.7,15.963c-3.858,6.438-6.09,13.72-6.49,21.21
		c-5.56-1.2-11.21-2.143-16.93-2.812c1.42-4.99,3.51-9.771,6.21-14.2c1.91-3.147,3.352-6.561,4.271-10.12v-0.01
		C201.13,208.4,207.05,205.021,212.45,200.99z"/>
	<path fill="#FFFFFF" d="M234.36,176.4c2.761,11.399,0.53,23.433-6.13,33.08c-6.979,10.13-9.04,22.853-5.62,34.67
		c-6.949-2.431-14.08-4.431-21.352-5.987c0.4-7.49,2.632-14.771,6.49-21.21c2.892-4.83,4.51-10.33,4.7-15.963
		C221.31,194.37,228.79,186,234.36,176.4z"/>
	<path fill="#FFFFFF" d="M261.15,263l-0.01,0.01c-11.99-7.771-24.92-14.12-38.53-18.859c-3.42-11.817-1.359-24.54,5.62-34.67
		c6.66-9.647,8.891-21.681,6.13-33.08c7.021-12.08,11.04-26.12,11.04-41.09l3.471,15.5c0.84,3.771,1.909,7.49,3.189,11.143
		c3.58,10.157,3.271,21.277-0.852,31.229c-5.771,13.91-4.96,29.681,2.21,42.931C257.91,244.41,260.55,253.58,261.15,263z"/>
	<path fill="#FFFFFF" d="M245.38,78.76h0.012l13.62,60.33c1.85,8.22,5.42,15.95,10.479,22.7c5.96,7.947,6.18,18.83,0.529,27.021
		c-8.642,12.54-7.352,29.42,3.108,40.5c14.25,15.09,20.359,36.119,16.439,56.5c-8.689-8.551-18.21-16.188-28.43-22.801l0.01-0.01
		c-0.602-9.42-3.239-18.59-7.729-26.893c-7.17-13.25-7.979-29.021-2.21-42.931c4.12-9.949,4.432-21.069,0.852-31.229
		c-1.28-3.647-2.352-7.367-3.189-11.14l-3.471-15.5L245.38,78.76z"/>
	<path fill="#FFFFFF" d="M245.38,78.76c-5.158,1.17-10.59,1.8-16.188,1.8c-34.88,0-63.16-24.22-63.16-54.1
		C185.4,52.8,213.54,71.35,245.38,78.76z"/>
	<path fill="#FFFFFF" d="M245.39,78.76h-0.012c-31.84-7.41-59.979-25.96-79.351-52.3V14.03C193.35,34.53,219.82,56.11,245.39,78.76z
		"/>
	<path fill="#FFFFFF" d="M245.39,78.76c-25.57-22.65-52.04-44.23-79.36-64.73V6.22c40.341,4.27,74.311,32.06,86.471,70.76
		l16.75,56.19l0.38,2.05c1.2,6.56,4.12,12.7,8.45,17.78c8.479,9.95,10.771,23.777,5.932,35.93c-6.48,16.312-1.19,34.94,12.89,45.4
		c1.438,1.08,2.82,2.237,4.12,3.479c17.568,16.76,18.221,44.579,1.46,62.149c-4.062-4.96-8.37-9.683-12.91-14.149
		c3.921-20.381-2.189-41.41-16.439-56.5c-10.46-11.08-11.75-27.96-3.108-40.5c5.648-8.188,5.431-19.07-0.529-27.021
		c-5.061-6.75-8.631-14.48-10.479-22.7L245.39,78.76z"/>
	<path fill="#FFFFFF" d="M257.65,69.88l11.601,63.29L252.5,76.98c-12.16-38.7-46.13-66.49-86.471-70.76V1h10.74
		c40.8,0,74.641,29.84,80.891,68.88H257.65z"/>
	<path fill="#FFFFFF" d="M160.91,1v5.22c-40.34,4.27-74.3,32.06-86.46,70.76L57.7,133.17l11.6-63.29h-0.01
		C75.53,30.84,109.37,1,150.18,1H160.91z"/>
	<path fill="#FFFFFF" d="M160.91,6.22v7.81c-27.32,20.5-53.78,42.08-79.351,64.73h-0.012v0.04l-13.608,60.29
		c-1.852,8.22-5.42,15.95-10.479,22.7c-5.96,7.947-6.181,18.83-0.54,27.021c8.649,12.54,7.359,29.42-3.101,40.5
		c-14.25,15.09-20.369,36.119-16.439,56.5c-4.54,4.47-8.851,9.189-12.92,14.149c-1.238-1.3-2.398-2.67-3.47-4.12
		c-14.48-19.479-10.431-47.021,9.06-61.51c14.08-10.46,19.37-29.093,12.882-45.4c-4.83-12.15-2.54-25.979,5.938-35.93
		c4.33-5.08,7.25-11.223,8.449-17.78l0.381-2.05l16.75-56.19C86.61,38.28,120.57,10.49,160.91,6.22z"/>
	<path fill="#FFFFFF" d="M160.91,14.03V26.46c-19.36,26.35-47.5,44.897-79.351,52.3C107.13,56.11,133.59,34.53,160.91,14.03z"/>
	<path fill="#FFFFFF" d="M160.91,26.46c0,29.88-28.28,54.1-63.16,54.1c-5.601,0-11.028-0.63-16.188-1.8
		C113.41,71.36,141.55,52.81,160.91,26.46z"/>
	<path fill="#FFFFFF" d="M166.03,26.46c0,29.88,28.28,54.1,63.16,54.1c5.601,0,11.03-0.63,16.188-1.8l0.021,56.55
		c0,14.97-4.021,29.01-11.04,41.09c-5.569,9.603-13.05,17.973-21.909,24.59c-5.398,4.03-11.32,7.41-17.641,10.03
		c-5.33,2.21-10.95,3.88-16.79,4.92c-4.722,0.853-9.58,1.29-14.55,1.29c-5.12,0-10.142-0.471-15-1.37
		c-5.672-1.05-11.142-2.681-16.33-4.84c-6.32-2.607-12.24-6-17.642-10.03C105.64,194.37,98.16,186,92.59,176.4
		c-7.021-12.08-11.04-26.12-11.04-41.09V78.8l0.012-0.04c5.16,1.17,10.59,1.8,16.188,1.8c34.88,0,63.16-24.22,63.16-54.1V14.03V6.22
		V1h5.119v5.22v7.81L166.03,26.46L166.03,26.46z M230,125.09c0.021-2.87-0.568-5.64-1.67-8.18c-2.58-5.973-7.99-10.603-14.858-11.91
		c-9.79-1.86-19.271,3.63-22.75,12.6c-0.052,9.61,6.75,18.2,16.528,20.062c3.04,0.577,6.062,0.447,8.87-0.271
		c2.399-0.62,4.649-1.67,6.649-3.08c1.55-1.09,2.95-2.397,4.148-3.897c1.262-1.58,2.312-3.37,3.069-5.32L230,125.09L230,125.09z
		 M110.83,137.39c2.812,0.72,5.819,0.85,8.859,0.271c9.79-1.86,16.59-10.45,16.53-20.062c-3.472-8.97-12.95-14.46-22.74-12.6
		c-6.88,1.31-12.279,5.938-14.859,11.91c-1.101,2.54-1.688,5.31-1.67,8.18h0.01c0.762,1.95,1.802,3.74,3.069,5.32
		c1.2,1.5,2.601,2.81,4.15,3.897C106.18,135.72,108.43,136.77,110.83,137.39z"/>
	<path fill="#D5D2CA" d="M214.13,113.84c2.62,0.5,4.342,3.02,3.842,5.64c-0.472,2.473-2.74,4.13-5.19,3.9
		c-0.149-0.021-0.3-0.04-0.449-0.07c-0.141-0.03-0.29-0.06-0.431-0.1c-0.55-0.16-1.05-0.41-1.5-0.73c-0.01,0-0.01-0.01-0.01-0.01
		c-0.222-0.16-0.42-0.33-0.61-0.53c-0.96-0.987-1.489-2.38-1.35-3.817c0.021-0.15,0.04-0.29,0.068-0.44
		c0.05-0.29,0.13-0.57,0.229-0.83c0.16-0.397,0.358-0.77,0.601-1.108c0.16-0.222,0.34-0.432,0.54-0.619
		c0.189-0.19,0.409-0.36,0.63-0.521c0.109-0.08,0.229-0.147,0.352-0.22c0.229-0.13,0.479-0.25,0.738-0.34
		C212.38,113.76,213.25,113.67,214.13,113.84z"/>
	<path fill="#D5D2CA" d="M212.78,123.38c-0.149-0.01-0.3-0.03-0.449-0.062c-0.148-0.027-0.29-0.06-0.431-0.107
		c0.141,0.04,0.29,0.067,0.431,0.1C212.48,123.34,212.63,123.36,212.78,123.38z"/>
	<path fill="#D5D2CA" d="M210.4,122.48c0.45,0.32,0.95,0.57,1.5,0.73C211.34,123.06,210.84,122.81,210.4,122.48z"/>
	<path fill="#D5D2CA" d="M209.78,121.94c0.19,0.2,0.391,0.37,0.61,0.53C210.17,122.32,209.96,122.14,209.78,121.94z"/>
	<path fill="#D5D2CA" d="M124.07,122.48c0.221-0.17,0.431-0.35,0.62-0.54C124.5,122.14,124.29,122.32,124.07,122.48z"/>
	<path fill="#D5D2CA" d="M122.13,123.31c0.722-0.14,1.38-0.43,1.939-0.83c-0.562,0.41-1.22,0.7-1.939,0.84
		c-0.148,0.03-0.3,0.053-0.448,0.062C121.83,123.36,121.98,123.34,122.13,123.31z"/>
	<path fill="#D5D2CA" d="M122.87,114.04c0.26,0.09,0.51,0.21,0.75,0.34c0.12,0.07,0.229,0.14,0.34,0.22
		c0.229,0.16,0.439,0.33,0.642,0.521c0.68,0.67,1.18,1.55,1.37,2.56c0.31,1.6-0.222,3.17-1.28,4.26
		c-0.189,0.19-0.399,0.37-0.62,0.54c-0.56,0.4-1.22,0.69-1.939,0.83c-0.148,0.03-0.3,0.05-0.448,0.07
		c-1.302,0.12-2.552-0.29-3.512-1.07c-0.101-0.09-0.21-0.18-0.3-0.28c-0.688-0.67-1.188-1.538-1.381-2.55
		c-0.5-2.62,1.221-5.14,3.841-5.64C121.21,113.67,122.09,113.76,122.87,114.04z"/>
	<path fill="#D5D2CA" d="M117.87,122.03c0.09,0.103,0.199,0.19,0.3,0.28C118.06,122.22,117.96,122.13,117.87,122.03z"/>
</g>
<path fill="none" stroke="#D5D2CA" stroke-width="2" stroke-linecap="round" stroke-linejoin="round" stroke-miterlimit="10" d="
	M69.29,69.88C75.53,30.84,109.37,1,150.18,1"/>
<path fill="none" stroke="#D5D2CA" stroke-width="2" stroke-linecap="round" stroke-linejoin="round" stroke-miterlimit="10" d="
	M245.4,135.31c0,14.97-4.021,29.01-11.04,41.09c-5.569,9.603-13.05,17.973-21.909,24.59c-5.4,4.03-11.32,7.41-17.641,10.03
	c-5.33,2.21-10.95,3.88-16.79,4.92c-4.722,0.853-9.58,1.29-14.55,1.29c-5.12,0-10.142-0.471-15-1.37
	c-5.672-1.05-11.142-2.681-16.33-4.84c-6.32-2.607-12.24-6-17.642-10.03C105.64,194.37,98.16,186,92.59,176.4
	c-7.021-12.08-11.04-26.12-11.04-41.09"/>
<line fill="none" stroke="#D5D2CA" stroke-width="2" stroke-linecap="round" stroke-linejoin="round" stroke-miterlimit="10" x1="245.38" y1="78.76" x2="245.4" y2="135.31"/>
<path fill="none" stroke="#D5D2CA" stroke-width="2" stroke-linecap="round" stroke-linejoin="round" stroke-miterlimit="10" d="
	M169.67,152.25c0,3.43-2.771,6.21-6.198,6.21c-2,0-3.78-0.95-4.91-2.42"/>
<path fill="none" stroke="#D5D2CA" stroke-width="2" stroke-linecap="round" stroke-linejoin="round" stroke-miterlimit="10" d="
	M184.57,171.24c0,11.649-9.439,21.11-21.1,21.11c-11.661,0-21.102-9.461-21.102-21.11"/>
<polyline fill="none" stroke="#D5D2CA" stroke-width="2" stroke-linecap="round" stroke-linejoin="round" stroke-miterlimit="10" points="
	160.91,1 160.91,6.22 160.91,14.03 160.91,26.46 160.91,27.06 "/>
<polyline fill="none" stroke="#D5D2CA" stroke-width="2" stroke-linecap="round" stroke-linejoin="round" stroke-miterlimit="10" points="
	166.03,1 166.03,6.22 166.03,14.03 166.03,26.46 166.03,27.06 "/>
<path fill="none" stroke="#D5D2CA" stroke-width="2" stroke-linecap="round" stroke-linejoin="round" stroke-miterlimit="10" d="
	M160.91,26.46c0,29.88-28.28,54.1-63.16,54.1c-5.601,0-11.028-0.63-16.188-1.8"/>
<path fill="none" stroke="#D5D2CA" stroke-width="2" stroke-linecap="round" stroke-linejoin="round" stroke-miterlimit="10" d="
	M166.03,26.46c0,29.88,28.28,54.1,63.16,54.1c5.601,0,11.03-0.63,16.188-1.8"/>
<polyline fill="none" stroke="#D5D2CA" stroke-width="2" stroke-linecap="round" stroke-linejoin="round" stroke-miterlimit="10" points="
	81.55,78.76 81.55,78.8 81.55,135.31 "/>
<line fill="none" stroke="#D5D2CA" stroke-width="2" stroke-linecap="round" stroke-linejoin="round" stroke-miterlimit="10" x1="148.47" y1="215.86" x2="148.47" y2="228.34"/>
<line fill="none" stroke="#D5D2CA" stroke-width="2" stroke-linecap="round" stroke-linejoin="round" stroke-miterlimit="10" x1="178.02" y1="215.95" x2="178.02" y2="228.3"/>
<line fill="none" stroke="#D5D2CA" stroke-width="2" stroke-linecap="round" stroke-linejoin="round" stroke-miterlimit="10" x1="150.18" y1="1" x2="160.91" y2="1"/>
<polyline fill="none" stroke="#D5D2CA" stroke-width="2" stroke-linecap="round" stroke-linejoin="round" stroke-miterlimit="10" points="
	69.3,69.88 57.7,133.17 57.32,135.22 "/>
<path fill="none" stroke="#D5D2CA" stroke-width="2" stroke-linecap="round" stroke-linejoin="round" stroke-miterlimit="10" d="
	M257.66,69.88C251.41,30.84,217.57,1,176.77,1"/>
<polyline fill="none" stroke="#D5D2CA" stroke-width="2" stroke-linecap="round" stroke-linejoin="round" stroke-miterlimit="10" points="
	257.65,69.88 269.25,133.17 269.63,135.22 "/>
<path fill="none" stroke="#D5D2CA" stroke-width="2" stroke-linecap="round" stroke-linejoin="round" stroke-miterlimit="10" d="
	M48.87,153c4.33-5.08,7.25-11.223,8.449-17.78"/>
<path fill="none" stroke="#D5D2CA" stroke-width="2" stroke-linecap="round" stroke-linejoin="round" stroke-miterlimit="10" d="
	M325.94,337.061c-6.352-13.45-14.26-25.881-23.46-37.101c-4.062-4.96-8.37-9.683-12.91-14.149
	c-8.689-8.551-18.21-16.188-28.43-22.801c-11.99-7.771-24.92-14.12-38.53-18.859c-6.949-2.431-14.08-4.431-21.35-5.987
	c-5.562-1.2-11.212-2.143-16.932-2.812c-0.931-0.101-1.858-0.211-2.79-0.301"/>
<path fill="none" stroke="#D5D2CA" stroke-width="2" stroke-linecap="round" stroke-linejoin="round" stroke-miterlimit="10" d="
	M144.92,235.101c-0.771,0.079-1.54,0.159-2.3,0.26c-5.721,0.66-11.37,1.603-16.931,2.803c-7.271,1.56-14.399,3.56-21.352,5.987
	C90.72,248.89,77.79,255.23,65.8,263c-10.21,6.607-19.729,14.25-28.42,22.811c-4.54,4.47-8.851,9.189-12.92,14.149
	C15.27,311.19,7.36,323.61,1,337.061"/>
<path fill="none" stroke="#D5D2CA" stroke-width="2" stroke-linecap="round" stroke-linejoin="round" stroke-miterlimit="10" d="
	M48.87,153c-8.479,9.95-10.771,23.777-5.938,35.93"/>
<path fill="none" stroke="#D5D2CA" stroke-width="2" stroke-linecap="round" stroke-linejoin="round" stroke-miterlimit="10" d="
	M30.05,234.33c14.08-10.46,19.37-29.093,12.882-45.4"/>
<path fill="none" stroke="#D5D2CA" stroke-width="2" stroke-linecap="round" stroke-linejoin="round" stroke-miterlimit="10" d="
	M30.05,234.33c-19.488,14.487-23.54,42.027-9.06,61.51c1.069,1.45,2.229,2.82,3.47,4.12"/>
<line fill="none" stroke="#D5D2CA" stroke-width="2" stroke-linecap="round" stroke-linejoin="round" stroke-miterlimit="10" x1="169.67" y1="152.25" x2="169.67" y2="136.05"/>
<path fill="none" stroke="#D5D2CA" stroke-width="2" stroke-linecap="round" stroke-linejoin="round" stroke-miterlimit="10" d="
	M153.27,152.25c0,2.21,1.79,4,4,4c0.438,0,0.87-0.07,1.29-0.21"/>
<path fill="none" stroke="#D5D2CA" stroke-width="2" stroke-linecap="round" stroke-linejoin="round" stroke-miterlimit="10" d="
	M269.63,135.22c1.2,6.56,4.12,12.7,8.45,17.78"/>
<path fill="none" stroke="#D5D2CA" stroke-width="2" stroke-linecap="round" stroke-linejoin="round" stroke-miterlimit="10" d="
	M284.01,188.93c4.84-12.149,2.55-25.979-5.932-35.93"/>
<path fill="none" stroke="#D5D2CA" stroke-width="2" stroke-linecap="round" stroke-linejoin="round" stroke-miterlimit="10" d="
	M284.01,188.93c-6.48,16.312-1.19,34.94,12.89,45.4"/>
<path fill="none" stroke="#D5D2CA" stroke-width="2" stroke-linecap="round" stroke-linejoin="round" stroke-miterlimit="10" d="
	M302.48,299.96c16.761-17.57,16.108-45.393-1.46-62.149c-1.3-1.24-2.682-2.397-4.12-3.479"/>
<line fill="none" stroke="#D5D2CA" stroke-width="2" stroke-linecap="round" stroke-linejoin="round" stroke-miterlimit="10" x1="176.77" y1="1" x2="166.03" y2="1"/>
<path fill="none" stroke="#D5D2CA" stroke-width="2" stroke-linecap="round" stroke-linejoin="round" stroke-miterlimit="10" d="
	M168.83,156.1c2.08,0.73,4.37-0.36,5.102-2.45c0.148-0.41,0.22-0.85,0.229-1.277"/>
<path fill="none" stroke="#D5D2CA" stroke-width="2" stroke-linecap="round" stroke-linejoin="round" stroke-miterlimit="10" d="
	M81.56,78.76c31.851-7.4,59.988-25.95,79.351-52.3"/>
<path fill="none" stroke="#D5D2CA" stroke-width="2" stroke-linecap="round" stroke-linejoin="round" stroke-miterlimit="10" d="
	M160.91,14.03c-27.32,20.5-53.78,42.08-79.351,64.73h-0.012"/>
<path fill="none" stroke="#D5D2CA" stroke-width="2" stroke-linecap="round" stroke-linejoin="round" stroke-miterlimit="10" d="
	M160.91,6.22c-40.34,4.27-74.3,32.06-86.46,70.76"/>
<line fill="none" stroke="#D5D2CA" stroke-width="2" stroke-linecap="round" stroke-linejoin="round" stroke-miterlimit="10" x1="74.45" y1="76.98" x2="57.7" y2="133.17"/>
<polyline fill="none" stroke="#D5D2CA" stroke-width="2" stroke-linecap="round" stroke-linejoin="round" stroke-miterlimit="10" points="
	81.56,78.76 81.55,78.8 67.94,139.09 "/>
<path fill="none" stroke="#D5D2CA" stroke-width="2" stroke-linecap="round" stroke-linejoin="round" stroke-miterlimit="10" d="
	M57.46,161.79c5.062-6.75,8.63-14.48,10.479-22.7"/>
<path fill="none" stroke="#D5D2CA" stroke-width="2" stroke-linecap="round" stroke-linejoin="round" stroke-miterlimit="10" d="
	M57.46,161.79c-5.96,7.947-6.181,18.83-0.54,27.021"/>
<path fill="none" stroke="#D5D2CA" stroke-width="2" stroke-linecap="round" stroke-linejoin="round" stroke-miterlimit="10" d="
	M53.82,229.311c10.46-11.08,11.75-27.96,3.101-40.5"/>
<path fill="none" stroke="#D5D2CA" stroke-width="2" stroke-linecap="round" stroke-linejoin="round" stroke-miterlimit="10" d="
	M53.82,229.311c-14.25,15.09-20.369,36.119-16.439,56.5"/>
<line fill="none" stroke="#D5D2CA" stroke-width="2" stroke-linecap="round" stroke-linejoin="round" stroke-miterlimit="10" x1="81.55" y1="135.31" x2="78.08" y2="150.81"/>
<path fill="none" stroke="#D5D2CA" stroke-width="2" stroke-linecap="round" stroke-linejoin="round" stroke-miterlimit="10" d="
	M74.89,161.95c1.278-3.65,2.351-7.37,3.188-11.143"/>
<path fill="none" stroke="#D5D2CA" stroke-width="2" stroke-linecap="round" stroke-linejoin="round" stroke-miterlimit="10" d="
	M74.89,161.95c-3.58,10.157-3.28,21.277,0.851,31.229"/>
<path fill="none" stroke="#D5D2CA" stroke-width="2" stroke-linecap="round" stroke-linejoin="round" stroke-miterlimit="10" d="
	M73.53,236.11c7.16-13.25,7.979-29.021,2.211-42.931"/>
<path fill="none" stroke="#D5D2CA" stroke-width="2" stroke-linecap="round" stroke-linejoin="round" stroke-miterlimit="10" d="
	M73.53,236.11C69.04,244.41,66.4,253.58,65.8,263"/>
<path fill="none" stroke="#D5D2CA" stroke-width="2" stroke-linecap="round" stroke-linejoin="round" stroke-miterlimit="10" d="
	M92.59,176.4c-2.76,11.399-0.528,23.433,6.132,33.08"/>
<path fill="none" stroke="#D5D2CA" stroke-width="2" stroke-linecap="round" stroke-linejoin="round" stroke-miterlimit="10" d="
	M104.34,244.15c3.42-11.817,1.352-24.54-5.618-34.67"/>
<path fill="none" stroke="#D5D2CA" stroke-width="2" stroke-linecap="round" stroke-linejoin="round" stroke-miterlimit="10" d="
	M114.5,200.99c0.182,5.633,1.8,11.133,4.7,15.963"/>
<path fill="none" stroke="#D5D2CA" stroke-width="2" stroke-linecap="round" stroke-linejoin="round" stroke-miterlimit="10" d="
	M125.69,238.16c-0.41-7.49-2.63-14.771-6.489-21.21"/>
<path fill="none" stroke="#D5D2CA" stroke-width="2" stroke-linecap="round" stroke-linejoin="round" stroke-miterlimit="10" d="
	M132.14,211.03c0.908,3.562,2.351,6.973,4.26,10.12"/>
<path fill="none" stroke="#D5D2CA" stroke-width="2" stroke-linecap="round" stroke-linejoin="round" stroke-miterlimit="10" d="
	M142.62,235.351c-1.431-4.99-3.521-9.771-6.221-14.2"/>
<path fill="none" stroke="#D5D2CA" stroke-width="2" stroke-linecap="round" stroke-linejoin="round" stroke-miterlimit="10" d="
	M159.43,240.11c2.521,0.263,5.158,0.263,7.67,0"/>
<path fill="none" stroke="#D5D2CA" stroke-width="2" stroke-linecap="round" stroke-linejoin="round" stroke-miterlimit="10" d="
	M148.47,228.34c0,3.061,6.608,5.54,14.771,5.54c0.01,0,0.01,0,0.021,0c8.148,0,14.76-2.479,14.76-5.54c0-0.01,0-0.021,0-0.04"/>
<line fill="none" stroke="#D5D2CA" stroke-width="2" stroke-linecap="round" stroke-linejoin="round" stroke-miterlimit="10" x1="148.47" y1="228.34" x2="144.92" y2="235.101"/>
<polyline fill="none" stroke="#D5D2CA" stroke-width="2" stroke-linecap="round" stroke-linejoin="round" stroke-miterlimit="10" points="
	178.02,228.34 181.54,235.05 181.57,235.101 "/>
<path fill="none" stroke="#D5D2CA" stroke-width="2" stroke-linecap="round" stroke-linejoin="round" stroke-miterlimit="10" d="
	M168.59,242.53c7.71-1,12.979-4.01,12.979-7.43"/>
<path fill="none" stroke="#D5D2CA" stroke-width="2" stroke-linecap="round" stroke-linejoin="round" stroke-miterlimit="10" d="
	M144.92,235.101c0,3.42,5.28,6.439,13.012,7.439"/>
<polyline fill="none" stroke="#D5D2CA" stroke-width="2" stroke-linecap="round" stroke-linejoin="round" stroke-miterlimit="10" points="
	157.93,242.54 159.42,240.11 159.43,240.11 163.26,233.88 "/>
<polyline fill="none" stroke="#D5D2CA" stroke-width="2" stroke-linecap="round" stroke-linejoin="round" stroke-miterlimit="10" points="
	168.6,242.54 168.59,242.53 167.1,240.11 163.26,233.88 "/>
<path fill="none" stroke="#D5D2CA" stroke-width="2" stroke-linecap="round" stroke-linejoin="round" stroke-miterlimit="10" d="
	M166.03,26.46c19.37,26.34,47.511,44.89,79.351,52.3h0.012"/>
<path fill="none" stroke="#D5D2CA" stroke-width="2" stroke-linecap="round" stroke-linejoin="round" stroke-miterlimit="10" d="
	M245.4,78.76h-0.01c-25.57-22.65-52.04-44.23-79.36-64.73"/>
<path fill="none" stroke="#D5D2CA" stroke-width="2" stroke-linecap="round" stroke-linejoin="round" stroke-miterlimit="10" d="
	M252.5,76.98c-12.16-38.7-46.13-66.49-86.471-70.76"/>
<line fill="none" stroke="#D5D2CA" stroke-width="2" stroke-linecap="round" stroke-linejoin="round" stroke-miterlimit="10" x1="252.5" y1="76.98" x2="269.25" y2="133.17"/>
<line fill="none" stroke="#D5D2CA" stroke-width="2" stroke-linecap="round" stroke-linejoin="round" stroke-miterlimit="10" x1="245.39" y1="78.76" x2="259.01" y2="139.09"/>
<path fill="none" stroke="#D5D2CA" stroke-width="2" stroke-linecap="round" stroke-linejoin="round" stroke-miterlimit="10" d="
	M259.01,139.09c1.85,8.22,5.42,15.95,10.479,22.7"/>
<path fill="none" stroke="#D5D2CA" stroke-width="2" stroke-linecap="round" stroke-linejoin="round" stroke-miterlimit="10" d="
	M270.02,188.811c5.648-8.188,5.431-19.067-0.53-27.021"/>
<path fill="none" stroke="#D5D2CA" stroke-width="2" stroke-linecap="round" stroke-linejoin="round" stroke-miterlimit="10" d="
	M270.02,188.811c-8.642,12.54-7.352,29.42,3.108,40.5"/>
<path fill="none" stroke="#D5D2CA" stroke-width="2" stroke-linecap="round" stroke-linejoin="round" stroke-miterlimit="10" d="
	M289.57,285.811c3.921-20.381-2.189-41.41-16.439-56.5"/>
<line fill="none" stroke="#D5D2CA" stroke-width="2" stroke-linecap="round" stroke-linejoin="round" stroke-miterlimit="10" x1="245.4" y1="135.31" x2="248.87" y2="150.81"/>
<path fill="none" stroke="#D5D2CA" stroke-width="2" stroke-linecap="round" stroke-linejoin="round" stroke-miterlimit="10" d="
	M248.87,150.81c0.84,3.771,1.909,7.49,3.189,11.143"/>
<path fill="none" stroke="#D5D2CA" stroke-width="2" stroke-linecap="round" stroke-linejoin="round" stroke-miterlimit="10" d="
	M251.21,193.18c4.12-9.949,4.432-21.069,0.852-31.229"/>
<path fill="none" stroke="#D5D2CA" stroke-width="2" stroke-linecap="round" stroke-linejoin="round" stroke-miterlimit="10" d="
	M251.21,193.18c-5.771,13.91-4.96,29.681,2.21,42.931"/>
<path fill="none" stroke="#D5D2CA" stroke-width="2" stroke-linecap="round" stroke-linejoin="round" stroke-miterlimit="10" d="
	M261.15,263c-0.602-9.42-3.239-18.59-7.729-26.893"/>
<path fill="none" stroke="#D5D2CA" stroke-width="2" stroke-linecap="round" stroke-linejoin="round" stroke-miterlimit="10" d="
	M228.23,209.48c6.66-9.647,8.891-21.681,6.13-33.08"/>
<path fill="none" stroke="#D5D2CA" stroke-width="2" stroke-linecap="round" stroke-linejoin="round" stroke-miterlimit="10" d="
	M228.23,209.48c-6.979,10.13-9.04,22.853-5.62,34.67"/>
<path fill="none" stroke="#D5D2CA" stroke-width="2" stroke-linecap="round" stroke-linejoin="round" stroke-miterlimit="10" d="
	M207.75,216.95c2.892-4.83,4.51-10.33,4.7-15.963"/>
<path fill="none" stroke="#D5D2CA" stroke-width="2" stroke-linecap="round" stroke-linejoin="round" stroke-miterlimit="10" d="
	M207.75,216.95c-3.858,6.438-6.09,13.72-6.49,21.21"/>
<path fill="none" stroke="#D5D2CA" stroke-width="2" stroke-linecap="round" stroke-linejoin="round" stroke-miterlimit="10" d="
	M190.54,221.15c1.91-3.147,3.352-6.561,4.271-10.12"/>
<path fill="none" stroke="#D5D2CA" stroke-width="2" stroke-linecap="round" stroke-linejoin="round" stroke-miterlimit="10" d="
	M190.54,221.15c-2.7,4.433-4.79,9.21-6.21,14.2"/>
<path fill="none" stroke="#D5D2CA" stroke-width="2" stroke-linecap="round" stroke-linejoin="round" stroke-miterlimit="10" d="
	M120.54,254.13c0-0.5-0.398-0.899-0.898-0.899s-0.91,0.399-0.91,0.899s0.41,0.91,0.91,0.91S120.54,254.63,120.54,254.13z"/>
<path fill="none" stroke="#D5D2CA" stroke-width="2" stroke-linecap="round" stroke-linejoin="round" stroke-miterlimit="10" d="
	M142.19,252.771c0-0.5-0.41-0.91-0.91-0.91s-0.899,0.41-0.899,0.91s0.399,0.899,0.899,0.899S142.19,253.271,142.19,252.771z"/>
<circle fill="none" stroke="#D5D2CA" stroke-width="2" stroke-linecap="round" stroke-linejoin="round" stroke-miterlimit="10" cx="131.03" cy="242.29" r="0.91"/>
<path fill="none" stroke="#D5D2CA" stroke-width="2" stroke-linecap="round" stroke-linejoin="round" stroke-miterlimit="10" d="
	M98.44,256.41c0-0.5-0.399-0.91-0.899-0.91c-0.511,0-0.91,0.41-0.91,0.91s0.399,0.907,0.91,0.907
	C98.04,257.32,98.44,256.91,98.44,256.41z"/>
<path fill="none" stroke="#D5D2CA" stroke-width="2" stroke-linecap="round" stroke-linejoin="round" stroke-miterlimit="10" d="
	M118.95,281.69c0-0.5-0.41-0.91-0.91-0.91s-0.898,0.41-0.898,0.91s0.398,0.91,0.898,0.91S118.95,282.19,118.95,281.69z"/>
<path fill="none" stroke="#D5D2CA" stroke-width="2" stroke-linecap="round" stroke-linejoin="round" stroke-miterlimit="10" d="
	M131.48,268.021c0-0.49-0.41-0.897-0.91-0.897s-0.899,0.407-0.899,0.897c0,0.51,0.399,0.909,0.899,0.909
	S131.48,268.53,131.48,268.021z"/>
<circle fill="none" stroke="#D5D2CA" stroke-width="2" stroke-linecap="round" stroke-linejoin="round" stroke-miterlimit="10" cx="90.7" cy="276.68" r="0.91"/>
<circle fill="none" stroke="#D5D2CA" stroke-width="2" stroke-linecap="round" stroke-linejoin="round" stroke-miterlimit="10" cx="60.85" cy="293.76" r="0.91"/>
<path fill="none" stroke="#D5D2CA" stroke-width="2" stroke-linecap="round" stroke-linejoin="round" stroke-miterlimit="10" d="
	M62.67,272.351c0-0.5-0.41-0.897-0.91-0.897s-0.898,0.397-0.898,0.897s0.398,0.909,0.898,0.909S62.67,272.851,62.67,272.351z"/>
<path fill="none" stroke="#D5D2CA" stroke-width="2" stroke-linecap="round" stroke-linejoin="round" stroke-miterlimit="10" d="
	M81.35,281.24c0-0.5-0.399-0.907-0.899-0.907c-0.511,0-0.91,0.407-0.91,0.907s0.399,0.899,0.91,0.899
	C80.95,282.14,81.35,281.74,81.35,281.24z"/>
<path fill="none" stroke="#D5D2CA" stroke-width="2" stroke-linecap="round" stroke-linejoin="round" stroke-miterlimit="10" d="
	M92.52,302.19c0-0.5-0.41-0.91-0.91-0.91s-0.909,0.41-0.909,0.91s0.409,0.899,0.909,0.899S92.52,302.69,92.52,302.19z"/>
<path fill="none" stroke="#D5D2CA" stroke-width="2" stroke-linecap="round" stroke-linejoin="round" stroke-miterlimit="10" d="
	M135.81,296.271c0-0.5-0.41-0.91-0.91-0.91s-0.899,0.41-0.899,0.91s0.399,0.899,0.899,0.899S135.81,296.771,135.81,296.271z"/>
<circle fill="none" stroke="#D5D2CA" stroke-width="2" stroke-linecap="round" stroke-linejoin="round" stroke-miterlimit="10" cx="153.13" cy="275.771" r="0.91"/>
<path fill="none" stroke="#D5D2CA" stroke-width="2" stroke-linecap="round" stroke-linejoin="round" stroke-miterlimit="10" d="
	M169.3,251.86c0-0.51-0.398-0.907-0.898-0.907c-0.51,0-0.909,0.397-0.909,0.907c0,0.5,0.399,0.899,0.909,0.899
	C168.9,252.76,169.3,252.36,169.3,251.86z"/>
<path fill="none" stroke="#D5D2CA" stroke-width="2" stroke-linecap="round" stroke-linejoin="round" stroke-miterlimit="10" d="
	M191.63,261.65c0-0.5-0.398-0.91-0.898-0.91s-0.91,0.41-0.91,0.91s0.41,0.91,0.91,0.91S191.63,262.15,191.63,261.65z"/>
<path fill="none" stroke="#D5D2CA" stroke-width="2" stroke-linecap="round" stroke-linejoin="round" stroke-miterlimit="10" d="
	M206.67,245.25c0-0.5-0.41-0.91-0.91-0.91s-0.898,0.41-0.898,0.91s0.398,0.91,0.898,0.91S206.67,245.75,206.67,245.25z"/>
<path fill="none" stroke="#D5D2CA" stroke-width="2" stroke-linecap="round" stroke-linejoin="round" stroke-miterlimit="10" d="
	M234.47,252.771c0-0.5-0.41-0.91-0.91-0.91s-0.91,0.41-0.91,0.91s0.41,0.899,0.91,0.899S234.47,253.271,234.47,252.771z"/>
<path fill="none" stroke="#D5D2CA" stroke-width="2" stroke-linecap="round" stroke-linejoin="round" stroke-miterlimit="10" d="
	M227.86,274.17c0-0.5-0.409-0.899-0.909-0.899s-0.9,0.399-0.9,0.899c0,0.51,0.4,0.91,0.9,0.91S227.86,274.68,227.86,274.17z"/>
<path fill="none" stroke="#D5D2CA" stroke-width="2" stroke-linecap="round" stroke-linejoin="round" stroke-miterlimit="10" d="
	M201.43,280.33c0-0.513-0.41-0.91-0.91-0.91s-0.899,0.397-0.899,0.91c0,0.5,0.399,0.897,0.899,0.897S201.43,280.83,201.43,280.33z"
	/>
<path fill="none" stroke="#D5D2CA" stroke-width="2" stroke-linecap="round" stroke-linejoin="round" stroke-miterlimit="10" d="
	M199.15,297.63c0-0.5-0.399-0.899-0.91-0.899c-0.5,0-0.899,0.399-0.899,0.899s0.399,0.91,0.899,0.91
	C198.75,298.54,199.15,298.13,199.15,297.63z"/>
<path fill="none" stroke="#D5D2CA" stroke-width="2" stroke-linecap="round" stroke-linejoin="round" stroke-miterlimit="10" d="
	M161.1,294.67c0-0.5-0.41-0.899-0.91-0.899s-0.899,0.399-0.899,0.899s0.399,0.91,0.899,0.91S161.1,295.17,161.1,294.67z"/>
<path fill="none" stroke="#D5D2CA" stroke-width="2" stroke-linecap="round" stroke-linejoin="round" stroke-miterlimit="10" d="
	M256.89,275.87c0-0.5-0.41-0.91-0.91-0.91s-0.899,0.41-0.899,0.91s0.399,0.907,0.899,0.907S256.89,276.37,256.89,275.87z"/>
<path fill="none" stroke="#D5D2CA" stroke-width="2" stroke-linecap="round" stroke-linejoin="round" stroke-miterlimit="10" d="
	M241.73,305.83c0-0.513-0.41-0.91-0.91-0.91s-0.909,0.397-0.909,0.91c0,0.5,0.409,0.897,0.909,0.897S241.73,306.33,241.73,305.83z"
	/>
<path fill="none" stroke="#D5D2CA" stroke-width="2" stroke-linecap="round" stroke-linejoin="round" stroke-miterlimit="10" d="
	M300.06,305.83c0-0.513-0.41-0.91-0.91-0.91s-0.91,0.397-0.91,0.91c0,0.5,0.41,0.897,0.91,0.897S300.06,306.33,300.06,305.83z"/>
<path fill="none" stroke="#D5D2CA" stroke-width="2" stroke-linecap="round" stroke-linejoin="round" stroke-miterlimit="10" d="
	M280.22,288.12c0-0.513-0.4-0.91-0.91-0.91c-0.5,0-0.899,0.397-0.899,0.91c0,0.487,0.399,0.897,0.899,0.897
	C279.82,289.021,280.22,288.61,280.22,288.12z"/>
<path fill="none" stroke="#D5D2CA" stroke-width="2" stroke-linecap="round" stroke-linejoin="round" stroke-miterlimit="10" d="
	M277.31,324.26c0-0.5-0.41-0.899-0.91-0.899s-0.91,0.399-0.91,0.899s0.41,0.91,0.91,0.91S277.31,324.76,277.31,324.26z"/>
<path fill="none" stroke="#D5D2CA" stroke-width="2" stroke-linecap="round" stroke-linejoin="round" stroke-miterlimit="10" d="
	M272.64,305.83c0-0.513-0.41-0.91-0.91-0.91s-0.899,0.397-0.899,0.91c0,0.5,0.399,0.897,0.899,0.897S272.64,306.33,272.64,305.83z"
	/>
<path fill="none" stroke="#D5D2CA" stroke-width="2" stroke-linecap="round" stroke-linejoin="round" stroke-miterlimit="10" d="
	M305.3,328.34c0-0.5-0.398-0.899-0.898-0.899s-0.91,0.399-0.91,0.899s0.41,0.907,0.91,0.907S305.3,328.84,305.3,328.34z"/>
<path fill="none" stroke="#D5D2CA" stroke-width="2" stroke-linecap="round" stroke-linejoin="round" stroke-miterlimit="10" d="
	M228.89,327.18c0-0.5-0.399-0.909-0.899-0.909c-0.511,0-0.91,0.409-0.91,0.909s0.399,0.897,0.91,0.897
	C228.49,328.077,228.89,327.68,228.89,327.18z"/>
<path fill="none" stroke="#D5D2CA" stroke-width="2" stroke-linecap="round" stroke-linejoin="round" stroke-miterlimit="10" d="
	M196.81,305.83c0-0.513-0.399-0.91-0.91-0.91c-0.5,0-0.899,0.397-0.899,0.91c0,0.5,0.399,0.897,0.899,0.897
	C196.41,306.73,196.81,306.33,196.81,305.83z"/>
<path fill="none" stroke="#D5D2CA" stroke-width="2" stroke-linecap="round" stroke-linejoin="round" stroke-miterlimit="10" d="
	M162.98,326.59c0-0.5-0.41-0.899-0.91-0.899s-0.899,0.399-0.899,0.899c0,0.511,0.399,0.907,0.899,0.907
	S162.98,327.101,162.98,326.59z"/>
<path fill="none" stroke="#D5D2CA" stroke-width="2" stroke-linecap="round" stroke-linejoin="round" stroke-miterlimit="10" d="
	M195.64,324.26c0-0.5-0.399-0.899-0.899-0.899s-0.91,0.399-0.91,0.899s0.41,0.91,0.91,0.91S195.64,324.76,195.64,324.26z"/>
<path fill="none" stroke="#D5D2CA" stroke-width="2" stroke-linecap="round" stroke-linejoin="round" stroke-miterlimit="10" d="
	M172.9,277.04c0-0.5-0.41-0.91-0.91-0.91s-0.909,0.41-0.909,0.91s0.409,0.897,0.909,0.897S172.9,277.54,172.9,277.04z"/>
<path fill="none" stroke="#D5D2CA" stroke-width="2" stroke-linecap="round" stroke-linejoin="round" stroke-miterlimit="10" d="
	M133.23,316.101c0-0.5-0.399-0.91-0.899-0.91s-0.91,0.41-0.91,0.91s0.41,0.909,0.91,0.909S133.23,316.601,133.23,316.101z"/>
<path fill="none" stroke="#D5D2CA" stroke-width="2" stroke-linecap="round" stroke-linejoin="round" stroke-miterlimit="10" d="
	M85.4,325.43c0-0.5-0.399-0.909-0.899-0.909s-0.91,0.409-0.91,0.909s0.41,0.91,0.91,0.91S85.4,325.93,85.4,325.43z"/>
<path fill="none" stroke="#D5D2CA" stroke-width="2" stroke-linecap="round" stroke-linejoin="round" stroke-miterlimit="10" d="
	M118.65,323.101c0-0.5-0.399-0.91-0.91-0.91c-0.5,0-0.899,0.41-0.899,0.91s0.399,0.898,0.899,0.898
	C118.25,323.997,118.65,323.601,118.65,323.101z"/>
<path fill="none" stroke="#D5D2CA" stroke-width="2" stroke-linecap="round" stroke-linejoin="round" stroke-miterlimit="10" d="
	M55.65,315.521c0-0.5-0.399-0.91-0.899-0.91s-0.91,0.41-0.91,0.91s0.41,0.899,0.91,0.899S55.65,316.021,55.65,315.521z"/>
<circle fill="none" stroke="#D5D2CA" stroke-width="2" stroke-linecap="round" stroke-linejoin="round" stroke-miterlimit="10" cx="23.25" cy="323.68" r="0.91"/>
<path fill="none" stroke="#D5D2CA" stroke-width="2" stroke-linecap="round" stroke-linejoin="round" stroke-miterlimit="10" d="
	M36.99,305.83c0-0.513-0.41-0.91-0.91-0.91s-0.898,0.397-0.898,0.91c0,0.5,0.398,0.897,0.898,0.897S36.99,306.33,36.99,305.83z"/>
<path fill="none" stroke="#D5D2CA" stroke-width="2" stroke-linecap="round" stroke-linejoin="round" stroke-miterlimit="10" d="
	M229.99,125.09c-0.761,1.95-1.811,3.74-3.07,5.32c-1.198,1.5-2.601,2.81-4.148,3.897c-2,1.41-4.25,2.46-6.649,3.08
	c-2.811,0.72-5.83,0.85-8.87,0.271c-9.778-1.86-16.58-10.45-16.528-20.062c3.479-8.97,12.96-14.46,22.75-12.6
	c6.868,1.31,12.278,5.938,14.858,11.909c1.102,2.54,1.689,5.311,1.67,8.181"/>
<path fill="none" stroke="#D5D2CA" stroke-width="2" stroke-linecap="round" stroke-linejoin="round" stroke-miterlimit="10" d="
	M223.91,120.61c-1.131,5.893-6.82,9.763-12.71,8.643c-5.891-1.12-9.761-6.82-8.641-12.7c1.12-5.9,6.811-9.771,12.698-8.65
	C221.16,109.02,225.03,114.71,223.91,120.61z"/>
<path fill="none" stroke="#D5D2CA" stroke-width="2" stroke-linecap="round" stroke-linejoin="round" stroke-miterlimit="10" d="
	M210.85,114.38c0.229-0.13,0.479-0.25,0.738-0.34"/>
<path fill="none" stroke="#D5D2CA" stroke-width="2" stroke-linecap="round" stroke-linejoin="round" stroke-miterlimit="10" d="
	M209.33,115.74c0.16-0.229,0.34-0.43,0.54-0.617c0.189-0.19,0.399-0.37,0.63-0.521"/>
<path fill="none" stroke="#D5D2CA" stroke-width="2" stroke-linecap="round" stroke-linejoin="round" stroke-miterlimit="10" d="
	M208.43,118.12c0.01-0.15,0.028-0.303,0.06-0.45c0.051-0.29,0.131-0.562,0.24-0.82"/>
<path fill="none" stroke="#D5D2CA" stroke-width="2" stroke-linecap="round" stroke-linejoin="round" stroke-miterlimit="10" d="
	M211.59,114.04c0.79-0.28,1.66-0.37,2.54-0.2c2.62,0.5,4.342,3.02,3.842,5.64c-0.472,2.473-2.74,4.13-5.19,3.9
	c-0.149-0.01-0.3-0.03-0.449-0.062c-0.148-0.027-0.29-0.06-0.431-0.107c-0.562-0.15-1.062-0.4-1.5-0.73c-0.01,0-0.01-0.01-0.01-0.01
	c-0.222-0.15-0.432-0.33-0.61-0.53c-0.96-0.987-1.489-2.38-1.35-3.817c0.021-0.15,0.04-0.29,0.068-0.44
	c0.05-0.29,0.13-0.57,0.229-0.83c0.16-0.397,0.358-0.77,0.601-1.108c0.16-0.222,0.34-0.432,0.54-0.619
	c0.189-0.19,0.409-0.36,0.63-0.521c0.109-0.08,0.229-0.147,0.352-0.22C211.08,114.25,211.33,114.13,211.59,114.04z"/>
<line fill="none" stroke="#D5D2CA" stroke-width="2" stroke-linecap="round" stroke-linejoin="round" stroke-miterlimit="10" x1="230.4" y1="121.25" x2="238.13" y2="121.18"/>
<polyline fill="none" stroke="#D5D2CA" stroke-width="2" stroke-linecap="round" stroke-linejoin="round" stroke-miterlimit="10" points="
	226.91,130.4 226.92,130.41 231.48,135.21 "/>
<polyline fill="none" stroke="#D5D2CA" stroke-width="2" stroke-linecap="round" stroke-linejoin="round" stroke-miterlimit="10" points="
	222.76,134.3 222.77,134.31 225.94,139.69 "/>
<line fill="none" stroke="#D5D2CA" stroke-width="2" stroke-linecap="round" stroke-linejoin="round" stroke-miterlimit="10" x1="216.12" y1="137.39" x2="218.02" y2="143"/>
<polyline fill="none" stroke="#D5D2CA" stroke-width="2" stroke-linecap="round" stroke-linejoin="round" stroke-miterlimit="10" points="
	228.32,116.91 228.33,116.91 237.13,112.71 "/>
<line fill="none" stroke="#D5D2CA" stroke-width="2" stroke-linecap="round" stroke-linejoin="round" stroke-miterlimit="10" x1="225.78" y1="111.52" x2="232.88" y2="105.26"/>
<line fill="none" stroke="#D5D2CA" stroke-width="2" stroke-linecap="round" stroke-linejoin="round" stroke-miterlimit="10" x1="220.49" y1="107.46" x2="226.1" y2="99.99"/>
<path fill="none" stroke="#D5D2CA" stroke-width="2" stroke-linecap="round" stroke-linejoin="round" stroke-miterlimit="10" d="
	M96.96,125.09c0.762,1.95,1.8,3.74,3.069,5.32c1.2,1.5,2.601,2.81,4.15,3.897c2,1.41,4.25,2.46,6.648,3.08
	c2.812,0.72,5.819,0.85,8.859,0.271c9.79-1.86,16.59-10.45,16.528-20.062c-3.47-8.97-12.948-14.46-22.738-12.6
	c-6.88,1.31-12.279,5.938-14.859,11.909c-1.101,2.54-1.688,5.311-1.67,8.181"/>
<path fill="none" stroke="#D5D2CA" stroke-width="2" stroke-linecap="round" stroke-linejoin="round" stroke-miterlimit="10" d="
	M110.56,120.61c1.12,5.893,6.811,9.763,12.698,8.643c5.9-1.12,9.771-6.82,8.65-12.7c-1.12-5.9-6.811-9.771-12.71-8.65
	C113.31,109.02,109.44,114.71,110.56,120.61z"/>
<path fill="none" stroke="#D5D2CA" stroke-width="2" stroke-linecap="round" stroke-linejoin="round" stroke-miterlimit="10" d="
	M123.62,114.38c-0.24-0.13-0.49-0.25-0.75-0.34"/>
<path fill="none" stroke="#D5D2CA" stroke-width="2" stroke-linecap="round" stroke-linejoin="round" stroke-miterlimit="10" d="
	M124.6,115.12c-0.2-0.19-0.41-0.37-0.642-0.521"/>
<path fill="none" stroke="#D5D2CA" stroke-width="2" stroke-linecap="round" stroke-linejoin="round" stroke-miterlimit="10" d="
	M122.87,114.04c-0.78-0.28-1.66-0.37-2.54-0.2c-2.62,0.5-4.34,3.02-3.84,5.64c0.189,1.01,0.689,1.88,1.38,2.55
	c0.09,0.103,0.189,0.19,0.3,0.28c0.96,0.78,2.21,1.19,3.512,1.07c0.148-0.01,0.3-0.03,0.448-0.062c0.722-0.14,1.382-0.43,1.939-0.84
	c0.221-0.16,0.431-0.34,0.62-0.54c1.061-1.09,1.59-2.66,1.28-4.26c-0.19-1.01-0.69-1.89-1.37-2.56c-0.2-0.19-0.41-0.36-0.642-0.521
	c-0.108-0.08-0.22-0.147-0.34-0.22C123.38,114.25,123.13,114.13,122.87,114.04z"/>
<line fill="none" stroke="#D5D2CA" stroke-width="2" stroke-linecap="round" stroke-linejoin="round" stroke-miterlimit="10" x1="96.55" y1="121.25" x2="88.82" y2="121.18"/>
<polyline fill="none" stroke="#D5D2CA" stroke-width="2" stroke-linecap="round" stroke-linejoin="round" stroke-miterlimit="10" points="
	100.04,130.4 100.03,130.41 95.47,135.21 "/>
<polyline fill="none" stroke="#D5D2CA" stroke-width="2" stroke-linecap="round" stroke-linejoin="round" stroke-miterlimit="10" points="
	104.19,134.3 104.18,134.31 101.01,139.69 "/>
<line fill="none" stroke="#D5D2CA" stroke-width="2" stroke-linecap="round" stroke-linejoin="round" stroke-miterlimit="10" x1="110.83" y1="137.39" x2="108.92" y2="143"/>
<line fill="none" stroke="#D5D2CA" stroke-width="2" stroke-linecap="round" stroke-linejoin="round" stroke-miterlimit="10" x1="98.62" y1="116.91" x2="89.82" y2="112.71"/>
<line fill="none" stroke="#D5D2CA" stroke-width="2" stroke-linecap="round" stroke-linejoin="round" stroke-miterlimit="10" x1="101.17" y1="111.52" x2="94.07" y2="105.26"/>
<line fill="none" stroke="#D5D2CA" stroke-width="2" stroke-linecap="round" stroke-linejoin="round" stroke-miterlimit="10" x1="106.45" y1="107.46" x2="100.85" y2="99.99"/>
<line fill="none" stroke="#D5D2CA" stroke-width="2" stroke-linecap="round" stroke-linejoin="round" stroke-miterlimit="10" x1="160.91" y1="1" x2="166.03" y2="1"/>
</svg>
