<?xml version="1.0" encoding="utf-8"?>
<!-- Generator: Adobe Illustrator 16.0.0, SVG Export Plug-In . SVG Version: 6.00 Build 0)  -->
<!DOCTYPE svg PUBLIC "-//W3C//DTD SVG 1.1//EN" "http://www.w3.org/Graphics/SVG/1.1/DTD/svg11.dtd">
<svg version="1.1" id="Layer_1" xmlns="http://www.w3.org/2000/svg" xmlns:xlink="http://www.w3.org/1999/xlink" x="0px" y="0px"
	 width="326.943px" height="374.229px" viewBox="0 0 326.943 374.229" enable-background="new 0 0 326.943 374.229"
	 xml:space="preserve">
<path fill="#FFFFFF" d="M178.48,252.03v12.479l-0.359,0.19l-0.101-0.19c0,3.06-6.62,5.53-14.78,5.53
	c-8.159,0-14.77-2.473-14.77-5.53V252.03c4.859,0.899,9.88,1.369,15,1.369c5.13,0,10.149-0.47,15.01-1.38V252.03L178.48,252.03z"/>
<path fill="#FFFFFF" d="M178.12,264.7l3.449,6.567h0.46c62.5,6.49,117.07,45.15,143.91,101.96H1
	c26.851-56.81,81.42-95.47,143.92-101.96l3.551-6.76c0,3.06,6.609,5.53,14.771,5.53c8.159,0,14.779-2.473,14.779-5.53L178.12,264.7z
	"/>
<path fill="#FFFFFF" d="M240.9,198.33c-9.529,27.47-33.26,48.3-62.42,53.688c-4.859,0.91-9.88,1.38-15.01,1.38
	c-5.12,0-10.141-0.47-15-1.369C119.32,246.63,95.58,225.8,86.05,198.33c-13.93-16.45-21.569-37.32-21.569-58.87V83.37
	c0-0.71,0.011-1.41,0.021-2.12c1.181-45.32,38.859-81.11,84.181-79.94v0.01L176.77,1l1.49,0.31c0.71-0.02,1.42-0.03,2.13-0.03
	c45.33,0,82.08,36.75,82.08,82.092v56.09C262.47,161.01,254.82,181.88,240.9,198.33z"/>
<g id="POLYLINE_27_">
	
		<line fill="none" stroke="#D5D2CA" stroke-width="2" stroke-linecap="round" stroke-linejoin="round" stroke-miterlimit="10" x1="245.292" y1="108.428" x2="245.398" y2="171.475"/>
</g>
<g id="SPLINE_10_">
	<path fill="none" stroke="#D5D2CA" stroke-width="2" stroke-linecap="round" stroke-linejoin="round" stroke-miterlimit="10" d="
		M184.338,197.468c-1.514,10.166-10.278,17.969-20.873,17.969c-10.591,0-19.352-7.803-20.862-17.969"/>
</g>
<g id="POLYLINE_26_">
	
		<line fill="none" stroke="#D5D2CA" stroke-width="2" stroke-linecap="round" stroke-linejoin="round" stroke-miterlimit="10" x1="81.654" y1="108.428" x2="81.547" y2="171.475"/>
</g>
<g id="POLYLINE_24_">
	
		<line fill="none" stroke="#D5D2CA" stroke-width="2" stroke-linecap="round" stroke-linejoin="round" stroke-miterlimit="10" x1="178.016" y1="252.114" x2="178.016" y2="264.509"/>
</g>
<g id="SPLINE_9_">
	<path fill="none" stroke="#D5D2CA" stroke-width="2" stroke-linecap="round" stroke-linejoin="round" stroke-miterlimit="10" d="
		M65.567,70.217c6.246-39.045,40.084-68.88,80.893-68.88"/>
</g>
<g id="POLYLINE_23_">
	
		<line fill="none" stroke="#D5D2CA" stroke-width="2" stroke-linecap="round" stroke-linejoin="round" stroke-miterlimit="10" x1="74.071" y1="134.008" x2="74.026" y2="160.604"/>
</g>
<g id="POLYLINE_21_">
	
		<line fill="none" stroke="#D5D2CA" stroke-width="2" stroke-linecap="round" stroke-linejoin="round" stroke-miterlimit="10" x1="252.845" y1="133.987" x2="252.897" y2="160.583"/>
</g>
<g id="ARC_113_">
	<path fill="none" stroke="#D5D2CA" stroke-width="2" stroke-linecap="round" stroke-linejoin="round" stroke-miterlimit="10" d="
		M325.944,373.229c-26.921-56.969-81.713-95.676-144.402-102.012"/>
</g>
<g id="LINE_50_">
	
		<line fill="none" stroke="#D5D2CA" stroke-width="2" stroke-linecap="round" stroke-linejoin="round" stroke-miterlimit="10" x1="169.67" y1="174.172" x2="169.67" y2="117.211"/>
</g>
<g id="ELLIPSE_8_">
	<path fill="none" stroke="#D5D2CA" stroke-width="2" stroke-linecap="round" stroke-linejoin="round" stroke-miterlimit="10" d="
		M168.591,278.7c7.71-0.998,12.976-4.018,12.976-7.434"/>
</g>
<g id="ELLIPSE_7_">
	<path fill="none" stroke="#D5D2CA" stroke-width="2" stroke-linecap="round" stroke-linejoin="round" stroke-miterlimit="10" d="
		M144.917,271.269c0,3.422,5.283,6.443,13.009,7.438"/>
</g>
<g id="LINE_47_">
	
		<line fill="none" stroke="#D5D2CA" stroke-width="2" stroke-linecap="round" stroke-linejoin="round" stroke-miterlimit="10" x1="157.926" y1="278.704" x2="163.261" y2="270.044"/>
</g>
<g id="LINE_46_">
	
		<line fill="none" stroke="#D5D2CA" stroke-width="2" stroke-linecap="round" stroke-linejoin="round" stroke-miterlimit="10" x1="168.596" y1="278.704" x2="163.261" y2="270.044"/>
</g>
<g id="ARC_111_">
	<path fill="none" stroke="#D5D2CA" stroke-width="2" stroke-linecap="round" stroke-linejoin="round" stroke-miterlimit="10" d="
		M157.017,177.292c1.724,3.282,5.779,4.545,9.062,2.82c2.208-1.158,3.591-3.446,3.591-5.94"/>
</g>
<g id="ARC_110_">
	<path fill="none" stroke="#D5D2CA" stroke-width="2" stroke-linecap="round" stroke-linejoin="round" stroke-miterlimit="10" d="
		M151.796,174.108c0,1.979,1.604,3.582,3.581,3.582c0.57,0,1.133-0.137,1.641-0.396"/>
</g>
<g id="ARC_109_">
	<path fill="none" stroke="#D5D2CA" stroke-width="2" stroke-linecap="round" stroke-linejoin="round" stroke-miterlimit="10" d="
		M168.902,177.292c1.76,0.902,3.919,0.214,4.823-1.546c0.263-0.509,0.397-1.068,0.397-1.641"/>
</g>
<g id="ARC_108_">
	<path fill="none" stroke="#D5D2CA" stroke-width="2" stroke-linecap="round" stroke-linejoin="round" stroke-miterlimit="10" d="
		M214.525,193.688c-32.424-12.21-68.152-12.395-100.703-0.52"/>
</g>
<g id="ARC_107_">
	<path fill="none" stroke="#D5D2CA" stroke-width="2" stroke-linecap="round" stroke-linejoin="round" stroke-miterlimit="10" d="
		M81.547,171.446c-0.011,12.941,10.471,23.444,23.41,23.456c3.039,0.004,6.05-0.586,8.863-1.73"/>
</g>
<g id="ARC_106_">
	<path fill="none" stroke="#D5D2CA" stroke-width="2" stroke-linecap="round" stroke-linejoin="round" stroke-miterlimit="10" d="
		M214.525,193.688c12.271,4.109,25.554-2.508,29.661-14.778c0.805-2.406,1.215-4.928,1.212-7.465"/>
</g>
<g id="ARC_105_">
	<path fill="none" stroke="#D5D2CA" stroke-width="2" stroke-linecap="round" stroke-linejoin="round" stroke-miterlimit="10" d="
		M224.693,115.815c-11.523-9.777-28.36-10.02-40.16-0.571"/>
</g>
<g id="ARC_104_">
	<path fill="none" stroke="#D5D2CA" stroke-width="2" stroke-linecap="round" stroke-linejoin="round" stroke-miterlimit="10" d="
		M229.51,110.137c-14.241-12.084-35.051-12.381-49.631-0.709"/>
</g>
<g id="ARC_103_">
	<path fill="none" stroke="#D5D2CA" stroke-width="2" stroke-linecap="round" stroke-linejoin="round" stroke-miterlimit="10" d="
		M99.225,93.011c6.999-15.36,10.806-31.981,11.188-48.854"/>
</g>
<g id="ARC_102_">
	<path fill="none" stroke="#D5D2CA" stroke-width="2" stroke-linecap="round" stroke-linejoin="round" stroke-miterlimit="10" d="
		M110.413,44.156c-19.363,15.556-30.064,39.472-28.76,64.271"/>
</g>
<g id="ARC_101_">
	<path fill="none" stroke="#D5D2CA" stroke-width="2" stroke-linecap="round" stroke-linejoin="round" stroke-miterlimit="10" d="
		M245.292,108.428c1.314-25.016-9.58-49.115-29.23-64.65"/>
</g>
<g id="ARC_100_">
	<path fill="none" stroke="#D5D2CA" stroke-width="2" stroke-linecap="round" stroke-linejoin="round" stroke-miterlimit="10" d="
		M179.879,109.428c-1.604,1.284-1.864,3.628-0.581,5.233c1.285,1.604,3.63,1.862,5.232,0.58"/>
</g>
<g id="ARC_99_">
	<path fill="none" stroke="#D5D2CA" stroke-width="2" stroke-linecap="round" stroke-linejoin="round" stroke-miterlimit="10" d="
		M224.693,115.815c1.566,1.329,3.917,1.139,5.247-0.43s1.138-3.918-0.431-5.248"/>
</g>
<g id="ARC_98_">
	<path fill="none" stroke="#D5D2CA" stroke-width="2" stroke-linecap="round" stroke-linejoin="round" stroke-miterlimit="10" d="
		M74.026,160.604c-0.004,2.565,2.072,4.646,4.637,4.651c1.054,0.002,2.073-0.354,2.897-1.011"/>
</g>
<g id="ARC_97_">
	<path fill="none" stroke="#D5D2CA" stroke-width="2" stroke-linecap="round" stroke-linejoin="round" stroke-miterlimit="10" d="
		M99.225,93.011c45.423,9.795,92.12-9.882,116.835-49.233"/>
</g>
<g id="ARC_96_">
	<path fill="none" stroke="#D5D2CA" stroke-width="2" stroke-linecap="round" stroke-linejoin="round" stroke-miterlimit="10" d="
		M146.67,115.815c-11.523-9.777-28.36-10.02-40.161-0.571"/>
</g>
<g id="ARC_95_">
	<path fill="none" stroke="#D5D2CA" stroke-width="2" stroke-linecap="round" stroke-linejoin="round" stroke-miterlimit="10" d="
		M151.487,110.137c-14.239-12.084-35.049-12.381-49.63-0.709"/>
</g>
<g id="ARC_94_">
	<path fill="none" stroke="#D5D2CA" stroke-width="2" stroke-linecap="round" stroke-linejoin="round" stroke-miterlimit="10" d="
		M101.857,109.428c-1.604,1.284-1.863,3.628-0.58,5.233c1.285,1.604,3.628,1.862,5.231,0.58"/>
</g>
<g id="ARC_93_">
	<path fill="none" stroke="#D5D2CA" stroke-width="2" stroke-linecap="round" stroke-linejoin="round" stroke-miterlimit="10" d="
		M146.67,115.815c1.567,1.329,3.917,1.139,5.248-0.43c1.329-1.568,1.138-3.918-0.433-5.248"/>
</g>
<g id="LINE_45_">
	
		<line fill="none" stroke="#D5D2CA" stroke-width="2" stroke-linecap="round" stroke-linejoin="round" stroke-miterlimit="10" x1="163.261" y1="270.044" x2="163.261" y2="373.229"/>
</g>
<g id="CIRCLE_5_">
	<path fill="none" stroke="#D5D2CA" stroke-width="2" stroke-linecap="round" stroke-linejoin="round" stroke-miterlimit="10" d="
		M161.723,288.958c0-0.531-0.431-0.963-0.963-0.963c-0.533,0-0.966,0.432-0.966,0.963c0,0.533,0.433,0.965,0.966,0.965
		C161.293,289.923,161.723,289.491,161.723,288.958L161.723,288.958z"/>
</g>
<g id="CIRCLE_4_">
	<path fill="none" stroke="#D5D2CA" stroke-width="2" stroke-linecap="round" stroke-linejoin="round" stroke-miterlimit="10" d="
		M161.723,318.031c0-0.532-0.431-0.967-0.963-0.967c-0.533,0-0.966,0.434-0.966,0.967c0,0.531,0.433,0.963,0.966,0.963
		C161.293,318.993,161.723,318.563,161.723,318.031L161.723,318.031z"/>
</g>
<g id="CIRCLE_3_">
	<path fill="none" stroke="#D5D2CA" stroke-width="2" stroke-linecap="round" stroke-linejoin="round" stroke-miterlimit="10" d="
		M161.723,347.103c0-0.531-0.431-0.963-0.963-0.963c-0.533,0-0.966,0.432-0.966,0.963c0,0.533,0.433,0.965,0.966,0.965
		C161.293,348.068,161.723,347.636,161.723,347.103L161.723,347.103z"/>
</g>
<g id="LINE_44_">
	
		<line fill="none" stroke="#D5D2CA" stroke-width="2" stroke-linecap="round" stroke-linejoin="round" stroke-miterlimit="10" x1="151.454" y1="373.229" x2="151.454" y2="277.216"/>
</g>
<g id="LINE_43_">
	
		<line fill="none" stroke="#D5D2CA" stroke-width="2" stroke-linecap="round" stroke-linejoin="round" stroke-miterlimit="10" x1="138.17" y1="373.229" x2="138.17" y2="272.097"/>
</g>
<g id="LINE_42_">
	
		<line fill="none" stroke="#D5D2CA" stroke-width="2" stroke-linecap="round" stroke-linejoin="round" stroke-miterlimit="10" x1="124.886" y1="373.229" x2="124.886" y2="274.499"/>
</g>
<g id="LINE_41_">
	
		<line fill="none" stroke="#D5D2CA" stroke-width="2" stroke-linecap="round" stroke-linejoin="round" stroke-miterlimit="10" x1="111.604" y1="373.229" x2="111.604" y2="277.956"/>
</g>
<g id="LINE_40_">
	
		<line fill="none" stroke="#D5D2CA" stroke-width="2" stroke-linecap="round" stroke-linejoin="round" stroke-miterlimit="10" x1="98.32" y1="373.229" x2="98.32" y2="282.536"/>
</g>
<g id="LINE_39_">
	
		<line fill="none" stroke="#D5D2CA" stroke-width="2" stroke-linecap="round" stroke-linejoin="round" stroke-miterlimit="10" x1="85.036" y1="373.229" x2="85.036" y2="288.331"/>
</g>
<g id="LINE_38_">
	
		<line fill="none" stroke="#D5D2CA" stroke-width="2" stroke-linecap="round" stroke-linejoin="round" stroke-miterlimit="10" x1="71.75" y1="373.229" x2="71.75" y2="295.478"/>
</g>
<g id="LINE_37_">
	
		<line fill="none" stroke="#D5D2CA" stroke-width="2" stroke-linecap="round" stroke-linejoin="round" stroke-miterlimit="10" x1="58.468" y1="373.229" x2="58.468" y2="304.179"/>
</g>
<g id="LINE_36_">
	
		<line fill="none" stroke="#D5D2CA" stroke-width="2" stroke-linecap="round" stroke-linejoin="round" stroke-miterlimit="10" x1="45.184" y1="373.229" x2="45.184" y2="314.731"/>
</g>
<g id="LINE_35_">
	
		<line fill="none" stroke="#D5D2CA" stroke-width="2" stroke-linecap="round" stroke-linejoin="round" stroke-miterlimit="10" x1="31.9" y1="373.229" x2="31.9" y2="327.612"/>
</g>
<g id="LINE_34_">
	
		<line fill="none" stroke="#D5D2CA" stroke-width="2" stroke-linecap="round" stroke-linejoin="round" stroke-miterlimit="10" x1="18.618" y1="373.229" x2="18.618" y2="343.663"/>
</g>
<g id="LINE_33_">
	
		<line fill="none" stroke="#D5D2CA" stroke-width="2" stroke-linecap="round" stroke-linejoin="round" stroke-miterlimit="10" x1="5.333" y1="373.229" x2="5.333" y2="364.661"/>
</g>
<g id="LINE_32_">
	
		<line fill="none" stroke="#D5D2CA" stroke-width="2" stroke-linecap="round" stroke-linejoin="round" stroke-miterlimit="10" x1="7.875" y1="360.115" x2="163.261" y2="360.115"/>
</g>
<g id="LINE_31_">
	
		<line fill="none" stroke="#D5D2CA" stroke-width="2" stroke-linecap="round" stroke-linejoin="round" stroke-miterlimit="10" x1="16.345" y1="346.829" x2="163.261" y2="346.829"/>
</g>
<g id="LINE_30_">
	
		<line fill="none" stroke="#D5D2CA" stroke-width="2" stroke-linecap="round" stroke-linejoin="round" stroke-miterlimit="10" x1="26.62" y1="333.548" x2="163.261" y2="333.548"/>
</g>
<g id="LINE_29_">
	
		<line fill="none" stroke="#D5D2CA" stroke-width="2" stroke-linecap="round" stroke-linejoin="round" stroke-miterlimit="10" x1="39.14" y1="320.265" x2="163.261" y2="320.265"/>
</g>
<g id="LINE_28_">
	
		<line fill="none" stroke="#D5D2CA" stroke-width="2" stroke-linecap="round" stroke-linejoin="round" stroke-miterlimit="10" x1="54.683" y1="306.979" x2="163.261" y2="306.979"/>
</g>
<g id="LINE_27_">
	
		<line fill="none" stroke="#D5D2CA" stroke-width="2" stroke-linecap="round" stroke-linejoin="round" stroke-miterlimit="10" x1="74.821" y1="293.696" x2="163.261" y2="293.696"/>
</g>
<g id="LINE_26_">
	
		<line fill="none" stroke="#D5D2CA" stroke-width="2" stroke-linecap="round" stroke-linejoin="round" stroke-miterlimit="10" x1="104.059" y1="280.413" x2="163.261" y2="280.413"/>
</g>
<g id="LINE_25_">
	
		<line fill="none" stroke="#D5D2CA" stroke-width="2" stroke-linecap="round" stroke-linejoin="round" stroke-miterlimit="10" x1="154.015" y1="268.831" x2="150.196" y2="276.724"/>
</g>
<g id="LINE_24_">
	
		<line fill="none" stroke="#D5D2CA" stroke-width="2" stroke-linecap="round" stroke-linejoin="round" stroke-miterlimit="10" x1="158.095" y1="278.431" x2="158.095" y2="373.229"/>
</g>
<g id="LINE_23_">
	
		<line fill="none" stroke="#D5D2CA" stroke-width="2" stroke-linecap="round" stroke-linejoin="round" stroke-miterlimit="10" x1="175.492" y1="373.229" x2="175.492" y2="277.216"/>
</g>
<g id="LINE_22_">
	
		<line fill="none" stroke="#D5D2CA" stroke-width="2" stroke-linecap="round" stroke-linejoin="round" stroke-miterlimit="10" x1="188.775" y1="373.229" x2="188.775" y2="272.097"/>
</g>
<g id="LINE_21_">
	
		<line fill="none" stroke="#D5D2CA" stroke-width="2" stroke-linecap="round" stroke-linejoin="round" stroke-miterlimit="10" x1="202.059" y1="373.229" x2="202.059" y2="274.499"/>
</g>
<g id="LINE_20_">
	
		<line fill="none" stroke="#D5D2CA" stroke-width="2" stroke-linecap="round" stroke-linejoin="round" stroke-miterlimit="10" x1="215.342" y1="373.229" x2="215.342" y2="277.956"/>
</g>
<g id="LINE_19_">
	
		<line fill="none" stroke="#D5D2CA" stroke-width="2" stroke-linecap="round" stroke-linejoin="round" stroke-miterlimit="10" x1="228.627" y1="373.229" x2="228.627" y2="282.536"/>
</g>
<g id="LINE_18_">
	
		<line fill="none" stroke="#D5D2CA" stroke-width="2" stroke-linecap="round" stroke-linejoin="round" stroke-miterlimit="10" x1="241.911" y1="373.229" x2="241.911" y2="288.331"/>
</g>
<g id="LINE_17_">
	
		<line fill="none" stroke="#D5D2CA" stroke-width="2" stroke-linecap="round" stroke-linejoin="round" stroke-miterlimit="10" x1="255.194" y1="373.229" x2="255.194" y2="295.478"/>
</g>
<g id="LINE_16_">
	
		<line fill="none" stroke="#D5D2CA" stroke-width="2" stroke-linecap="round" stroke-linejoin="round" stroke-miterlimit="10" x1="268.478" y1="373.229" x2="268.478" y2="304.179"/>
</g>
<g id="LINE_15_">
	
		<line fill="none" stroke="#D5D2CA" stroke-width="2" stroke-linecap="round" stroke-linejoin="round" stroke-miterlimit="10" x1="281.761" y1="373.229" x2="281.761" y2="314.731"/>
</g>
<g id="LINE_14_">
	
		<line fill="none" stroke="#D5D2CA" stroke-width="2" stroke-linecap="round" stroke-linejoin="round" stroke-miterlimit="10" x1="295.045" y1="373.229" x2="295.045" y2="327.612"/>
</g>
<g id="LINE_13_">
	
		<line fill="none" stroke="#D5D2CA" stroke-width="2" stroke-linecap="round" stroke-linejoin="round" stroke-miterlimit="10" x1="308.329" y1="373.229" x2="308.329" y2="343.663"/>
</g>
<g id="LINE_12_">
	
		<line fill="none" stroke="#D5D2CA" stroke-width="2" stroke-linecap="round" stroke-linejoin="round" stroke-miterlimit="10" x1="319.072" y1="360.115" x2="163.684" y2="360.115"/>
</g>
<g id="LINE_11_">
	
		<line fill="none" stroke="#D5D2CA" stroke-width="2" stroke-linecap="round" stroke-linejoin="round" stroke-miterlimit="10" x1="310.6" y1="346.829" x2="163.684" y2="346.829"/>
</g>
<g id="LINE_10_">
	
		<line fill="none" stroke="#D5D2CA" stroke-width="2" stroke-linecap="round" stroke-linejoin="round" stroke-miterlimit="10" x1="300.327" y1="333.548" x2="163.684" y2="333.548"/>
</g>
<g id="LINE_9_">
	
		<line fill="none" stroke="#D5D2CA" stroke-width="2" stroke-linecap="round" stroke-linejoin="round" stroke-miterlimit="10" x1="287.805" y1="320.265" x2="163.684" y2="320.265"/>
</g>
<g id="LINE_8_">
	
		<line fill="none" stroke="#D5D2CA" stroke-width="2" stroke-linecap="round" stroke-linejoin="round" stroke-miterlimit="10" x1="272.263" y1="306.979" x2="163.684" y2="306.979"/>
</g>
<g id="LINE_7_">
	
		<line fill="none" stroke="#D5D2CA" stroke-width="2" stroke-linecap="round" stroke-linejoin="round" stroke-miterlimit="10" x1="252.125" y1="293.696" x2="163.684" y2="293.696"/>
</g>
<g id="LINE_6_">
	
		<line fill="none" stroke="#D5D2CA" stroke-width="2" stroke-linecap="round" stroke-linejoin="round" stroke-miterlimit="10" x1="222.886" y1="280.413" x2="163.684" y2="280.413"/>
</g>
<g id="LINE_5_">
	
		<line fill="none" stroke="#D5D2CA" stroke-width="2" stroke-linecap="round" stroke-linejoin="round" stroke-miterlimit="10" x1="198.588" y1="273.772" x2="181.05" y2="273.772"/>
</g>
<g id="LINE_4_">
	
		<line fill="none" stroke="#D5D2CA" stroke-width="2" stroke-linecap="round" stroke-linejoin="round" stroke-miterlimit="10" x1="172.506" y1="268.831" x2="176.327" y2="276.724"/>
</g>
<g id="ARC_87_">
	<path fill="none" stroke="#D5D2CA" stroke-width="2" stroke-linecap="round" stroke-linejoin="round" stroke-miterlimit="10" d="
		M81.618,130.391c-2.002-1.603-4.926-1.28-6.528,0.722c-0.656,0.821-1.018,1.844-1.02,2.896"/>
</g>
<g id="ARC_86_">
	<path fill="none" stroke="#D5D2CA" stroke-width="2" stroke-linecap="round" stroke-linejoin="round" stroke-miterlimit="10" d="
		M245.364,164.226c2.008,1.595,4.929,1.263,6.524-0.745c0.654-0.82,1.011-1.845,1.009-2.896"/>
</g>
<g id="ARC_85_">
	<path fill="none" stroke="#D5D2CA" stroke-width="2" stroke-linecap="round" stroke-linejoin="round" stroke-miterlimit="10" d="
		M252.845,133.987c-0.005-2.562-2.089-4.641-4.651-4.635c-1.053,0.002-2.072,0.361-2.896,1.021"/>
</g>
<g id="HATCH_5_">
	
		<path fill="#D5D2CA" stroke="#D5D2CA" stroke-width="2" stroke-linecap="round" stroke-linejoin="round" stroke-miterlimit="10" d="
		M208.639,136.575c-0.499,2.616-3.027,4.336-5.641,3.839c-2.623-0.504-4.337-3.022-3.845-5.646c0.498-2.618,3.028-4.332,5.641-3.832
		C207.418,131.434,209.138,133.958,208.639,136.575z"/>
</g>
<g id="HATCH_4_">
	
		<path fill="#D5D2CA" stroke="#D5D2CA" stroke-width="2" stroke-linecap="round" stroke-linejoin="round" stroke-miterlimit="10" d="
		M130.612,136.575c-0.493,2.616-3.021,4.336-5.635,3.839c-2.623-0.504-4.337-3.022-3.838-5.646c0.498-2.618,3.021-4.332,5.64-3.832
		C129.396,131.434,131.116,133.958,130.612,136.575z"/>
</g>
<g id="ARC_84_">
	<path fill="none" stroke="#D5D2CA" stroke-width="2" stroke-linecap="round" stroke-linejoin="round" stroke-miterlimit="10" d="
		M218.663,138c-3.158-8.938-12.963-13.618-21.897-10.46c-4.889,1.729-8.731,5.572-10.459,10.46"/>
</g>
<g id="ARC_83_">
	<path fill="none" stroke="#D5D2CA" stroke-width="2" stroke-linecap="round" stroke-linejoin="round" stroke-miterlimit="10" d="
		M186.305,138c3.158,8.936,12.964,13.618,21.898,10.46c4.887-1.729,8.729-5.572,10.458-10.46"/>
</g>
<g id="CIRCLE_2_">
	<path fill="none" stroke="#D5D2CA" stroke-width="2" stroke-linecap="round" stroke-linejoin="round" stroke-miterlimit="10" d="
		M212.98,135.933c0-5.124-4.153-9.279-9.279-9.279c-5.124,0-9.278,4.155-9.278,9.279s4.154,9.279,9.278,9.279
		C208.826,145.212,212.98,141.057,212.98,135.933L212.98,135.933z"/>
</g>
<g id="ARC_82_">
	<path fill="none" stroke="#D5D2CA" stroke-width="2" stroke-linecap="round" stroke-linejoin="round" stroke-miterlimit="10" d="
		M140.641,138c-3.159-8.938-12.964-13.618-21.898-10.46c-4.888,1.729-8.729,5.572-10.459,10.46"/>
</g>
<g id="ARC_80_">
	<path fill="none" stroke="#D5D2CA" stroke-width="2" stroke-linecap="round" stroke-linejoin="round" stroke-miterlimit="10" d="
		M108.283,138c3.158,8.936,12.963,13.618,21.897,10.46c4.888-1.729,8.73-5.572,10.46-10.46"/>
</g>
<g id="CIRCLE_1_">
	<path fill="none" stroke="#D5D2CA" stroke-width="2" stroke-linecap="round" stroke-linejoin="round" stroke-miterlimit="10" d="
		M134.957,135.933c0-5.124-4.152-9.279-9.277-9.279c-5.126,0-9.279,4.155-9.279,9.279s4.153,9.279,9.279,9.279
		C130.803,145.212,134.957,141.057,134.957,135.933L134.957,135.933z"/>
</g>
<path fill="none" stroke="#D5D2CA" stroke-width="2" stroke-linecap="round" stroke-linejoin="round" stroke-miterlimit="10" d="
	M245.4,171.48c0,9.41-1.59,18.44-4.5,26.852c-9.529,27.47-33.26,48.3-62.42,53.688c-4.859,0.91-9.88,1.38-15.01,1.38
	c-5.12,0-10.141-0.47-15-1.369c-29.15-5.398-52.891-26.229-62.421-53.698c-2.909-8.41-4.5-17.44-4.5-26.852"/>
<line fill="none" stroke="#D5D2CA" stroke-width="2" stroke-linecap="round" stroke-linejoin="round" stroke-miterlimit="10" x1="148.47" y1="252.03" x2="148.47" y2="264.51"/>
<line fill="none" stroke="#D5D2CA" stroke-width="2" stroke-linecap="round" stroke-linejoin="round" stroke-miterlimit="10" x1="178.48" y1="252.03" x2="178.48" y2="264.51"/>
<path fill="none" stroke="#D5D2CA" stroke-width="2" stroke-linecap="round" stroke-linejoin="round" stroke-miterlimit="10" d="
	M144.92,271.27C82.42,277.76,27.85,316.42,1,373.229"/>
<path fill="none" stroke="#D5D2CA" stroke-width="2" stroke-linecap="round" stroke-linejoin="round" stroke-miterlimit="10" d="
	M148.47,264.51c0,3.06,6.609,5.53,14.771,5.53c8.159,0,14.779-2.473,14.779-5.53c0-0.01,0-0.03,0-0.04"/>
<line fill="none" stroke="#D5D2CA" stroke-width="2" stroke-linecap="round" stroke-linejoin="round" stroke-miterlimit="10" x1="148.47" y1="264.51" x2="144.92" y2="271.27"/>
<polyline fill="none" stroke="#D5D2CA" stroke-width="2" stroke-linecap="round" stroke-linejoin="round" stroke-miterlimit="10" points="
	178.02,264.51 178.12,264.7 181.57,271.27 "/>
<path fill="none" stroke="#D5D2CA" stroke-width="2" stroke-linecap="round" stroke-linejoin="round" stroke-miterlimit="10" d="
	M325.94,373.229c-26.84-56.81-81.41-95.47-143.91-101.96"/>
<polyline fill="none" stroke="#D5D2CA" stroke-width="2" stroke-linecap="round" stroke-linejoin="round" stroke-miterlimit="10" points="
	146.46,1.34 148.68,1.32 176.77,1 "/>
<path fill="none" stroke="#D5D2CA" stroke-width="2" stroke-linecap="round" stroke-linejoin="round" stroke-miterlimit="10" d="
	M148.68,1.31c-45.32-1.17-83,34.62-84.181,79.94c-0.011,0.71-0.021,1.41-0.021,2.12"/>
<line fill="none" stroke="#D5D2CA" stroke-width="2" stroke-linecap="round" stroke-linejoin="round" stroke-miterlimit="10" x1="64.48" y1="83.37" x2="64.48" y2="139.46"/>
<path fill="none" stroke="#D5D2CA" stroke-width="2" stroke-linecap="round" stroke-linejoin="round" stroke-miterlimit="10" d="
	M64.48,139.46c0,21.55,7.641,42.42,21.569,58.87"/>
<line fill="none" stroke="#D5D2CA" stroke-width="2" stroke-linecap="round" stroke-linejoin="round" stroke-miterlimit="10" x1="262.47" y1="83.37" x2="262.47" y2="139.46"/>
<path fill="none" stroke="#D5D2CA" stroke-width="2" stroke-linecap="round" stroke-linejoin="round" stroke-miterlimit="10" d="
	M240.9,198.33c13.92-16.45,21.57-37.32,21.57-58.87"/>
<path fill="none" stroke="#D5D2CA" stroke-width="2" stroke-linecap="round" stroke-linejoin="round" stroke-miterlimit="10" d="
	M262.47,83.37c0-45.342-36.75-82.092-82.08-82.092c-0.71,0-1.42,0.012-2.131,0.03"/>
</svg>
