<?xml version="1.0" encoding="utf-8"?>
<!-- Generator: Adobe Illustrator 16.0.0, SVG Export Plug-In . SVG Version: 6.00 Build 0)  -->
<!DOCTYPE svg PUBLIC "-//W3C//DTD SVG 1.1//EN" "http://www.w3.org/Graphics/SVG/1.1/DTD/svg11.dtd">
<svg version="1.1" id="Layer_1" xmlns="http://www.w3.org/2000/svg" xmlns:xlink="http://www.w3.org/1999/xlink" x="0px" y="0px"
	 width="32.712px" height="25.062px" viewBox="0 0 32.712 25.062" enable-background="new 0 0 32.712 25.062" xml:space="preserve">
<rect x="0.75" y="0.75" fill="#FFFFFF" stroke="#E2DED7" stroke-width="1.5" stroke-linecap="round" stroke-linejoin="round" stroke-miterlimit="10" width="31.212" height="23.562"/>
<polyline fill="none" stroke="#E2DED7" stroke-width="1.5" stroke-linecap="round" stroke-linejoin="round" stroke-miterlimit="10" points="
	31.962,3.491 16.356,17.841 0.75,3.491 "/>
<g id="SPLINE_184_">
	
		<path fill="#FFFFFF" stroke="#E2DED7" stroke-width="1.5" stroke-linecap="round" stroke-linejoin="round" stroke-miterlimit="10" d="
		M19.157,18.378c-0.934,1.015-1.867,2.034-2.803,3.051c0.001,0,0.001,0,0.001,0c-0.932-1.017-1.867-2.036-2.802-3.051
		c0.097,0.104,0.141,0.153,0.133,0.144c-0.01-0.009-0.016-0.017-0.022-0.022s-0.012-0.012-0.018-0.019
		c-0.006-0.005-0.014-0.014-0.021-0.02c-0.005-0.008-0.02-0.021-0.042-0.045c-0.022-0.025-0.047-0.053-0.078-0.089
		s-0.064-0.074-0.099-0.118c-0.034-0.042-0.068-0.088-0.1-0.132c-0.034-0.048-0.063-0.092-0.096-0.14
		c-0.03-0.045-0.06-0.094-0.088-0.142c-0.028-0.048-0.056-0.096-0.084-0.146c-0.026-0.048-0.053-0.099-0.076-0.147
		c-0.024-0.053-0.046-0.102-0.07-0.155c-0.022-0.052-0.042-0.104-0.062-0.158c-0.02-0.053-0.037-0.105-0.056-0.16
		c-0.018-0.054-0.034-0.108-0.05-0.164c-0.014-0.055-0.028-0.11-0.04-0.167c-0.014-0.056-0.026-0.113-0.034-0.17
		c-0.01-0.057-0.021-0.114-0.028-0.172c-0.008-0.059-0.014-0.117-0.018-0.174c-0.005-0.061-0.008-0.11-0.008-0.155
		c-0.002-0.046-0.004-0.082-0.004-0.111c0-0.031,0-0.055,0-0.074c0-0.021,0.002-0.049,0.004-0.083c0-0.034,0.003-0.07,0.008-0.109
		c0.005-0.038,0.012-0.076,0.018-0.114c0.006-0.039,0.014-0.077,0.024-0.115c0.008-0.036,0.018-0.071,0.029-0.109
		c0.012-0.037,0.024-0.072,0.039-0.107c0.012-0.034,0.026-0.069,0.042-0.104c0.016-0.034,0.032-0.068,0.05-0.102
		c0.016-0.032,0.037-0.064,0.054-0.097c0.02-0.032,0.04-0.064,0.061-0.094c0.022-0.031,0.043-0.061,0.065-0.092
		c0.022-0.028,0.046-0.057,0.07-0.085c0.026-0.028,0.05-0.054,0.076-0.08c0.026-0.027,0.054-0.052,0.081-0.079
		c0.028-0.023,0.056-0.048,0.086-0.071c0.028-0.022,0.058-0.044,0.088-0.065c0.03-0.022,0.062-0.043,0.092-0.063
		c0.032-0.02,0.064-0.037,0.098-0.056c0.033-0.019,0.067-0.034,0.101-0.05c0.033-0.017,0.068-0.032,0.102-0.046
		c0.037-0.015,0.072-0.026,0.108-0.038c0.036-0.013,0.072-0.022,0.108-0.032c0.038-0.011,0.074-0.019,0.113-0.026
		c0.038-0.008,0.076-0.015,0.113-0.018c0.041-0.006,0.078-0.01,0.119-0.013c0.038-0.002,0.078-0.004,0.118-0.004
		c0.041-0.001,0.081,0,0.118,0.002c0.041,0.002,0.079,0.006,0.119,0.011c0.038,0.004,0.076,0.01,0.115,0.018
		c0.038,0.007,0.076,0.015,0.112,0.022c0.038,0.01,0.074,0.02,0.11,0.032c0.037,0.01,0.072,0.023,0.109,0.035
		c0.033,0.015,0.07,0.029,0.104,0.045c0.035,0.014,0.068,0.031,0.1,0.048c0.034,0.018,0.066,0.036,0.098,0.056
		c0.033,0.018,0.062,0.039,0.095,0.061c0.03,0.02,0.06,0.042,0.088,0.066c0.03,0.021,0.058,0.046,0.086,0.069
		c0.028,0.024,0.057,0.051,0.082,0.077c0.026,0.025,0.053,0.051,0.076,0.079c0.024,0.028,0.048,0.057,0.072,0.085
		c0.024,0.029,0.046,0.058,0.066,0.088c0.022,0.032,0.042,0.062,0.062,0.095c0.021,0.031,0.039,0.063,0.057,0.095
		c0.018,0.032,0.036,0.066,0.05,0.102c0.016,0.034,0.032,0.067,0.046,0.104c0.014,0.034,0.026,0.07,0.038,0.106
		c0.012,0.036,0.021,0.072,0.032,0.11c0.011,0.036,0.019,0.074,0.026,0.109c0.008,0.038,0.014,0.076,0.018,0.117
		c0.006,0.038,0.008,0.069,0.01,0.094c0.002,0.023,0.004,0.043,0.004,0.053c0,0.009,0.002,0.018,0.002,0.027
		c0,0.011,0,0.021,0.001,0.029c0,0.009,0,0.019-0.004,0.031c-0.004,0.01-0.001,0.016,0.004,0.016c0,0,0.006-0.006,0.004-0.016
		c-0.004-0.013-0.004-0.022-0.004-0.031c0.002-0.009,0.002-0.019,0.002-0.029c0-0.01,0.002-0.019,0.002-0.027
		c0-0.01,0.002-0.027,0.002-0.045c0.001-0.02,0.004-0.048,0.008-0.08c0.004-0.033,0.01-0.069,0.016-0.107
		c0.008-0.039,0.016-0.077,0.024-0.115c0.011-0.036,0.02-0.071,0.032-0.109c0.011-0.037,0.022-0.072,0.037-0.107
		c0.014-0.034,0.028-0.069,0.044-0.104c0.014-0.034,0.033-0.068,0.048-0.102c0.018-0.032,0.036-0.064,0.056-0.097
		c0.018-0.032,0.039-0.064,0.06-0.094c0.021-0.031,0.042-0.061,0.066-0.092c0.022-0.028,0.046-0.057,0.07-0.085
		c0.024-0.028,0.05-0.054,0.076-0.08c0.026-0.027,0.053-0.052,0.081-0.079c0.028-0.023,0.057-0.048,0.084-0.071
		c0.03-0.022,0.059-0.044,0.09-0.065c0.03-0.022,0.06-0.043,0.092-0.063c0.032-0.02,0.065-0.037,0.097-0.056
		c0.034-0.019,0.066-0.034,0.1-0.05c0.035-0.017,0.069-0.032,0.105-0.046c0.033-0.015,0.07-0.026,0.105-0.038
		c0.036-0.013,0.072-0.022,0.11-0.032c0.036-0.011,0.074-0.019,0.112-0.026c0.036-0.008,0.076-0.015,0.114-0.018
		c0.038-0.006,0.076-0.01,0.117-0.013c0.039-0.002,0.077-0.004,0.117-0.004c0.041-0.001,0.08,0,0.118,0.002
		c0.04,0.002,0.078,0.006,0.119,0.011c0.038,0.004,0.075,0.01,0.113,0.018c0.038,0.007,0.076,0.015,0.114,0.022
		c0.036,0.01,0.074,0.02,0.11,0.032c0.036,0.01,0.072,0.023,0.106,0.035c0.036,0.015,0.07,0.029,0.104,0.045
		c0.033,0.014,0.067,0.031,0.102,0.048c0.033,0.018,0.064,0.036,0.097,0.056c0.032,0.018,0.063,0.039,0.095,0.061
		c0.031,0.02,0.06,0.042,0.089,0.066c0.031,0.021,0.059,0.046,0.087,0.069c0.027,0.024,0.055,0.051,0.08,0.077
		c0.028,0.025,0.052,0.051,0.078,0.079c0.023,0.028,0.048,0.057,0.071,0.085c0.022,0.029,0.045,0.058,0.066,0.088
		c0.022,0.032,0.043,0.062,0.063,0.095c0.019,0.031,0.038,0.063,0.055,0.095c0.019,0.032,0.034,0.066,0.05,0.102
		c0.018,0.034,0.031,0.067,0.045,0.104c0.015,0.034,0.027,0.07,0.04,0.106c0.01,0.036,0.022,0.072,0.032,0.11
		c0.008,0.036,0.018,0.074,0.024,0.112c0.007,0.035,0.014,0.073,0.02,0.114c0.004,0.038,0.008,0.072,0.01,0.102
		c0.002,0.028,0.005,0.054,0.005,0.072c0.002,0.021,0.002,0.038,0.002,0.052c0,0.016,0,0.037,0,0.061
		c0,0.025-0.002,0.059-0.002,0.098c-0.003,0.04-0.005,0.088-0.009,0.148c-0.003,0.059-0.01,0.117-0.019,0.175
		c-0.006,0.058-0.016,0.116-0.023,0.174c-0.01,0.059-0.021,0.114-0.033,0.171s-0.027,0.112-0.041,0.168s-0.032,0.12-0.056,0.192
		c-0.024,0.071-0.05,0.142-0.077,0.215c-0.027,0.07-0.058,0.138-0.09,0.207c-0.032,0.07-0.063,0.135-0.1,0.202
		c-0.036,0.065-0.074,0.13-0.112,0.194c-0.041,0.062-0.08,0.125-0.125,0.186c-0.042,0.061-0.088,0.121-0.135,0.178
		c-0.045,0.059-0.093,0.115-0.143,0.17c-0.047,0.054-0.095,0.104-0.145,0.153"/>
</g>
<line fill="none" stroke="#E2DED7" stroke-width="1.5" stroke-linecap="round" stroke-linejoin="round" stroke-miterlimit="10" x1="0.75" y1="24.312" x2="9.846" y2="11.853"/>
<line fill="none" stroke="#E2DED7" stroke-width="1.5" stroke-linecap="round" stroke-linejoin="round" stroke-miterlimit="10" x1="31.962" y1="24.312" x2="22.867" y2="11.853"/>
</svg>
