<?xml version="1.0" encoding="utf-8"?>
<!-- Generator: Adobe Illustrator 16.0.0, SVG Export Plug-In . SVG Version: 6.00 Build 0)  -->
<!DOCTYPE svg PUBLIC "-//W3C//DTD SVG 1.1//EN" "http://www.w3.org/Graphics/SVG/1.1/DTD/svg11.dtd">
<svg version="1.1" id="Layer_1" xmlns="http://www.w3.org/2000/svg" xmlns:xlink="http://www.w3.org/1999/xlink" x="0px" y="0px"
	 width="146.516px" height="141.178px" viewBox="0 0 146.516 141.178" enable-background="new 0 0 146.516 141.178"
	 xml:space="preserve">
<path fill="#FFFFFF" stroke="#D5D2CA" stroke-width="2" stroke-linecap="round" stroke-linejoin="round" stroke-miterlimit="10" d="
	M129.491,45.725c1.623-3.846,2.519-8.073,2.519-12.511C132.01,15.422,117.587,1,99.798,1C87.552,1,76.903,7.831,71.452,17.89h0.003
	c-2.458-7.166-9.256-12.316-17.256-12.316c-10.074,0-18.241,8.167-18.241,18.24c0,0.473,0.018,0.941,0.053,1.406l0.006-0.001
	c-1.616-0.27-3.276-0.41-4.972-0.41C14.45,24.808,1,38.26,1,54.854c0,11.221,6.15,21.004,15.266,26.164l-0.006-0.005
	c-4.102,5.358-6.538,12.059-6.538,19.327c0,17.583,14.256,31.837,31.841,31.837c7.953,0,15.228-2.918,20.809-7.742l-0.012,0.001
	c4.341,9.298,13.775,15.742,24.713,15.742c11.439,0,21.234-7.05,25.274-17.044l-0.005,0.01c2.72,1.043,5.671,1.616,8.757,1.616
	c13.483,0,24.417-10.934,24.417-24.42c0-8.001-3.849-15.103-9.794-19.556l0.006,0.008c4.104-3.883,6.671-9.383,6.671-15.482
	c0-8.823-5.365-16.393-13.01-19.626"/>
<g>
	
		<line fill="none" stroke="#D5D2CA" stroke-width="2" stroke-linecap="round" stroke-linejoin="round" stroke-miterlimit="10" x1="32.552" y1="97.771" x2="32.552" y2="50.898"/>
	
		<line fill="none" stroke="#D5D2CA" stroke-width="2" stroke-linecap="round" stroke-linejoin="round" stroke-miterlimit="10" x1="109.205" y1="102.528" x2="37.31" y2="102.528"/>
	
		<line fill="none" stroke="#D5D2CA" stroke-width="2" stroke-linecap="round" stroke-linejoin="round" stroke-miterlimit="10" x1="113.962" y1="50.896" x2="113.962" y2="97.77"/>
	
		<line fill="none" stroke="#D5D2CA" stroke-width="2" stroke-linecap="round" stroke-linejoin="round" stroke-miterlimit="10" x1="37.31" y1="46.141" x2="109.205" y2="46.141"/>
	<path fill="none" stroke="#D5D2CA" stroke-width="2" stroke-linecap="round" stroke-linejoin="round" stroke-miterlimit="10" d="
		M32.552,50.898c0-2.626,2.131-4.757,4.758-4.757"/>
	<path fill="none" stroke="#D5D2CA" stroke-width="2" stroke-linecap="round" stroke-linejoin="round" stroke-miterlimit="10" d="
		M37.31,102.528c-2.627,0-4.758-2.131-4.758-4.758"/>
	<path fill="none" stroke="#D5D2CA" stroke-width="2" stroke-linecap="round" stroke-linejoin="round" stroke-miterlimit="10" d="
		M109.205,46.141c2.627,0,4.757,2.131,4.757,4.757"/>
	<path fill="none" stroke="#D5D2CA" stroke-width="2" stroke-linecap="round" stroke-linejoin="round" stroke-miterlimit="10" d="
		M113.962,97.771c0,2.627-2.13,4.758-4.757,4.758"/>
	
		<line fill="none" stroke="#D5D2CA" stroke-width="2" stroke-linecap="round" stroke-linejoin="round" stroke-miterlimit="10" x1="32.552" y1="58.476" x2="44.799" y2="46.229"/>
	
		<line fill="none" stroke="#D5D2CA" stroke-width="2" stroke-linecap="round" stroke-linejoin="round" stroke-miterlimit="10" x1="32.552" y1="90.28" x2="44.799" y2="102.528"/>
	
		<line fill="none" stroke="#D5D2CA" stroke-width="2" stroke-linecap="round" stroke-linejoin="round" stroke-miterlimit="10" x1="113.962" y1="58.476" x2="101.717" y2="46.229"/>
	
		<line fill="none" stroke="#D5D2CA" stroke-width="2" stroke-linecap="round" stroke-linejoin="round" stroke-miterlimit="10" x1="113.962" y1="90.28" x2="101.717" y2="102.528"/>
	<path fill="none" stroke="#D5D2CA" stroke-width="2" stroke-linecap="round" stroke-linejoin="round" stroke-miterlimit="10" d="
		M88.875,46.141c0-4.744-3.847-8.59-8.59-8.59H66.23c-4.744,0-8.59,3.846-8.59,8.59h3.128c0-3.017,2.445-5.463,5.462-5.463h13.873
		c3.018,0,5.462,2.446,5.462,5.463"/>
	
		<circle fill="none" stroke="#D5D2CA" stroke-width="2" stroke-linecap="round" stroke-linejoin="round" stroke-miterlimit="10" cx="100.763" cy="64.875" r="5.197"/>
	
		<circle fill="none" stroke="#D5D2CA" stroke-width="2" stroke-linecap="round" stroke-linejoin="round" stroke-miterlimit="10" cx="100.762" cy="64.875" r="3.62"/>
	
		<rect x="82.412" y="53.478" transform="matrix(0.9157 -0.4019 0.4019 0.9157 -14.9726 41.3426)" fill="none" stroke="#D5D2CA" stroke-width="2" stroke-linecap="round" stroke-linejoin="round" stroke-miterlimit="10" width="17.271" height="5.755"/>
	
		<line fill="none" stroke="#D5D2CA" stroke-width="2" stroke-linecap="round" stroke-linejoin="round" stroke-miterlimit="10" x1="85.103" y1="58.965" x2="96.801" y2="53.831"/>
</g>
</svg>
