<?xml version="1.0" encoding="utf-8"?>
<!-- Generator: Adobe Illustrator 16.0.0, SVG Export Plug-In . SVG Version: 6.00 Build 0)  -->
<!DOCTYPE svg PUBLIC "-//W3C//DTD SVG 1.1//EN" "http://www.w3.org/Graphics/SVG/1.1/DTD/svg11.dtd">
<svg version="1.1" id="Layer_1" xmlns="http://www.w3.org/2000/svg" xmlns:xlink="http://www.w3.org/1999/xlink" x="0px" y="0px"
	 width="146.516px" height="141.178px" viewBox="0 0 146.516 141.178" enable-background="new 0 0 146.516 141.178"
	 xml:space="preserve">
<path fill="#FFFFFF" stroke="#D5D2CA" stroke-width="2" stroke-linecap="round" stroke-linejoin="round" stroke-miterlimit="10" d="
	M129.491,45.725c1.623-3.846,2.519-8.073,2.519-12.511C132.01,15.422,117.587,1,99.798,1C87.552,1,76.903,7.831,71.452,17.89h0.003
	c-2.458-7.166-9.256-12.316-17.256-12.316c-10.074,0-18.241,8.167-18.241,18.24c0,0.473,0.018,0.941,0.053,1.406l0.006-0.001
	c-1.616-0.27-3.276-0.41-4.972-0.41C14.45,24.808,1,38.26,1,54.854c0,11.221,6.15,21.004,15.266,26.164l-0.006-0.005
	c-4.102,5.358-6.538,12.059-6.538,19.327c0,17.583,14.256,31.837,31.841,31.837c7.953,0,15.228-2.918,20.809-7.742l-0.012,0.001
	c4.341,9.298,13.775,15.742,24.713,15.742c11.439,0,21.234-7.05,25.274-17.044l-0.005,0.01c2.72,1.043,5.671,1.616,8.757,1.616
	c13.483,0,24.417-10.934,24.417-24.42c0-8.001-3.849-15.103-9.794-19.556l0.006,0.008c4.104-3.883,6.671-9.383,6.671-15.482
	c0-8.823-5.365-16.393-13.01-19.626"/>
<rect x="16.263" y="40.428" fill="none" width="112.334" height="78.541"/>
<text transform="matrix(1 0 0 1 28.2739 54.5254)"><tspan x="0" y="0" fill="#D5D2CA" font-family="'Montserrat-Regular'" font-size="19">HOTELES </tspan><tspan x="1.358" y="18" fill="#D5D2CA" font-family="'Montserrat-Regular'" font-size="21">VUELOS</tspan><tspan x="1.148" y="29" fill="#D5D2CA" font-family="'Montserrat-Regular'" font-size="10.5">RESTAURANTES</tspan><tspan x="1.241" y="40" fill="#D5D2CA" font-family="'Montserrat-Regular'" font-size="11.7">EXCURSIONES</tspan><tspan x="37.289" y="51" fill="#D5D2CA" font-family="'Montserrat-Regular'" font-size="21">...</tspan></text>
</svg>
